<svg xmlns="http://www.w3.org/2000/svg" xmlns:xlink="http://www.w3.org/1999/xlink" viewBox="0 0 5711.98 5044.06"><defs><clipPath id="clippath"><path d="M2470.92,3907.7l4,12.2c-4.2-.2-84.1-4.6-199.6-6.6-55.4-1-118-1.4-182-.4-197.6,3.1-341.7,61.9-349.3,65l-4-12.2c7.6-3.1,151.7-62,349.3-65,64-1,126.6-.6,182,.4,115.6,2.1,195.4,6.4,199.6,6.6Z" style="fill:none; stroke-width:0px;"></path></clipPath></defs><g id="main"><g id="base-first"><polygon points="4067.42 1198.2 4071.42 1210.4 4058.72 1215.3 4054.72 1203.1 4067.42 1198.2" style="fill:#62625d; stroke-width:0px;"></polygon><polygon points="4276.02 1746 4280.02 1758.2 4054.02 1853.2 4050.02 1841.1 4276.02 1746" style="fill:#62625d; stroke-width:0px;"></polygon><polygon points="3606.12 2401.6 3610.12 2413.8 3579.12 2470.9 3575.02 2458.8 3606.12 2401.6" style="fill:#71716b; stroke-width:0px;"></polygon><polygon points="4018.32 2345.9 4022.42 2358.1 3587.12 2356.5 3583.02 2344.3 4018.32 2345.9" style="fill:#60605b; stroke-width:0px;"></polygon><polygon points="4449.52 2487.6 4453.52 2499.8 4022.42 2358.1 4018.32 2345.9 4449.52 2487.6" style="fill:#60605b; stroke-width:0px;"></polygon><polygon points="4668.72 2543.9 4672.72 2556 4453.52 2499.8 4449.52 2487.6 4668.72 2543.9" style="fill:#60605b; stroke-width:0px;"></polygon><polygon points="4759.32 2539 4763.32 2551.2 4672.72 2556 4668.72 2543.9 4759.32 2539" style="fill:#60605b; stroke-width:0px;"></polygon><polygon points="1402.52 3882.3 1406.52 3894.4 1000.92 3307 996.92 3294.9 1402.52 3882.3" style="fill:#60605b; stroke-width:0px;"></polygon><polygon points="1755.22 3985.5 1759.32 3997.7 1511.42 4142.8 1507.32 4130.6 1755.22 3985.5" style="fill:#65655f; stroke-width:0px;"></polygon><polygon points="1507.32 4130.6 1511.42 4142.8 1406.52 3894.4 1402.52 3882.3 1507.32 4130.6" style="fill:#60605b; stroke-width:0px;"></polygon><polygon points="2473.02 3856.4 2477.02 3868.6 2475.02 3919.9 2470.92 3907.7 2473.02 3856.4" style="fill:#777771; stroke-width:0px;"></polygon><g style="clip-path:url(#clippath);"><path d="M2470.92,3907.7l4,12.2c-4.2-.2-84.1-4.6-199.6-6.6-55.4-1-118-1.4-182-.4-197.6,3.1-341.7,61.9-349.3,65l-4-12.2c7.6-3.1,151.7-62,349.3-65,64-1,126.6-.6,182,.4,115.6,2.1,195.4,6.4,199.6,6.6" style="fill:#63635e; stroke-width:0px;"></path></g><polygon points="4202.92 3205.3 4206.92 3217.4 4206.82 3397.9 4202.82 3385.8 4202.92 3205.3" style="fill:#777771; stroke-width:0px;"></polygon><polygon points="2936.12 3864.5 2940.12 3876.7 2477.02 3868.6 2473.02 3856.4 2936.12 3864.5" style="fill:#60605b; stroke-width:0px;"></polygon><polygon points="2954.12 3915.2 2958.12 3927.4 2940.12 3876.7 2936.12 3864.5 2954.12 3915.2" style="fill:#60605b; stroke-width:0px;"></polygon><polygon points="4473.32 3324.5 4477.32 3336.7 4494.92 3625.8 4490.92 3613.7 4473.32 3324.5" style="fill:#777771; stroke-width:0px;"></polygon><polygon points="4490.92 3613.7 4494.92 3625.8 4335.52 3623 4331.52 3610.9 4490.92 3613.7" style="fill:#60605b; stroke-width:0px;"></polygon><polygon points="4331.52 3610.9 4335.52 3623 4322.72 3951.2 4318.62 3939 4331.52 3610.9" style="fill:#777771; stroke-width:0px;"></polygon><path d="M4035.42,1121.7l32,76.5-12.7,4.9,102.2,250.7,119.1,292.2-226,95.1,57.2,142.7,205.3,8.3,158.4.5,198.4,393.6,90,152.9-90.6,4.8-219.2-56.2-431.2-141.7-435.3-1.6,23.1,57.3-31.1,57.1,627.8,746.5-.1,180.5,61.8,1.1,208.8-62.3,17.6,289.2-159.4-2.8-12.9,328.1-1364.6-23.8-17.9-50.7-463.2-8.1-2,51.3c-4.2-.2-84.1-4.6-199.6-6.6-55.4-1-118-1.4-182-.4-197.6,3.1-341.7,61.9-349.3,65l15.2,19.7-247.9,145.1-104.9-248.3-405.6-587.4,13-26.9,295.2-131.7-180.2-1021.1,473-89.8,414.8-81.1,645.1-261.3,471-190.9,906.7-370.4h0Z" style="fill:#a9a9a0; stroke-width:0px;"></path><polygon points="4318.62 3939 4322.72 3951.2 2958.12 3927.4 2954.12 3915.2 4318.62 3939" style="fill:#60605b; stroke-width:0px;"></polygon><polygon points="4032.82 1149.3 4036.82 1161.5 4024.12 1166.3 4020.12 1154.2 4032.82 1149.3" style="fill:#00151b; stroke-width:0px;"></polygon><polygon points="4071.02 1272.4 4075.02 1284.6 4013.12 1308.6 4009.12 1296.4 4071.02 1272.4" style="fill:#00151b; stroke-width:0px;"></polygon><polygon points="3542.62 1624.5 3546.62 1636.6 3319.62 1727.6 3315.62 1715.4 3542.62 1624.5" style="fill:#00151b; stroke-width:0px;"></polygon><polygon points="3315.62 1715.4 3319.62 1727.6 3190.82 1423.7 3186.72 1411.5 3315.62 1715.4" style="fill:#00151b; stroke-width:0px;"></polygon><polygon points="3843.12 1799.8 3847.12 1812 3811.42 1825.8 3807.32 1813.7 3843.12 1799.8" style="fill:#00151b; stroke-width:0px;"></polygon><polygon points="4201.42 1676.8 4205.42 1689 3855.82 1833.2 3851.82 1821 4201.42 1676.8" style="fill:#00151b; stroke-width:0px;"></polygon><polygon points="3851.82 1821 3855.82 1833.2 3847.12 1812 3843.12 1799.8 3851.82 1821" style="fill:#00151b; stroke-width:0px;"></polygon><polygon points="3670.02 1932.6 3674.02 1944.7 3546.62 1636.6 3542.62 1624.5 3670.02 1932.6" style="fill:#00151b; stroke-width:0px;"></polygon><polygon points="3828.32 1866.8 3832.32 1878.9 3674.02 1944.7 3670.02 1932.6 3828.32 1866.8" style="fill:#00151b; stroke-width:0px;"></polygon><polygon points="3038.32 1694.5 3042.32 1706.7 2920.42 1753.8 2916.42 1741.7 3038.32 1694.5" style="fill:#6c6c66; stroke-width:0px;"></polygon><polygon points="2916.42 1741.7 2920.42 1753.8 2809.32 1797.6 2805.32 1785.4 2916.42 1741.7" style="fill:#6c6c67; stroke-width:0px;"></polygon><polygon points="2805.32 1785.4 2809.32 1797.6 2742.22 1642.4 2738.22 1630.2 2805.32 1785.4" style="fill:#6a6a64; stroke-width:0px;"></polygon><polygon points="2805.02 1787.2 2809.02 1799.4 2692.72 1847.2 2688.72 1835.1 2805.02 1787.2" style="fill:#6c6c67; stroke-width:0px;"></polygon><polygon points="2688.72 1835.1 2692.72 1847.2 2579.12 1895.1 2575.12 1883 2688.72 1835.1" style="fill:#6d6d67; stroke-width:0px;"></polygon><polygon points="2575.12 1883 2579.12 1895.1 2463.52 1942.9 2459.52 1930.7 2575.12 1883" style="fill:#6c6c67; stroke-width:0px;"></polygon><polygon points="2459.52 1930.7 2463.52 1942.9 2400.32 1784.9 2396.32 1772.7 2459.52 1930.7" style="fill:#6a6a64; stroke-width:0px;"></polygon><polygon points="2458.42 1932.7 2462.42 1944.9 2347.22 1991.3 2343.22 1979.1 2458.42 1932.7" style="fill:#6c6c67; stroke-width:0px;"></polygon><polygon points="2343.22 1979.1 2347.22 1991.3 2282.92 1834 2278.92 1821.8 2343.22 1979.1" style="fill:#6a6a64; stroke-width:0px;"></polygon><polygon points="1947.52 2072.9 1951.62 2085.1 1901.22 2084.2 1897.22 2072 1947.52 2072.9" style="fill:#6a6a64; stroke-width:0px;"></polygon><polygon points="2341.82 1981.3 2345.92 1993.4 2231.32 2040.5 2227.32 2028.4 2341.82 1981.3" style="fill:#6c6c67; stroke-width:0px;"></polygon><polygon points="2227.32 2028.4 2231.32 2040.5 2115.62 2088 2111.62 2075.8 2227.32 2028.4" style="fill:#6c6c67; stroke-width:0px;"></polygon><polygon points="2022.22 2112.1 2026.22 2124.3 1950.12 2123 1946.12 2110.8 2022.22 2112.1" style="fill:#6a6a64; stroke-width:0px;"></polygon><polygon points="2111.62 2075.8 2115.62 2088 2026.22 2124.3 2022.22 2112.1 2111.62 2075.8" style="fill:#6c6c67; stroke-width:0px;"></polygon><polygon points="2439.22 2497.9 2443.22 2510.1 2193.42 2611.5 2189.42 2599.4 2439.22 2497.9" style="fill:#6c6c67; stroke-width:0px;"></polygon><polygon points="2999.02 2068 3003.02 2080.1 2824.12 2151.9 2820.12 2139.7 2999.02 2068" style="fill:#6c6c67; stroke-width:0px;"></polygon><polygon points="2833.62 2171.9 2837.62 2184 2605.02 2280.6 2601.02 2268.4 2833.62 2171.9" style="fill:#6c6c67; stroke-width:0px;"></polygon><polygon points="2601.02 2268.4 2605.02 2280.6 2552.32 2144.2 2548.32 2132 2601.02 2268.4" style="fill:#6a6a64; stroke-width:0px;"></polygon><polygon points="2959.92 2181 2963.92 2193.2 2918.02 2209.7 2914.02 2197.5 2959.92 2181" style="fill:#6c6c66; stroke-width:0px;"></polygon><polygon points="2914.02 2197.5 2918.02 2209.7 2883.92 2127.1 2879.82 2115 2914.02 2197.5" style="fill:#6a6a64; stroke-width:0px;"></polygon><polygon points="3013.42 2310.5 3017.42 2322.6 2963.92 2193.2 2959.92 2181 3013.42 2310.5" style="fill:#6a6a64; stroke-width:0px;"></polygon><polygon points="3089.42 2279.8 3093.42 2291.9 3017.42 2322.6 3013.42 2310.5 3089.42 2279.8" style="fill:#6c6c67; stroke-width:0px;"></polygon><polygon points="3413.32 2249.6 3417.32 2261.8 3415.82 2261.2 3411.82 2249 3413.32 2249.6" style="fill:#6a6a64; stroke-width:0px;"></polygon><polygon points="3713.82 2321.5 3717.92 2333.6 3583.32 2334.8 3579.32 2322.6 3713.82 2321.5" style="fill:#6a6a64; stroke-width:0px;"></polygon><polygon points="3602.32 2380 3606.32 2392.1 3548.92 2497.7 3544.92 2485.6 3602.32 2380" style="fill:#7c7c76; stroke-width:0px;"></polygon><polygon points="3517.92 2496.6 3521.92 2508.7 3417.32 2261.8 3413.32 2249.6 3517.92 2496.6" style="fill:#6a6a64; stroke-width:0px;"></polygon><polygon points="3544.92 2485.6 3548.92 2497.7 3521.92 2508.7 3517.92 2496.6 3544.92 2485.6" style="fill:#6c6c67; stroke-width:0px;"></polygon><polygon points="3714.42 2320.5 3718.42 2332.6 3649.22 2168 3645.22 2155.8 3714.42 2320.5" style="fill:#6a6a64; stroke-width:0px;"></polygon><polygon points="3847.12 2320.3 3851.22 2332.5 3718.42 2332.6 3714.42 2320.5 3847.12 2320.3" style="fill:#6a6a64; stroke-width:0px;"></polygon><polygon points="3985.22 2322.7 3989.22 2334.9 3851.22 2332.5 3847.12 2320.3 3985.22 2322.7" style="fill:#6a6a64; stroke-width:0px;"></polygon><polygon points="3987.32 2322.2 3991.32 2334.4 3880.22 2073 3876.22 2060.8 3987.32 2322.2" style="fill:#6a6a64; stroke-width:0px;"></polygon><polygon points="4017.32 2322.7 4021.32 2334.9 3991.32 2334.4 3987.32 2322.2 4017.32 2322.7" style="fill:#6a6a64; stroke-width:0px;"></polygon><polygon points="4448.42 2464.4 4452.42 2476.6 4021.32 2334.9 4017.32 2322.7 4448.42 2464.4" style="fill:#6a6a64; stroke-width:0px;"></polygon><polygon points="4665.52 2511.2 4669.52 2523.4 4452.42 2476.6 4448.42 2464.4 4665.52 2511.2" style="fill:#6a6a64; stroke-width:0px;"></polygon><polygon points="4758.22 2515.8 4762.32 2528 4671.72 2532.8 4667.62 2520.6 4758.22 2515.8" style="fill:#6a6a64; stroke-width:0px;"></polygon><polygon points="4315.32 1962.2 4469.92 1969.4 4668.22 2362.9 4677.02 2360.6 4758.22 2515.8 4667.62 2520.6 4665.52 2511.2 4448.42 2464.4 4017.32 2322.7 3987.32 2322.2 3876.22 2060.8 4109.62 1961.6 4315.02 1969 4315.32 1962.2" style="fill:#bbbbb1; stroke-width:0px;"></polygon><polygon points="3118.12 1600.8 3122.12 1613 3108.42 1576.6 3104.42 1564.4 3118.12 1600.8" style="fill:#6a6a64; stroke-width:0px;"></polygon><polygon points="3127.92 1724.5 3131.92 1736.7 3086.52 1627.6 3082.52 1615.4 3127.92 1724.5" style="fill:#6a6a64; stroke-width:0px;"></polygon><polygon points="3288.52 1658.1 3292.52 1670.2 3131.92 1736.7 3127.92 1724.5 3288.52 1658.1" style="fill:#6c6c67; stroke-width:0px;"></polygon><polygon points="3165.32 1816.7 3169.32 1828.9 3133.12 1739.8 3129.02 1727.6 3165.32 1816.7" style="fill:#6a6a64; stroke-width:0px;"></polygon><polygon points="3214.82 1935.6 3218.82 1947.8 3169.32 1828.9 3165.32 1816.7 3214.82 1935.6" style="fill:#6a6a64; stroke-width:0px;"></polygon><polygon points="3406.02 1940.4 3410.12 1952.6 3218.82 1947.8 3214.82 1935.6 3406.02 1940.4" style="fill:#6a6a64; stroke-width:0px;"></polygon><polygon points="3571.72 1700.2 3575.72 1712.4 3349.32 1804.4 3345.32 1792.2 3571.72 1700.2" style="fill:#6c6c67; stroke-width:0px;"></polygon><polygon points="3345.32 1792.2 3349.32 1804.4 3322.62 1740.2 3318.62 1728.1 3345.32 1792.2" style="fill:#6a6a64; stroke-width:0px;"></polygon><polygon points="3457.32 1855.2 3461.32 1867.3 3387.72 1896.6 3383.72 1884.4 3457.32 1855.2" style="fill:#6c6c67; stroke-width:0px;"></polygon><polygon points="3383.72 1884.4 3387.72 1896.6 3350.32 1806.5 3346.32 1794.3 3383.72 1884.4" style="fill:#6a6a64; stroke-width:0px;"></polygon><polygon points="3420.62 1764.1 3457.32 1855.2 3383.72 1884.4 3346.32 1794.3 3420.62 1764.1" style="fill:#bbbbb1; stroke-width:0px;"></polygon><polygon points="3609.22 1792 3613.22 1804.1 3530.52 1838.1 3526.52 1826 3609.22 1792" style="fill:#6c6c67; stroke-width:0px;"></polygon><polygon points="3526.52 1826 3530.52 1838.1 3493.82 1747.3 3489.82 1735.1 3526.52 1826" style="fill:#6a6a64; stroke-width:0px;"></polygon><polygon points="3571.92 1701.8 3609.22 1792 3526.52 1826 3489.82 1735.1 3571.92 1701.8" style="fill:#bbbbb1; stroke-width:0px;"></polygon><polygon points="3578.12 1947 3582.12 1959.2 3531.82 1840 3527.82 1827.9 3578.12 1947" style="fill:#6a6a64; stroke-width:0px;"></polygon><polygon points="3670.52 1937 3674.62 1949.1 3582.12 1959.2 3578.12 1947 3670.52 1937" style="fill:#6a6a64; stroke-width:0px;"></polygon><polygon points="3407.52 1940.8 3411.52 1953 3388.72 1897.9 3384.72 1885.7 3407.52 1940.8" style="fill:#6a6a64; stroke-width:0px;"></polygon><polygon points="3495.52 1942.4 3499.52 1954.5 3411.52 1953 3407.52 1940.8 3495.52 1942.4" style="fill:#6a6a64; stroke-width:0px;"></polygon><polygon points="3421.52 2602.1 3425.52 2614.2 3315.02 2659.8 3311.02 2647.6 3421.52 2602.1" style="fill:#6c6c67; stroke-width:0px;"></polygon><polygon points="3426.12 2613 3430.12 2625.2 3425.52 2614.2 3421.52 2602.1 3426.12 2613" style="fill:#6a6a64; stroke-width:0px;"></polygon><polygon points="3545.32 2562.7 3549.32 2574.9 3430.12 2625.2 3426.12 2613 3545.32 2562.7" style="fill:#6d6d67; stroke-width:0px;"></polygon><polygon points="3316.72 2658.6 3320.72 2670.8 3261.72 2694.4 3257.72 2682.2 3316.72 2658.6" style="fill:#6c6c67; stroke-width:0px;"></polygon><polygon points="3257.72 2682.2 3261.72 2694.4 3258.02 2687.4 3254.02 2675.2 3257.72 2682.2" style="fill:#6a6a64; stroke-width:0px;"></polygon><polygon points="3254.02 2675.2 3258.02 2687.4 3143.62 2736.2 3139.52 2724 3254.02 2675.2" style="fill:#6d6d67; stroke-width:0px;"></polygon><polygon points="3139.52 2724 3143.62 2736.2 2989.42 2371.3 2985.42 2359.1 3139.52 2724" style="fill:#6a6a64; stroke-width:0px;"></polygon><polygon points="2105.82 2435.6 2109.82 2447.7 2051.72 2446.7 2047.62 2434.5 2105.82 2435.6" style="fill:#6a6a64; stroke-width:0px;"></polygon><polygon points="2185.72 2442.5 2189.72 2454.7 2170.12 2454.3 2166.12 2442.1 2185.72 2442.5" style="fill:#6a6a64; stroke-width:0px;"></polygon><polygon points="2190.12 2328.8 2194.12 2341 2189.72 2454.7 2185.72 2442.5 2190.12 2328.8" style="fill:#83837c; stroke-width:0px;"></polygon><polygon points="2164.12 2491.6 2168.22 2503.8 2107.72 2502.8 2103.62 2490.6 2164.12 2491.6" style="fill:#6a6a64; stroke-width:0px;"></polygon><polygon points="2166.12 2442.1 2170.12 2454.3 2168.22 2503.8 2164.12 2491.6 2166.12 2442.1" style="fill:#83837c; stroke-width:0px;"></polygon><polygon points="2190.12 2328.8 2185.72 2442.5 2166.12 2442.1 2164.12 2491.6 2103.62 2490.6 2105.82 2435.6 2047.62 2434.5 2049.62 2385.4 2190.12 2328.8" style="fill:#bbbbb1; stroke-width:0px;"></polygon><polygon points="1356.42 2501.8 1360.42 2514 1275.22 2512.5 1271.22 2500.3 1356.42 2501.8" style="fill:#00151b; stroke-width:0px;"></polygon><polygon points="1807.82 2104.3 1811.82 2116.5 1799.02 2443.7 1795.02 2431.5 1807.82 2104.3" style="fill:#001a21; stroke-width:0px;"></polygon><polygon points="2093.92 2608 2097.92 2620.2 1733.22 2613.8 1729.22 2601.6 2093.92 2608" style="fill:#00151b; stroke-width:0px;"></polygon><polygon points="2100.62 2436.9 2104.62 2449 2097.92 2620.2 2093.92 2608 2100.62 2436.9" style="fill:#001a21; stroke-width:0px;"></polygon><polygon points="1407.62 2904 1411.62 2916.2 1344.72 2915 1340.72 2902.8 1407.62 2904" style="fill:#00151b; stroke-width:0px;"></polygon><polygon points="1690.42 3591.4 1694.52 3603.6 1318.02 3597 1314.02 3584.8 1690.42 3591.4" style="fill:#00151b; stroke-width:0px;"></polygon><polygon points="1729.22 2601.6 1733.22 2613.8 1694.52 3603.6 1690.42 3591.4 1729.22 2601.6" style="fill:#001a21; stroke-width:0px;"></polygon></g><g id="landmarks-large-first"><polygon id="betfit-t3" points="4003.22 1077.2 4032.82 1149.3 4020.12 1154.2 4071.02 1272.4 4009.12 1296.4 4052.42 1400 4077.22 1389.9 4201.42 1676.8 3851.82 1821 3843.12 1799.8 3807.32 1813.7 3828.32 1866.8 3670.02 1932.6 3542.62 1624.5 3315.62 1715.4 3186.72 1411.5 4003.22 1077.2" style="fill:#00242f; stroke-width:0px;" class="mapplic-clickable"></polygon><polygon id="cinemark-t3" points="1807.82 2104.3 1795.02 2431.5 2100.62 2436.9 2093.92 2608 1729.22 2601.6 1690.42 3591.4 1314.02 3584.8 1327.52 3238.7 1394.42 3239.9 1407.62 2904 1340.72 2902.8 1356.42 2501.8 1271.22 2500.3 1278.52 2312.6 1369.02 2314.2 1374.62 2171.1 1587.12 2174.9 1590.12 2100.5 1807.82 2104.3" style="fill:#00242f; stroke-width:0px;" class="mapplic-clickable"></polygon></g><g id="landmarks-small-first"><polygon id="cooperativaelga-t3" points="2972.02 1536.3 3038.32 1694.5 2916.42 1741.7 2805.32 1785.4 2738.22 1630.2 2853.82 1582.9 2972.02 1536.3" style="fill:#bbbbb1; stroke-width:0px;" class="mapplic-clickable"></polygon><polygon id="bac-t3" points="2737.92 1632 2805.02 1787.2 2688.72 1835.1 2575.12 1883 2459.52 1930.7 2396.32 1772.7 2508.12 1726.2 2623.02 1678.1 2737.92 1632" style="fill:#bbbbb1; stroke-width:0px;" class="mapplic-clickable"></polygon><polygon id="ficensa-t3" points="2395.22 1774.7 2458.42 1932.7 2343.22 1979.1 2278.92 1821.8 2395.22 1774.7" style="fill:#bbbbb1; stroke-width:0px;" class="mapplic-clickable"></polygon><polygon id="bancoatlantida-t3" points="2277.62 1823.9 2341.82 1981.3 2227.32 2028.4 2111.62 2075.8 2022.22 2112.1 1946.12 2110.8 1947.52 2072.9 1897.22 2072 1901.62 1959.1 1993.32 1941.6 2047.42 1918.1 2163.02 1870.7 2277.62 1823.9" style="fill:#bbbbb1; stroke-width:0px;" class="mapplic-clickable"></polygon><polygon id="bancoficohsa-t3" points="2327.42 2238.9 2439.22 2497.9 2189.42 2599.4 2197.32 2293 2327.42 2238.9" style="fill:#bbbbb1; stroke-width:0px;" class="mapplic-clickable"></polygon><polygon id="bancodelpais-t3" points="2883.12 1994 2971.22 1997.4 2999.02 2068 2820.12 2139.7 2833.62 2171.9 2601.02 2268.4 2548.32 2132 2883.12 1994" style="fill:#bbbbb1; stroke-width:0px;" class="mapplic-clickable"></polygon><polygon id="promerica-t3" points="3001.92 2066 3089.42 2279.8 3013.42 2310.5 2959.92 2181 2914.02 2197.5 2879.82 2115 3001.92 2066" style="fill:#bbbbb1; stroke-width:0px;" class="mapplic-clickable"></polygon><polygon id="internacionaltravel-t3" points="3644.62 2156.8 3713.82 2321.5 3579.32 2322.6 3602.32 2380 3544.92 2485.6 3517.92 2496.6 3413.32 2249.6 3411.82 2249 3531.32 2203.3 3644.62 2156.8" style="fill:#bbbbb1; stroke-width:0px;"></polygon><polygon id="oficinascredimas-t3" points="3874.02 2061.4 3985.22 2322.7 3847.12 2320.3 3714.42 2320.5 3645.22 2155.8 3760.82 2108.9 3874.02 2061.4" style="fill:#bbbbb1; stroke-width:0px;" class="mapplic-clickable"></polygon><polygon id="lafise-t3" points="3227.92 1515.3 3288.52 1658.1 3127.92 1724.5 3082.52 1615.4 3118.12 1600.8 3104.42 1564.4 3227.92 1515.3" style="fill:#bbbbb1; stroke-width:0px;" class="mapplic-clickable"></polygon><polygon id="bancodeoccidente-t3" points="3289.62 1661.2 3326.82 1749 3406.02 1940.4 3214.82 1935.6 3165.32 1816.7 3129.02 1727.6 3289.62 1661.2" style="fill:#bbbbb1; stroke-width:0px;" class="mapplic-clickable"></polygon><polygon id="flexioficinas-t3" points="3545.62 1637.1 3571.72 1700.2 3345.32 1792.2 3318.62 1728.1 3545.62 1637.1" style="fill:#bbbbb1; stroke-width:0px;" class="mapplic-clickable"></polygon><polygon id="atmmovil-t3" points="3610.52 1793.9 3670.52 1937 3578.12 1947 3527.82 1827.9 3610.52 1793.9" style="fill:#bbbbb1; stroke-width:0px;" class="mapplic-clickable"></polygon><polygon id="nutrispot-t3" points="3458.32 1856.4 3495.52 1942.4 3407.52 1940.8 3384.72 1885.7 3458.32 1856.4" style="fill:#bbbbb1; stroke-width:0px;" class="mapplic-clickable"></polygon><polygon id="citygames-t3" points="3334.92 2219.9 3413.02 2250.4 3545.32 2562.7 3426.12 2613 3421.52 2602.1 3311.02 2647.6 3316.72 2658.6 3257.72 2682.2 3254.02 2675.2 3139.52 2724 2985.42 2359.1 3334.92 2219.9" style="fill:#bbbbb1; stroke-width:0px;" class="mapplic-clickable"></polygon></g><g id="nopointer-icons"><g id="frontalsubidaescalera1"><path d="M1835.12,2252.5l3.3-4,.1-.1.1-.1.1-.1h.1l.3.1c.1,0,.2.2.3.3s.1.3,0,.5l-.2.5-3.3,4h1.8c.2-.1.3.1.6.2.1.2.2.3.2.6,0,.1-.1.4-.2.5s-.2.2-.5.3l-3.7.1-.3-.1c-.2-.1-.1-.1-.2-.2-.1,0-.1-.2-.2-.3-.1-.2-.1-.3-.1-.3l-.3-4v-.2s0-.1.1-.2c0-.1.1-.1.2-.1s.2-.1.3,0l.3.1.3.1c.1,0,.1.2.2.2,0,.1.1.2.1.3l.6,1.9M1830.82,2239.8l3.5-4.2c.1-.1.3-.4.5-.4.2-.1.4-.1.6-.3.2-.1.4-.1.7-.2.2-.1.4,0,.6,0l3.9.1c.3,0,.7.1,1.1.3s.7.4,1,.8c.3.2.6.7.8,1.1.2.3.3.9.3,1.6s-.1,1.2-.2,1.5l-.6,1.2c-.2.4-.6.6-.9.9-.4.1-.6.3-1,.3s-.5-.1-.8-.1-.5-.1-.8-.1-.4,0-.6-.1c-.1,0-.2.1-.2.1-.1,0-.1-.1-.2.1,0,0-.1,0-.2.1l-.1.1-.1.1-9.8,11.7c-.1.2-.4.3-.6.6-.2.1-.4.3-.7.4-.2.1-.4.1-.7.2-.2.1-.4,0-.6,0-.1-.1-.5-.1-.9-.1s-.8,0-1.2.1c-.4,0-.8,0-1-.1h-.4c-.5-.1-1-.2-1.5-.4-.5-.3-.8-.5-1-.9-.3-.3-.6-.8-.8-1.2-.2-.3-.2-.9-.3-1.4s0-.8.1-1.3.3-.8.6-1.2c.2-.4.5-.7.9-.9.4-.1.9-.3,1.3-.4l2,.1h.3s.1,0,.2-.1l.1-.1s.1-.1.1-.2l3.1-3.6-.4-4.9c0-.2,0-.6.1-.8s.2-.4.3-.5.3-.4.5-.3c.2-.1.4-.1.6,0s.4,0,.6.1.3.1.5.3c.1.2.3.3.4.6.1.2.1.5.1.9l.8.5M1829.02,2236.3c-.1-.1-.4,0-.7-.2-.1-.1-.3-.2-.7-.3-.1-.2-.3-.3-.4-.6-.1-.2-.1-.5-.2-.7,0-.2,0-.5.1-.8.1-.2.2-.4.3-.5s.3-.4.5-.4.4-.1.6,0c.2-.1.4,0,.7.1.1.1.5.3.7.3.1.2.3.3.4.6.1.2.1.5.2.7,0,.2,0,.5-.1.8-.1.2-.2.4-.3.5s-.3.4-.5.4-.4,0-.6.1M1841.82,2227.9l-23-.2c-.5-.1-1,.1-1.3.1s-.8.3-1,.6c-.3.4-.4.7-.6,1.1s-.2.9-.1,1.5l1.3,26.1c0,.6.1,1.2.3,1.6s.4.7.7,1.1c.3.2.7.5,1.1.6s.8.3,1.4.2l23.3.1c.5.1,1-.1,1.3-.1.4-.1.7-.4,1-.6.1-.2.4-.7.5-1.2.2-.4.2-.9.1-1.5l-1.5-25.9c0-.6-.1-1.2-.3-1.6-.1-.5-.4-.7-.6-1.2-.3-.2-.7-.5-1.1-.6s-.9,0-1.5-.1" style="fill:#333; stroke-width:0px;"></path><path d="M1828.82,2232.3c-.1-.1-.4,0-.6,0-.2.1-.4.1-.5.4-.1.1-.2.4-.3.5s-.1.4-.1.8,0,.5.2.7.3.3.4.6c.1.2.3.2.7.3l.7.2c.2-.1.4,0,.6,0s.4-.1.5-.4c.1-.1.2-.4.3-.5.1-.2.1-.4.1-.8,0-.2,0-.5-.2-.7s-.3-.3-.4-.6c-.1-.2-.3-.2-.7-.3l-.7-.2" style="fill:#fff; stroke-width:0px;"></path><path d="M1822.22,2253.2c-.1-.1-.4,0-.6-.2-.1-.1-.3-.2-.5-.3-.1-.2-.3-.3-.4-.6-.1-.2-.1-.5-.2-.7,0-.2,0-.5.1-.8,0-.1.2-.4.3-.5s.2-.2.4-.3c.1-.1.3,0,.6,0h2.3c.1.1.3,0,.4,0s.2-.1.4-.1.2-.1.4-.1c.2-.1.1-.2.2-.2l10.1-11.8c.1-.1.1-.2.2-.2s.2-.1.4-.1c.1,0,.2-.1.4,0,.1,0,.3,0,.5.1l3.7-.1.6.2c.2.1.3.2.5.4.1.2.3.3.3.6,0,.1.2.3.1.5,0,.1,0,.2-.1.6l-.2.5c0,.1-.2.4-.5.4s-.4.1-.7.2l-2.1-.1c-.1-.1-.4,0-.5-.1s-.3,0-.4.1-.2.1-.4.1c-.1.1-.2.2-.3.4l-9.9,11.8c-.1.1-.1.2-.3.4-.1.1-.2.2-.4.1s-.2.1-.4.1h-.4l-3.6-.3M1840.92,2234.7l-3.9-.1c-.1-.1-.4,0-.6,0s-.4.1-.7.2c-.2.1-.4.1-.6.3s-.4.3-.5.4l-3.5,4.2v-1.2c0-.2-.1-.6-.1-.9-.1-.2-.3-.3-.4-.6-.1-.2-.3-.2-.5-.3s-.3-.1-.6-.1c-.1-.1-.4,0-.6,0s-.4.1-.5.3c-.1.1-.2.4-.3.5-.1.2-.1.6-.1.8l.4,4.9-3.1,3.6c0,.1-.1.1-.1.2l-.1.1c-.1,0-.1.1-.2.1s-.1-.1-.3,0l-2-.1c-.5-.1-.9.2-1.3.4-.4.1-.8.6-.9.9l-.6,1.2c-.2.4-.2.9-.1,1.3,0,.5.1.9.3,1.4.2.3.5.8.8,1.2.3.3.7.7,1,.9.5.3.9.3,1.5.4,0,0,.1.1.4,0,.3,0,.6.1,1,.1s.8.1,1.2-.1c.4,0,.6,0,.8.1s.4,0,.6,0c.2-.1.4-.1.7-.2.2-.1.4-.1.7-.4.2-.1.4-.3.6-.6l9.8-11.7.1-.1.1-.1s.1,0,.2-.1c0,0,.1,0,.2-.1s.1,0,.2-.1c.1,0,.3,0,.6.1.2-.1.5.1.8.1s.5.1.8.1.6,0,1-.3c.4-.1.5-.4.9-.9l.6-1.2c.2-.4.2-.9.2-1.5,0-.5-.2-1-.3-1.6-.1-.5-.5-.8-.8-1.1-.3-.2-.7-.5-1-.8-1.1.4-1.4.3-1.8.4" style="fill:#fff; stroke-width:0px;"></path><path d="M1838.92,2248.1h0c-.1,0-.1-.1-.2.1l-.1.1-.1.1-3.3,4-.2-2c0-.1,0-.2-.1-.3s-.1-.2-.2-.2l-.3-.1-.3-.1c-.1,0-.2.1-.2.1-.1,0-.1.1-.2.1,0,.1-.1.1-.1.2s-.1.2,0,.2l.3,4c0,.1,0,.2.1.3s.1.2.2.3.1.2.2.2l.3.1,3.7-.1c.2-.1.4-.1.5-.3.1-.1.2-.4.2-.5s0-.5-.2-.6c-.1-.2-.3-.2-.6-.2h-1.8l3.3-4c.1-.1.2-.4.3-.5s0-.2,0-.5c0-.1-.2-.2-.3-.3-.4,0-.7-.03-.9-.1" style="fill:#fff; stroke-width:0px;"></path><path d="M1840.82,2236.4l-3.7.1c-.1-.1-.3,0-.5-.1h-.4c-.1,0-.2.1-.4.1-.1.1-.1.2-.2.2l-10.1,11.8c0,.1-.1.2-.2.2-.1.1-.2.1-.4.1s-.2.1-.4.1c-.2.1-.3,0-.4,0h-2.3c-.1-.1-.4,0-.6,0s-.4.1-.4.3-.2.4-.3.5c-.1.2-.1.4-.1.8,0,.2.1.5.2.7s.3.3.4.6c.1.2.3.2.5.3l.6.2h3.5c.1.1.3,0,.4,0s.3,0,.4-.1.2-.1.4-.1c.1-.1.2-.2.3-.4l9.9-11.8c.1-.1.1-.2.3-.4.1-.1.2-.2.4-.1.1-.1.2-.1.4-.1.2-.1.3,0,.5.1l2.1.1c.3,0,.4-.1.7-.2.2-.1.3-.4.5-.4l.2-.5c0-.1.1-.4.1-.6,0-.1-.1-.3-.1-.5,0-.1-.2-.3-.3-.6-.1-.2-.3-.2-.5-.4.1.2-.1.2-.5.1" style="fill:#333; stroke-width:0px;"></path></g><g id="frontalsubidaescalera1-2"><path d="M3532.32,2084.5l5.4,2,.1.1.1.1.1.1v.5c0,.1-.1.3-.3.4s-.3.2-.5.1h-.6l-5.4-2,.6,1.8c.1.2,0,.4,0,.6-.1.2-.3.3-.5.4-.1.1-.5.1-.6,0s-.2-.2-.5-.4l-1.3-3.6v-.4c0-.13.03-.23.1-.3,0-.1.1-.2.3-.3.1-.2.3-.2.3-.2l4.2-1.5c.1-.1.3-.1.3-.1,0,0,.1,0,.2.1.1,0,.1.1.1.2s.1.2.1.3v.6c0,.1-.1.2-.1.3-.1.1-.1.2-.3.2l-1.8,1M3544.52,2076.5l5.6,2.2c.1.1.5.2.6.3.1.2.2.3.5.6.1.2.2.4.5.6.1.2.1.4.2.6l1.3,3.9c.1.3.1.8.1,1.2s-.1.8-.5,1.2c-.1.4-.5.8-.9,1.1-.3.3-.9.6-1.5.8s-1.3.3-1.6.3c-.5,0-1-.1-1.5-.2s-.9-.4-1.2-.7c-.2-.3-.5-.6-.6-.9s-.1-.5-.2-.8-.1-.5-.2-.8-.1-.4-.1-.6c0-.1-.1-.2-.1-.2,0-.1,0-.2-.1-.2,0-.07-.03-.13-.1-.2l-.1-.1-.1-.1-15.8-6.1c-.2-.1-.5-.3-.9-.4-.1-.2-.5-.3-.6-.6-.1-.2-.2-.4-.5-.6-.1-.2-.1-.4-.2-.6,0-.2-.1-.5-.2-.9s-.2-.8-.5-1.2c-.1-.4-.2-.8-.2-1-.1-.3-.1-.4-.1-.4-.1-.5-.1-1-.1-1.6.1-.5.3-.9.7-1.3.3-.4.7-.8,1.1-1.1.3-.3.9-.5,1.4-.7s.9-.3,1.4-.3,1,0,1.5.2c.5.1.9.3,1.2.7.2.3.6.8.9,1.2l.6,2c0,.1.1.3.1.3,0,.07.03.13.1.2l.1.1s.1.1.2.1l4.9,1.9,5.1-1.8c.3-.1.6-.1.9-.1s.5.1.6.1c.1.1.5.2.5.4.1.2.2.4.2.6s.1.4.1.6,0,.4-.1.6-.3.4-.5.6c-.1.2-.5.3-.9.4l-1,.7M3547.62,2073.6c0-.2-.1-.4,0-.8,0-.2.1-.4.1-.8.1-.2.3-.4.5-.6.1-.2.5-.3.6-.4.3-.1.5-.1.9-.1.2,0,.5,0,.6.1s.5.2.6.4.2.4.2.6c.1.2.1.4.1.8,0,.2-.1.5-.1.8-.1.2-.3.4-.5.6-.1.2-.5.3-.6.4-.3.1-.5.1-.9.1-.2,0-.5,0-.6-.1s-.5-.2-.6-.4-.2-.4-.3-.6M3560.82,2083.7l-7.5-22.7c-.1-.5-.5-.9-.6-1.2s-.6-.6-1-.8c-.5-.2-.9-.2-1.4-.2s-1,.1-1.7.3l-27.4,9.3c-.6.1-1.3.5-1.5.8s-.6.6-.9,1c-.1.4-.3.8-.3,1.2s0,.9.2,1.5l7.8,23c.1.5.5.9.6,1.2.2.3.6.6,1,.8.2.1.9.2,1.4.1.5,0,1-.1,1.7-.3l27.1-9.3c.6-.1,1.3-.5,1.5-.8.5-.3.6-.6,1-1,.1-.4.3-.8.3-1.2.1-.7-.2-1.2-.3-1.7" style="fill:#333; stroke-width:0px;"></path><path d="M3551.82,2072.3c0-.2-.1-.4-.2-.6-.1-.2-.2-.3-.6-.4-.1-.1-.5-.1-.6-.1s-.5.1-.9.1-.5.1-.6.4-.3.4-.5.6c-.1.2-.1.4-.1.8v.8c.1.2.1.4.2.6s.2.3.6.4c.1.1.5.1.6.1.2,0,.5-.1.9-.1.3-.1.5-.1.6-.4s.3-.4.5-.6c.1-.2.1-.4.1-.8v-.8" style="fill:#fff; stroke-width:0px;"></path><path d="M3527.32,2072c0-.2-.1-.4,0-.6,0-.2.1-.4.1-.6.1-.2.3-.4.5-.6.1-.2.5-.3.6-.4.3-.1.5-.1.9-.1.1,0,.5,0,.6.1s.2.2.5.3c.1.1.1.3.2.6l.8,2.3c0,.2.1.3.1.4s.1.2.2.3.1.2.2.3c.1.2.2.1.2.2l16,6.3c.1.1.2.1.2.2s.1.2.2.3c0,.1.1.2.1.4,0,.1.1.3.1.5l1.3,3.6v.6c0,.2-.1.4-.3.6-.1.2-.3.4-.5.5-.1.1-.3.3-.5.3-.1.1-.3.1-.6.1h-.6c-.1,0-.5-.1-.6-.3s-.2-.3-.5-.6l-.6-2.1c0-.2-.1-.4-.1-.5s-.1-.3-.2-.4-.1-.2-.2-.3c-.1-.1-.2-.2-.5-.2l-15.9-6.1c-.1-.1-.2-.1-.5-.2-.1-.1-.2-.2-.2-.3s-.1-.2-.2-.4c0-.1-.1-.3-.1-.4l-.7-3.8M3553.32,2084.9l-1.3-3.9c0-.2-.1-.4-.2-.6s-.2-.4-.5-.6c-.1-.2-.2-.3-.5-.6s-.5-.3-.6-.3l-5.6-2.2,1.3-.3c.3-.1.6-.3.9-.4.1-.2.3-.4.5-.6.1-.2.1-.4.1-.6s0-.4-.1-.6c0-.2-.1-.4-.2-.6s-.2-.3-.5-.4c-.1-.1-.5-.1-.6-.1-.2,0-.6.1-.9.1l-5.1,1.8-4.9-1.9c-.1,0-.1-.1-.2-.1l-.1-.1c0-.1-.1-.1-.1-.2s0-.2-.1-.3l-.6-2c-.1-.5-.5-.9-.9-1.2-.2-.3-.9-.6-1.2-.7-.5-.1-1-.2-1.5-.2s-1,.1-1.4.3c-.5.1-.9.4-1.4.7-.3.3-.7.8-1.1,1.1-.3.4-.5.9-.7,1.3-.1.5,0,1,.1,1.6,0,0,0,.2.1.4.1.3.1.6.2,1s.2.8.5,1.2c.1.4.2.6.2.8s.1.4.2.6c.1.2.2.4.5.6.1.2.2.4.6.6.1.2.5.3.9.4l15.8,6.1.1.1.1.1s0,.1.1.2c0,.07.03.13.1.2.1.1,0,.1.1.2,0,.1.1.3.1.6.1.2.1.5.2.8s.1.5.2.8.2.6.6.9c.2.3.6.4,1.2.7.5.1,1,.2,1.5.2s1-.1,1.6-.3c.5-.1,1-.5,1.5-.8s.7-.8.9-1.1c.1-.4.3-.8.5-1.2-.1-.9-.1-1.2-.4-1.5" style="fill:#fff; stroke-width:0px;"></path><path d="M3538.32,2086.9h0c0-.1,0-.2-.1-.2l-.1-.1-.1-.1-5.4-2,2.1-.8c.1-.1.3-.1.3-.2s.1-.2.1-.3v-.6c0-.1-.1-.2-.1-.2,0-.1-.1-.1-.1-.2-.1,0-.1-.1-.2-.1s-.2,0-.3.1l-4.2,1.5c-.1.1-.3.1-.3.2s-.1.2-.3.3-.1.2-.1.3v.4l1.3,3.6c.1.2.2.4.5.4.1.1.5,0,.6,0s.5-.1.5-.4c.1-.2.1-.4,0-.6l-.6-1.8,5.4,2c.1.1.5.1.6.1s.3-.1.5-.1c.1-.1.1-.3.3-.4-.3-.4-.3-.5-.3-.8" style="fill:#fff; stroke-width:0px;"></path><path d="M3551.42,2085.3l-1.3-3.6c0-.2-.1-.3-.1-.5,0-.1-.1-.3-.1-.4s-.1-.2-.2-.3c-.1-.1-.2-.1-.2-.2l-16-6.3c-.1,0-.2-.1-.2-.2-.1-.1-.1-.2-.2-.3s-.1-.2-.2-.3c-.1-.2-.1-.3-.1-.4l-.8-2.3c0-.2-.1-.4-.2-.6s-.2-.3-.5-.3-.5-.1-.6-.1c-.2,0-.5.1-.9.1-.3.1-.5.3-.6.4-.1.2-.3.4-.5.6-.1.2-.1.4-.1.6v.6l1.2,3.4c0,.2.1.3.1.4s.1.3.2.4.1.2.2.3c.1.1.2.2.5.2l15.9,6.1c.1.1.2.1.5.2.1.1.2.2.2.3.1.1.1.2.2.4.1.2.1.3.1.5l.6,2.1c.1.3.2.4.5.6.1.2.5.2.6.3h.6c.1,0,.5-.1.6-.1.1-.1.3-.2.5-.3l.5-.5c.1-.2.1-.4.3-.6-.4.4-.4.2-.5-.2" style="fill:#333; stroke-width:0px;"></path></g></g></g><g id="TEXTO"><path d="M2815.81,1694.05c-.75.91-2.45,2.27-4.92,3.36-5.72,2.52-11.63.77-14.56-5.88-2.8-6.35-.39-12.55,5.9-15.33,2.53-1.11,4.36-1.28,5.21-1.22l.31,2.42c-1.21-.04-2.78.22-4.46.96-4.76,2.1-6.58,6.53-4.23,11.86,2.19,4.97,6.46,6.9,11.39,4.72,1.6-.7,3.07-1.75,3.9-2.73l1.46,1.84Z" style="stroke-width:0px;"></path><path d="M2831.53,1675.54c3.08,6.98.47,12.56-4.71,14.84-5.36,2.36-10.95-.13-13.66-6.28-2.84-6.44-.69-12.42,4.72-14.81,5.54-2.44,10.99.23,13.65,6.25ZM2815.93,1682.81c1.91,4.33,5.97,7.18,10.09,5.37,4.15-1.83,4.82-6.69,2.79-11.3-1.78-4.03-5.74-7.32-10.11-5.4-4.34,1.91-4.74,6.87-2.77,11.32Z" style="stroke-width:0px;"></path><path d="M2852.27,1666.4c3.08,6.98.47,12.56-4.71,14.84-5.36,2.36-10.95-.13-13.66-6.28-2.84-6.44-.69-12.42,4.73-14.81,5.54-2.44,10.99.23,13.65,6.25ZM2836.67,1673.67c1.91,4.33,5.97,7.18,10.09,5.37,4.15-1.83,4.82-6.69,2.79-11.3-1.78-4.03-5.74-7.32-10.11-5.4-4.33,1.91-4.74,6.87-2.77,11.32Z" style="stroke-width:0px;"></path><path d="M2851.4,1655.21c1.17-.77,2.75-1.68,4.85-2.61,2.59-1.14,4.75-1.38,6.43-.82,1.54.47,2.85,1.65,3.65,3.46.81,1.84.9,3.52.34,5.03-.73,2.08-2.66,3.83-5.22,4.96-.78.34-1.52.63-2.19.75l3.58,8.13-2.62,1.15-8.84-20.05ZM2858.34,1663.84c.64-.1,1.39-.36,2.26-.75,3.16-1.39,4.41-3.78,3.18-6.58-1.18-2.68-3.65-3.14-6.54-1.86-1.14.5-1.98.98-2.37,1.3l3.48,7.89Z" style="stroke-width:0px;"></path><path d="M2882.57,1654.05l-7.89,3.48,3.22,7.31,8.79-3.87.97,2.2-11.41,5.03-8.94-20.29,10.96-4.83.97,2.2-8.34,3.68,2.83,6.41,7.89-3.48.96,2.17Z" style="stroke-width:0px;"></path><path d="M2882.25,1641.65c1.21-.85,3.04-1.84,4.84-2.64,2.8-1.23,4.83-1.52,6.6-.93,1.42.45,2.61,1.58,3.29,3.15,1.18,2.68.28,5.2-1.54,6.86l.04.09c1.8-.15,3.38.89,4.79,2.78,1.91,2.54,3.25,4.28,4.02,4.88l-2.71,1.19c-.6-.46-1.8-1.97-3.49-4.25-1.84-2.53-3.38-3.11-5.8-2.15l-2.47,1.09,3.88,8.79-2.62,1.15-8.82-20.02ZM2888.94,1649.74l2.68-1.18c2.8-1.23,3.9-3.55,2.88-5.87-1.15-2.62-3.55-2.93-6.34-1.74-1.27.56-2.11,1.08-2.48,1.38l3.26,7.41Z" style="stroke-width:0px;"></path><path d="M2907.89,1646.64l.71,7.31-2.71,1.19-2.05-23.33,3.16-1.39,15.87,17.24-2.8,1.23-4.98-5.43-7.2,3.17ZM2913.64,1641.66l-4.56-4.96c-1.04-1.12-1.87-2.2-2.69-3.24l-.06.03c.23,1.34.44,2.72.6,4.12l.6,6.75,6.11-2.69Z" style="stroke-width:0px;"></path><path d="M2919.42,1627.6l-6.17,2.72-.98-2.23,15.02-6.62.98,2.23-6.2,2.73,7.96,18.06-2.65,1.17-7.96-18.06Z" style="stroke-width:0px;"></path><path d="M2932.17,1619.33l8.94,20.29-2.62,1.15-8.94-20.29,2.62-1.15Z" style="stroke-width:0px;"></path><path d="M2950.14,1635.63l-15.57-17.37,2.83-1.25,7.57,8.6c2.08,2.35,3.92,4.49,5.51,6.63l.06-.03c-.46-2.6-.75-5.53-1.01-8.58l-.99-11.54,2.8-1.23,1.69,23.49-2.89,1.27Z" style="stroke-width:0px;"></path><path d="M2961.24,1623.12l.71,7.31-2.71,1.19-2.05-23.33,3.16-1.39,15.87,17.24-2.8,1.23-4.98-5.43-7.2,3.17ZM2966.99,1618.14l-4.56-4.96c-1.04-1.12-1.87-2.2-2.69-3.24l-.06.03c.23,1.34.44,2.72.6,4.12l.6,6.75,6.11-2.69Z" style="stroke-width:0px;"></path><path d="M2875.51,1688.33l-7.89,3.48,3.22,7.31,8.79-3.87.97,2.2-11.41,5.03-8.94-20.29,10.96-4.83.97,2.2-8.34,3.68,2.83,6.41,7.89-3.48.96,2.17Z" style="stroke-width:0px;"></path><path d="M2875.07,1675.65l2.62-1.15,7.97,18.09,8.67-3.82.97,2.2-11.29,4.98-8.94-20.29Z" style="stroke-width:0px;"></path><path d="M2912.09,1682.49c-.99.94-3,2.65-5.74,3.86-3.07,1.35-5.95,1.69-8.77.67-2.49-.92-4.77-3.15-6.16-6.31-2.64-6.06-.43-12.32,6.37-15.32,2.35-1.03,4.41-1.33,5.47-1.3l.31,2.42c-1.3,0-2.82.2-4.87,1.1-4.94,2.18-6.8,6.67-4.56,11.75,2.27,5.15,6.71,6.82,11.44,4.74,1.72-.76,2.79-1.51,3.25-2.08l-2.67-6.05-4.12,1.82-.93-2.11,6.68-2.95,4.3,9.75Z" style="stroke-width:0px;"></path><path d="M2916.96,1673.8l.71,7.31-2.71,1.19-2.05-23.33,3.16-1.39,15.87,17.24-2.8,1.23-4.98-5.43-7.2,3.17ZM2922.71,1668.82l-4.56-4.96c-1.04-1.13-1.87-2.2-2.69-3.24l-.06.03c.23,1.34.44,2.72.6,4.12l.6,6.75,6.11-2.69Z" style="stroke-width:0px;"></path><path d="M2593.3,2171.67c1.7-1.22,4.51-2.81,7.51-4.13,4.28-1.88,7.35-2.36,10.15-1.6,2.28.52,4.18,2.03,5.33,4.64,1.41,3.2.53,6.93-2.4,9.74l.04.1c3.49-.6,8.33.38,10.49,5.3,1.26,2.85,1.08,5.51.12,7.87-1.38,3.13-4.68,5.76-10.09,8.14-2.95,1.3-5.3,2.1-6.81,2.53l-14.36-32.58ZM2603.55,2183.34l3.88-1.71c4.52-1.99,6.13-5.52,4.73-8.72-1.71-3.88-5.33-4.11-9.66-2.2-1.97.87-3.03,1.51-3.65,1.96l4.7,10.67ZM2610.55,2199.22c.9-.22,2.15-.71,3.67-1.38,4.42-1.95,7.79-5.37,5.67-10.19-1.99-4.52-6.7-4.68-11.37-2.62l-3.54,1.56,5.57,12.63Z" style="stroke-width:0px;"></path><path d="M2635.11,2179.83l1.15,11.94-4.42,1.95-3.35-38.09,5.16-2.27,25.9,28.14-4.57,2.01-8.13-8.86-11.75,5.18ZM2644.5,2171.7l-7.45-8.11c-1.69-1.84-3.05-3.59-4.38-5.29l-.1.04c.38,2.18.72,4.44.97,6.73l.98,11.01,9.98-4.4Z" style="stroke-width:0px;"></path><path d="M2664.42,2179.35l-14.6-33.13,4.67-2.06,18,12.08c4.17,2.8,7.62,5.44,10.69,8.14l.08-.09c-2.34-4.25-4.22-8.24-6.49-13.4l-6.11-13.86,4.03-1.78,14.6,33.13-4.33,1.91-17.93-12.17c-3.93-2.67-7.81-5.48-11.07-8.33l-.13.11c2.09,4.07,3.94,8.01,6.37,13.51l6.24,14.16-4.03,1.78Z" style="stroke-width:0px;"></path><path d="M2719.43,2153.81c-1.23,1.48-4,3.7-8.03,5.48-9.34,4.12-18.99,1.27-23.78-9.6-4.57-10.37-.64-20.5,9.63-25.02,4.13-1.82,7.12-2.08,8.51-1.99l.51,3.94c-1.97-.07-4.54.36-7.29,1.57-7.77,3.42-10.74,10.66-6.9,19.36,3.57,8.11,10.54,11.26,18.6,7.71,2.61-1.15,5.02-2.86,6.37-4.45l2.38,3Z" style="stroke-width:0px;"></path><path d="M2745.09,2123.61c5.03,11.4.76,20.5-7.69,24.23-8.75,3.86-17.88-.22-22.3-10.25-4.63-10.52-1.13-20.28,7.72-24.18,9.04-3.99,17.95.37,22.28,10.2ZM2719.62,2135.48c3.12,7.08,9.75,11.73,16.48,8.76,6.78-2.99,7.87-10.92,4.55-18.44-2.9-6.59-9.38-11.95-16.5-8.81-7.08,3.12-7.73,11.22-4.53,18.49Z" style="stroke-width:0px;"></path><path d="M2754.11,2100.79c2.43-1.54,5.4-3.2,8.79-4.7,6.14-2.71,11.15-3.21,15.24-1.78,4.14,1.4,7.55,4.48,9.91,9.84,2.38,5.41,2.66,10.57.91,14.98-1.73,4.46-6.11,8.39-12.54,11.22-3.05,1.34-5.67,2.32-7.94,3.03l-14.36-32.58ZM2771.29,2128.2c1.17-.28,2.76-.92,4.43-1.66,9.14-4.03,11.85-11.33,7.91-20.27-3.4-7.84-10.01-10.85-19.05-6.86-2.21.97-3.8,1.91-4.82,2.65l11.52,26.15Z" style="stroke-width:0px;"></path><path d="M2811.55,2095.96l-12.88,5.68,5.26,11.94,14.35-6.33,1.58,3.59-18.63,8.21-14.6-33.13,17.89-7.88,1.58,3.59-13.61,6,4.61,10.47,12.88-5.68,1.56,3.54Z" style="stroke-width:0px;"></path><path d="M2810.82,2075.27l4.28-1.88,13.02,29.54,14.16-6.24,1.58,3.59-18.43,8.12-14.6-33.13Z" style="stroke-width:0px;"></path><path d="M2844.61,2060.84c1.91-1.25,4.49-2.74,7.93-4.26,4.23-1.86,7.76-2.24,10.5-1.34,2.51.77,4.65,2.7,5.96,5.65,1.32,3,1.48,5.75.56,8.2-1.2,3.4-4.34,6.26-8.52,8.1-1.28.56-2.48,1.03-3.57,1.22l5.85,13.27-4.28,1.88-14.43-32.73ZM2855.93,2074.93c1.04-.17,2.26-.59,3.69-1.22,5.16-2.27,7.2-6.17,5.19-10.74-1.93-4.37-5.96-5.12-10.67-3.04-1.87.82-3.23,1.6-3.88,2.12l5.68,12.88Z" style="stroke-width:0px;"></path><path d="M2881.82,2071.09l1.15,11.94-4.42,1.95-3.34-38.09,5.16-2.27,25.9,28.14-4.57,2.01-8.13-8.86-11.75,5.18ZM2891.21,2062.96l-7.45-8.11c-1.69-1.84-3.05-3.59-4.38-5.29l-.1.04c.38,2.18.72,4.44.97,6.73l.98,11.01,9.98-4.4Z" style="stroke-width:0px;"></path><path d="M2902.56,2025.85l-3.71,8.5-3.54,1.56,2.04-7.77,5.21-2.3ZM2900.81,2035.6l14.6,33.13-4.28,1.88-14.6-33.13,4.28-1.88Z" style="stroke-width:0px;"></path><path d="M2919.99,2060.49c2.44.33,5.67.08,8.62-1.22,4.37-1.93,5.91-5.37,4.44-8.71-1.36-3.1-3.91-4.09-9.14-3.83-6.25.47-10.83-.86-12.89-5.53-2.27-5.16.31-10.88,6.75-13.72,3.39-1.5,6.2-1.79,8.04-1.61l.36,4.01c-1.34-.11-3.99-.12-6.99,1.2-4.52,1.99-5.05,5.45-4.05,7.72,1.37,3.1,4.05,3.73,9.4,3.49,6.56-.31,10.6,1.14,12.74,6.01,2.25,5.11.44,11.25-7.38,14.7-3.2,1.41-7.12,1.96-9.41,1.56l-.5-4.06Z" style="stroke-width:0px;"></path><path d="M2550.89,1789.2c1.69-1.22,4.51-2.81,7.51-4.13,4.28-1.88,7.35-2.36,10.15-1.6,2.28.52,4.18,2.03,5.33,4.64,1.41,3.2.53,6.93-2.4,9.74l.04.1c3.49-.6,8.33.38,10.49,5.3,1.26,2.85,1.08,5.51.12,7.87-1.38,3.13-4.68,5.76-10.09,8.14-2.95,1.3-5.3,2.1-6.81,2.53l-14.36-32.58ZM2561.15,1800.88l3.88-1.71c4.52-1.99,6.14-5.52,4.73-8.72-1.71-3.88-5.33-4.11-9.66-2.2-1.97.87-3.03,1.51-3.65,1.96l4.7,10.67ZM2568.14,1816.75c.9-.22,2.15-.71,3.67-1.38,4.42-1.95,7.79-5.37,5.67-10.19-1.99-4.52-6.7-4.68-11.37-2.62l-3.54,1.56,5.57,12.63Z" style="stroke-width:0px;"></path><path d="M2592.7,1797.36l1.15,11.94-4.42,1.95-3.35-38.09,5.16-2.27,25.9,28.14-4.57,2.01-8.13-8.86-11.75,5.18ZM2602.09,1789.23l-7.45-8.11c-1.69-1.84-3.05-3.59-4.38-5.29l-.1.04c.38,2.18.72,4.44.97,6.73l.98,11.01,9.98-4.4Z" style="stroke-width:0px;"></path><path d="M2643.95,1785.93c-1.23,1.48-4,3.7-8.03,5.48-9.34,4.12-18.99,1.27-23.78-9.6-4.57-10.37-.64-20.5,9.63-25.02,4.13-1.82,7.12-2.08,8.51-1.99l.51,3.94c-1.97-.07-4.54.36-7.29,1.57-7.77,3.42-10.74,10.66-6.9,19.36,3.57,8.11,10.54,11.26,18.6,7.71,2.61-1.15,5.02-2.86,6.37-4.45l2.38,3Z" style="stroke-width:0px;"></path><path d="M2352.74,1817.2l5.35,12.14-2.44,1.08-4.07-9.23-7.49,3.3,3.76,8.53-2.41,1.06-3.76-8.53-10.2,4.5-1.28-2.91,22.54-9.93Z" style="stroke-width:0px;"></path><path d="M2361.2,1836.4l-22.54,9.93-1.28-2.91,22.54-9.93,1.28,2.91Z" style="stroke-width:0px;"></path><path d="M2348.58,1866.85c-1.01-.83-2.52-2.72-3.73-5.47-2.8-6.35-.86-12.92,6.53-16.18,7.06-3.11,13.95-.43,17.03,6.55,1.24,2.81,1.42,4.85,1.35,5.79l-2.68.34c.05-1.34-.24-3.09-1.07-4.96-2.33-5.28-7.25-7.31-13.17-4.7-5.52,2.43-7.66,7.17-5.25,12.66.78,1.77,1.95,3.42,3.03,4.33l-2.04,1.62Z" style="stroke-width:0px;"></path><path d="M2365.16,1877.83l-3.86-8.76-8.13,3.58,4.3,9.76-2.44,1.08-5.59-12.67,22.54-9.93,5.37,12.17-2.44,1.08-4.08-9.26-7.12,3.14,3.86,8.76-2.41,1.06Z" style="stroke-width:0px;"></path><path d="M2356.7,1887.28l22.54-9.93,1.4,3.18-8.22,12.25c-1.9,2.84-3.7,5.19-5.54,7.27l.06.05c2.89-1.59,5.6-2.87,9.12-4.42l9.43-4.16,1.21,2.74-22.54,9.93-1.3-2.94,8.28-12.2c1.82-2.68,3.73-5.32,5.67-7.53l-.08-.08c-2.77,1.42-5.45,2.68-9.19,4.33l-9.63,4.24-1.21-2.74Z" style="stroke-width:0px;"></path><path d="M2369.77,1907.32c-.23,1.66-.06,3.86.83,5.87,1.31,2.98,3.65,4.02,5.92,3.02,2.11-.93,2.78-2.66,2.61-6.22-.32-4.25.59-7.37,3.76-8.77,3.51-1.55,7.4.21,9.33,4.59,1.02,2.31,1.22,4.22,1.09,5.47l-2.73.24c.08-.91.08-2.71-.82-4.75-1.36-3.08-3.71-3.44-5.25-2.76-2.11.93-2.54,2.76-2.37,6.4.21,4.46-.78,7.21-4.09,8.67-3.48,1.53-7.66.3-10-5.02-.96-2.17-1.34-4.84-1.06-6.4l2.77-.34Z" style="stroke-width:0px;"></path><path d="M2382.37,1926.3l-8.12.78-1.33-3.01,25.91-2.28,1.55,3.51-19.15,17.63-1.37-3.11,6.03-5.53-3.52-7.99ZM2387.9,1932.68l5.51-5.07c1.25-1.15,2.44-2.07,3.6-2.98l-.03-.07c-1.48.25-3.02.49-4.58.66l-7.49.67,2.99,6.79Z" style="stroke-width:0px;"></path><path d="M1982.13,2029.5c1.22-.88,3.26-2.03,5.43-2.99,3.09-1.36,5.32-1.71,7.34-1.16,1.65.38,3.02,1.47,3.85,3.35,1.02,2.31.38,5.01-1.73,7.04l.03.07c2.52-.43,6.02.27,7.59,3.83.91,2.06.78,3.98.09,5.69-1,2.26-3.38,4.17-7.29,5.89-2.13.94-3.83,1.52-4.92,1.83l-10.38-23.56ZM1989.54,2037.94l2.81-1.24c3.27-1.44,4.44-3.99,3.42-6.3-1.24-2.81-3.85-2.97-6.98-1.59-1.42.63-2.19,1.09-2.64,1.42l3.4,7.71ZM1994.6,2049.42c.65-.16,1.55-.52,2.66-1,3.2-1.41,5.63-3.88,4.1-7.36-1.44-3.27-4.84-3.38-8.22-1.89l-2.56,1.13,4.03,9.13Z" style="stroke-width:0px;"></path><path d="M2012.36,2035.4l.83,8.63-3.2,1.41-2.42-27.54,3.73-1.64,18.73,20.35-3.3,1.46-5.88-6.41-8.49,3.74ZM2019.15,2029.52l-5.38-5.86c-1.22-1.33-2.2-2.59-3.17-3.82l-.07.03c.27,1.58.52,3.21.7,4.87l.71,7.96,7.21-3.18Z" style="stroke-width:0px;"></path><path d="M2033.56,2035.05l-10.56-23.95,3.38-1.49,13.02,8.74c3.01,2.02,5.51,3.94,7.73,5.89l.06-.07c-1.69-3.07-3.05-5.96-4.69-9.69l-4.42-10.02,2.91-1.28,10.56,23.95-3.13,1.38-12.96-8.8c-2.84-1.93-5.65-3.96-8-6.02l-.09.08c1.51,2.94,2.85,5.79,4.6,9.77l4.51,10.23-2.91,1.29Z" style="stroke-width:0px;"></path><path d="M2073.34,2016.58c-.89,1.07-2.9,2.68-5.81,3.96-6.75,2.98-13.73.92-17.19-6.94-3.3-7.5-.46-14.82,6.96-18.09,2.98-1.32,5.15-1.51,6.16-1.44l.36,2.85c-1.42-.05-3.28.26-5.27,1.13-5.62,2.47-7.76,7.71-4.99,14,2.58,5.86,7.62,8.14,13.45,5.57,1.88-.83,3.63-2.07,4.61-3.22l1.72,2.17Z" style="stroke-width:0px;"></path><path d="M2091.89,1994.74c3.63,8.24.55,14.82-5.56,17.52-6.33,2.79-12.93-.16-16.12-7.41-3.35-7.61-.82-14.66,5.58-17.48,6.54-2.88,12.98.27,16.11,7.37ZM2073.48,2003.32c2.25,5.12,7.05,8.48,11.92,6.33,4.9-2.16,5.69-7.9,3.29-13.33-2.1-4.76-6.78-8.64-11.93-6.37-5.12,2.26-5.59,8.11-3.27,13.37Z" style="stroke-width:0px;"></path><path d="M2109.38,1992.63l.83,8.63-3.2,1.41-2.42-27.54,3.73-1.64,18.73,20.35-3.3,1.46-5.88-6.41-8.49,3.74ZM2116.17,1986.75l-5.38-5.86c-1.22-1.33-2.2-2.59-3.17-3.82l-.07.03c.27,1.58.52,3.21.7,4.87l.71,7.96,7.21-3.18Z" style="stroke-width:0px;"></path><path d="M2123,1970.17l-7.29,3.21-1.16-2.63,17.73-7.82,1.16,2.63-7.32,3.23,9.4,21.32-3.13,1.38-9.4-21.32Z" style="stroke-width:0px;"></path><path d="M2134.95,1961.76l3.09-1.36,9.41,21.36,10.23-4.51,1.14,2.59-13.33,5.87-10.56-23.95Z" style="stroke-width:0px;"></path><path d="M2162.84,1969.07l.83,8.63-3.2,1.41-2.42-27.54,3.73-1.64,18.73,20.35-3.3,1.46-5.88-6.41-8.49,3.74ZM2169.63,1963.2l-5.38-5.86c-1.22-1.33-2.2-2.59-3.17-3.82l-.07.03c.27,1.58.52,3.21.7,4.87l.71,7.96,7.21-3.18Z" style="stroke-width:0px;"></path><path d="M2184.03,1968.73l-10.56-23.95,3.38-1.49,13.02,8.73c3.01,2.02,5.51,3.94,7.73,5.89l.06-.07c-1.69-3.07-3.05-5.96-4.69-9.69l-4.42-10.02,2.91-1.28,10.56,23.95-3.13,1.38-12.96-8.8c-2.84-1.93-5.65-3.96-8-6.02l-.09.08c1.51,2.94,2.85,5.79,4.6,9.77l4.51,10.23-2.92,1.28Z" style="stroke-width:0px;"></path><path d="M2202.57,1935.09l-7.28,3.21-1.16-2.63,17.73-7.82,1.16,2.63-7.32,3.23,9.4,21.32-3.13,1.38-9.4-21.32Z" style="stroke-width:0px;"></path><path d="M2217.62,1925.32l10.56,23.95-3.09,1.36-10.56-23.95,3.09-1.36Z" style="stroke-width:0px;"></path><path d="M2223.16,1923.26c1.76-1.11,3.9-2.31,6.35-3.39,4.44-1.96,8.06-2.32,11.02-1.29,2.99,1.01,5.46,3.24,7.17,7.11,1.72,3.91,1.92,7.64.66,10.83-1.25,3.22-4.42,6.06-9.07,8.11-2.2.97-4.1,1.68-5.74,2.19l-10.38-23.56ZM2235.59,1943.08c.84-.2,2-.67,3.21-1.2,6.61-2.91,8.57-8.19,5.72-14.66-2.46-5.67-7.24-7.84-13.77-4.96-1.6.71-2.75,1.38-3.48,1.92l8.33,18.9Z" style="stroke-width:0px;"></path><path d="M2257.3,1927.44l.83,8.63-3.2,1.41-2.42-27.54,3.73-1.64,18.73,20.35-3.3,1.46-5.88-6.41-8.49,3.74ZM2264.09,1921.56l-5.38-5.86c-1.22-1.33-2.2-2.59-3.17-3.82l-.07.03c.27,1.58.52,3.21.7,4.87l.71,7.96,7.21-3.18Z" style="stroke-width:0px;"></path><path d="M2220.76,2437.85c1.23-.88,3.26-2.03,5.43-2.99,3.09-1.36,5.32-1.71,7.34-1.16,1.65.38,3.02,1.47,3.85,3.35,1.02,2.31.38,5.01-1.73,7.04l.03.07c2.52-.43,6.02.27,7.59,3.83.91,2.06.78,3.98.09,5.69-1,2.26-3.38,4.16-7.29,5.89-2.13.94-3.83,1.52-4.92,1.83l-10.38-23.56ZM2228.18,2446.29l2.81-1.24c3.27-1.44,4.44-3.99,3.42-6.3-1.24-2.81-3.85-2.97-6.98-1.59-1.42.63-2.19,1.09-2.64,1.42l3.4,7.71ZM2233.24,2457.77c.65-.16,1.56-.52,2.66-1,3.2-1.41,5.63-3.88,4.09-7.37-1.44-3.27-4.84-3.38-8.22-1.89l-2.56,1.13,4.03,9.13Z" style="stroke-width:0px;"></path><path d="M2250.99,2443.75l.83,8.63-3.2,1.41-2.42-27.54,3.73-1.64,18.73,20.35-3.3,1.46-5.88-6.41-8.49,3.74ZM2257.78,2437.87l-5.38-5.86c-1.22-1.33-2.2-2.59-3.17-3.82l-.07.03c.27,1.58.52,3.21.7,4.87l.71,7.96,7.21-3.18Z" style="stroke-width:0px;"></path><path d="M2272.19,2443.4l-10.56-23.95,3.38-1.49,13.02,8.74c3.02,2.02,5.51,3.94,7.73,5.89l.05-.07c-1.69-3.07-3.05-5.96-4.69-9.69l-4.42-10.02,2.91-1.29,10.56,23.95-3.13,1.38-12.96-8.8c-2.84-1.93-5.65-3.96-8-6.02l-.09.08c1.51,2.94,2.85,5.79,4.6,9.77l4.51,10.23-2.91,1.29Z" style="stroke-width:0px;"></path><path d="M2311.97,2424.93c-.89,1.07-2.9,2.68-5.81,3.96-6.75,2.98-13.73.92-17.19-6.94-3.3-7.5-.46-14.82,6.96-18.09,2.99-1.32,5.15-1.5,6.16-1.44l.36,2.85c-1.42-.05-3.28.26-5.27,1.13-5.61,2.47-7.76,7.71-4.99,14,2.58,5.86,7.62,8.14,13.45,5.57,1.88-.83,3.63-2.07,4.61-3.22l1.72,2.17Z" style="stroke-width:0px;"></path><path d="M2330.52,2403.09c3.63,8.24.55,14.82-5.56,17.52-6.33,2.79-12.93-.16-16.12-7.41-3.35-7.6-.82-14.66,5.58-17.48,6.54-2.88,12.98.27,16.11,7.37ZM2312.11,2411.67c2.25,5.12,7.05,8.48,11.92,6.33,4.9-2.16,5.69-7.9,3.29-13.33-2.1-4.76-6.78-8.64-11.93-6.37-5.12,2.26-5.59,8.11-3.27,13.37Z" style="stroke-width:0px;"></path><path d="M2226.04,2471.92l12.9-5.69,1.14,2.59-9.81,4.32,3.51,7.96,9.06-3.99,1.13,2.56-9.06,3.99,4.78,10.84-3.09,1.36-10.56-23.95Z" style="stroke-width:0px;"></path><path d="M2246.44,2462.93l10.56,23.95-3.09,1.36-10.56-23.95,3.09-1.36Z" style="stroke-width:0px;"></path><path d="M2278.79,2476.34c-.89,1.07-2.89,2.68-5.81,3.96-6.75,2.98-13.73.92-17.19-6.94-3.3-7.5-.46-14.82,6.96-18.09,2.99-1.32,5.15-1.51,6.16-1.44l.37,2.85c-1.42-.05-3.28.26-5.27,1.13-5.61,2.47-7.76,7.71-4.99,14,2.58,5.86,7.62,8.14,13.45,5.57,1.88-.83,3.63-2.07,4.61-3.22l1.72,2.17Z" style="stroke-width:0px;"></path><path d="M2297.35,2454.5c3.63,8.24.55,14.82-5.56,17.52-6.33,2.79-12.93-.16-16.12-7.41-3.35-7.61-.82-14.66,5.58-17.48,6.54-2.88,12.98.26,16.11,7.37ZM2278.93,2463.08c2.26,5.12,7.05,8.48,11.92,6.33,4.9-2.16,5.69-7.9,3.29-13.33-2.1-4.76-6.78-8.64-11.93-6.37-5.12,2.26-5.59,8.11-3.27,13.37Z" style="stroke-width:0px;"></path><path d="M2299.29,2439.64l4.42,10.02,11.58-5.11-4.42-10.02,3.13-1.38,10.56,23.95-3.13,1.38-4.95-11.23-11.58,5.11,4.95,11.23-3.09,1.36-10.56-23.95,3.09-1.36Z" style="stroke-width:0px;"></path><path d="M2327.84,2451.16c1.76.24,4.1.06,6.23-.88,3.16-1.39,4.27-3.88,3.21-6.29-.99-2.24-2.83-2.95-6.61-2.77-4.52.34-7.83-.62-9.32-4-1.64-3.73.22-7.87,4.88-9.92,2.45-1.08,4.48-1.29,5.81-1.16l.26,2.9c-.97-.08-2.88-.09-5.05.87-3.27,1.44-3.65,3.94-2.93,5.58.99,2.24,2.93,2.7,6.8,2.52,4.74-.22,7.66.82,9.21,4.34,1.63,3.7.32,8.14-5.33,10.63-2.31,1.02-5.15,1.42-6.8,1.13l-.36-2.94Z" style="stroke-width:0px;"></path><path d="M2348,2437.78l.83,8.63-3.2,1.41-2.42-27.54,3.73-1.64,18.73,20.35-3.3,1.46-5.88-6.41-8.49,3.74ZM2354.79,2431.9l-5.38-5.86c-1.22-1.33-2.2-2.59-3.17-3.82l-.07.03c.27,1.58.52,3.21.7,4.87l.71,7.96,7.21-3.18Z" style="stroke-width:0px;"></path><path d="M1453.03,2487.8c-1.6.77-5.2,1.56-9.86,1.49-13.25-.22-19.93-8.57-19.75-19.49.21-13.07,9.66-20.2,21.25-20.01,4.49.07,7.89,1.04,9.41,1.86l-1.88,6.85c-1.75-.77-4.18-1.49-7.25-1.54-6.88-.11-12.29,3.95-12.43,12.48-.13,7.67,4.34,12.58,12.07,12.71,2.62.04,5.52-.48,7.24-1.13l1.2,6.79Z" style="fill:#fff; stroke-width:0px;"></path><path d="M1468.02,2450.8l-.63,38.31-8.7-.14.63-38.31,8.7.14Z" style="fill:#fff; stroke-width:0px;"></path><path d="M1474.9,2489.24l.63-38.31,10.12.17,7.73,14.17c2.21,4.07,4.4,8.89,6.04,13.23h.17c-.48-5.07-.57-10.24-.48-15.98l.18-11.2,7.96.13-.63,38.31-9.09-.15-7.94-14.91c-2.21-4.13-4.63-9.12-6.43-13.64l-.17.05c.14,5.06.17,10.46.07,16.72l-.19,11.54-7.96-.13Z" style="fill:#fff; stroke-width:0px;"></path><path d="M1537.18,2474.06l-14.1-.23-.15,9.1,15.75.26-.12,7.11-24.45-.4.63-38.31,23.65.39-.12,7.11-14.95-.25-.13,7.96,14.1.23-.12,7.05Z" style="fill:#fff; stroke-width:0px;"></path><path d="M1577.12,2476.25c-.1-4.61-.17-10.18-.08-15.75h-.17c-1.27,4.87-2.96,10.3-4.51,14.76l-4.91,14.87-6.76-.11-3.85-14.9c-1.18-4.51-2.4-9.99-3.22-15.01h-.11c-.31,5.17-.58,11.08-.94,15.85l-.92,14.54-8.02-.13,3.07-38.27,11.54.19,3.54,12.85c1.12,4.45,2.24,9.25,3.02,13.75h.17c1.15-4.41,2.54-9.45,3.86-13.69l4.3-12.67,11.31.19,1.48,38.35-8.47-.14-.33-14.68Z" style="fill:#fff; stroke-width:0px;"></path><path d="M1601.48,2481.48l-2.89,9.79-8.98-.15,12.34-38.12,11.37.19,11.25,38.51-9.32-.15-2.79-9.88-10.97-.18ZM1611.31,2475.16l-2.25-8.17c-.64-2.29-1.28-5.14-1.81-7.42h-.11c-.61,2.26-1.22,5.15-1.88,7.36l-2.41,8.09,8.47.14Z" style="fill:#fff; stroke-width:0px;"></path><path d="M1630.31,2453.97c2.79-.41,6.95-.68,11.55-.61,5.68.09,9.65,1.01,12.34,3.22,2.24,1.86,3.45,4.55,3.39,8.07-.08,4.89-3.6,8.19-6.92,9.33v.17c2.65,1.12,4.09,3.71,5,7.25,1.12,4.34,2.24,9.36,2.95,10.85l-8.87-.15c-.61-1.09-1.47-4.23-2.53-8.97-.95-4.79-2.57-6.13-6.09-6.24l-2.62-.04-.25,15.06-8.58-.14.62-37.8ZM1638.62,2470.6l3.41.06c4.32.07,6.91-2.05,6.97-5.4.06-3.52-2.3-5.33-6.28-5.45-2.1-.03-3.3.12-3.93.22l-.17,10.57Z" style="fill:#fff; stroke-width:0px;"></path><path d="M1664.03,2454.02l8.58.14-.28,16.94h.17c.88-1.46,1.81-2.81,2.68-4.16l8.91-12.59,10.63.17-12.95,16.11,13,22.22-10.12-.17-9.11-16.7-3.36,3.98-.21,12.51-8.58-.14.63-38.31Z" style="fill:#fff; stroke-width:0px;"></path><path d="M3135.62,1638.43l3.14-1.38,9.56,21.7,10.4-4.58,1.16,2.64-13.54,5.97-10.73-24.34Z" style="stroke-width:0px;"></path><path d="M3163.95,1645.87l.85,8.77-3.25,1.43-2.46-27.98,3.79-1.67,19.03,20.68-3.36,1.48-5.97-6.51-8.63,3.8ZM3170.85,1639.9l-5.47-5.95c-1.24-1.35-2.24-2.64-3.22-3.88l-.07.03c.28,1.6.53,3.26.71,4.95l.72,8.09,7.33-3.23Z" style="stroke-width:0px;"></path><path d="M3174.76,1621.18l13.11-5.78,1.16,2.64-9.97,4.39,3.56,8.09,9.21-4.06,1.15,2.6-9.21,4.06,4.85,11.01-3.14,1.38-10.73-24.34Z" style="stroke-width:0px;"></path><path d="M3195.49,1612.05l10.73,24.34-3.14,1.38-10.73-24.34,3.14-1.38Z" style="stroke-width:0px;"></path><path d="M3209.58,1630.33c1.79.25,4.17.06,6.33-.89,3.21-1.42,4.34-3.94,3.26-6.4-1-2.27-2.88-3-6.72-2.82-4.59.34-7.95-.63-9.47-4.06-1.67-3.79.23-7.99,4.96-10.08,2.49-1.1,4.55-1.32,5.91-1.18l.26,2.95c-.99-.08-2.93-.09-5.13.88-3.32,1.46-3.71,4.01-2.98,5.67,1,2.28,2.98,2.74,6.91,2.56,4.82-.23,7.79.84,9.36,4.41,1.66,3.75.32,8.27-5.42,10.8-2.35,1.03-5.23,1.44-6.91,1.15l-.37-2.99Z" style="stroke-width:0px;"></path><path d="M3237.07,1609.16l-9.46,4.17,3.87,8.77,10.54-4.65,1.16,2.64-13.69,6.03-10.73-24.34,13.14-5.79,1.16,2.64-10,4.41,3.39,7.69,9.46-4.17,1.15,2.6Z" style="stroke-width:0px;"></path><path d="M3342.98,1743.42l11.04-4.53.91,2.22-8.4,3.45,2.8,6.81,7.76-3.18.9,2.19-7.76,3.18,3.81,9.28-2.65,1.09-8.41-20.5Z" style="stroke-width:0px;"></path><path d="M3357.79,1737.35l2.65-1.09,7.5,18.28,8.76-3.6.91,2.22-11.41,4.68-8.41-20.5Z" style="stroke-width:0px;"></path><path d="M3387.23,1737.99l-7.97,3.27,3.03,7.39,8.88-3.65.91,2.22-11.53,4.73-8.41-20.5,11.07-4.54.91,2.22-8.43,3.46,2.66,6.48,7.97-3.27.9,2.19Z" style="stroke-width:0px;"></path><path d="M3406.75,1741.21l-4.48-3.46c-1.78-1.3-2.91-2.15-4.03-3.07l-.06.02c-.09,1.42-.22,2.76-.55,4.99l-.62,5.51-3.04,1.25,2.01-12.95-10.18-7.66,3.07-1.26,4.68,3.69c1.31,1.03,2.31,1.82,3.31,2.69l.09-.04c.08-1.45.21-2.61.43-4.23l.83-5.95,3.04-1.25-2.14,12.54,10.71,7.9-3.07,1.26Z" style="stroke-width:0px;"></path><path d="M3407.12,1717.1l8.41,20.5-2.65,1.09-8.41-20.5,2.65-1.09Z" style="stroke-width:0px;"></path><path d="M3439.84,1715.41c2.9,7.06.14,12.56-5.09,14.71-5.42,2.22-10.94-.42-13.49-6.62-2.67-6.51-.37-12.43,5.1-14.68,5.6-2.3,10.98.51,13.47,6.59ZM3424.06,1722.27c1.8,4.38,5.78,7.33,9.95,5.62,4.2-1.72,4.99-6.56,3.08-11.21-1.67-4.08-5.55-7.46-9.96-5.65-4.38,1.8-4.91,6.74-3.06,11.25Z" style="stroke-width:0px;"></path><path d="M3439.15,1703.96l11.04-4.53.91,2.22-8.4,3.45,2.8,6.81,7.76-3.18.9,2.19-7.76,3.18,3.81,9.28-2.65,1.09-8.41-20.5Z" style="stroke-width:0px;"></path><path d="M3456.61,1696.79l8.41,20.5-2.65,1.09-8.41-20.5,2.65-1.09Z" style="stroke-width:0px;"></path><path d="M3483.7,1708.85c-.77.89-2.51,2.2-5,3.23-5.78,2.37-11.64.48-14.4-6.25-2.63-6.42-.07-12.55,6.29-15.16,2.55-1.05,4.39-1.16,5.24-1.08l.25,2.42c-1.2-.08-2.78.15-4.49.85-4.81,1.97-6.74,6.36-4.53,11.74,2.06,5.02,6.27,7.06,11.26,5.01,1.61-.66,3.12-1.67,3.97-2.62l1.41,1.87Z" style="stroke-width:0px;"></path><path d="M3481.52,1686.57l8.41,20.5-2.65,1.09-8.41-20.5,2.65-1.09Z" style="stroke-width:0px;"></path><path d="M3494.56,1705.18l-8.41-20.5,2.89-1.19,10.83,7.68c2.51,1.78,4.58,3.45,6.42,5.15l.05-.06c-1.37-2.64-2.45-5.11-3.76-8.3l-3.52-8.58,2.49-1.02,8.41,20.5-2.68,1.1-10.78-7.73c-2.37-1.69-4.7-3.48-6.64-5.27l-.08.07c1.21,2.52,2.29,4.96,3.68,8.37l3.59,8.76-2.49,1.02Z" style="stroke-width:0px;"></path><path d="M3515.24,1689.16l.52,7.32-2.74,1.12-1.45-23.36,3.19-1.31,15.41,17.63-2.83,1.16-4.84-5.55-7.27,2.98ZM3521.11,1684.33l-4.43-5.08c-1.01-1.15-1.81-2.24-2.6-3.31l-.06.02c.2,1.34.37,2.73.49,4.14l.43,6.76,6.18-2.53Z" style="stroke-width:0px;"></path><path d="M3531.5,1686.25c1.49.24,3.47.14,5.29-.61,2.71-1.11,3.7-3.19,2.85-5.26-.79-1.92-2.33-2.56-5.54-2.49-3.83.19-6.61-.7-7.8-3.59-1.31-3.19.36-6.65,4.35-8.29,2.1-.86,3.82-1,4.94-.86l.16,2.46c-.82-.09-2.44-.14-4.29.62-2.8,1.15-3.18,3.26-2.6,4.66.79,1.92,2.42,2.35,5.7,2.28,4.02-.08,6.47.86,7.7,3.88,1.3,3.16.09,6.89-4.75,8.88-1.98.81-4.39,1.09-5.78.81l-.24-2.5Z" style="stroke-width:0px;"></path><path d="M3674.92,1543.18l-24-31.69,8.56-3.77,9.11,13.42c2.64,3.85,5.39,8.1,7.54,11.41l.11-.05c-1.11-4.09-2.15-8.71-3.18-13.46l-3.39-15.81,8.51-3.75,9.41,13.66c2.62,3.8,4.86,7.33,7.12,11.04l.11-.05c-1.21-4.17-2.25-8.67-3.37-13.19l-3.5-15.77,8.14-3.59,6.46,39.42-8.67,3.82-9.71-13.91c-2.26-3.27-4.29-6.32-6.49-10.18l-.1.05c1.13,4.27,2.03,7.88,2.77,11.83l3.35,16.71-8.77,3.87Z" style="fill:#fff; stroke-width:0px;"></path><path d="M3739.84,1492.99c5.11,11.61,1.18,21.74-9.17,26.3-10.5,4.63-20.14-.59-24.59-10.67-4.68-10.61-1.39-21.52,9.05-26.13,10.87-4.79,20.39.73,24.7,10.5ZM3714.47,1504.74c3.05,6.93,8.46,10.38,13.82,8.02,5.41-2.38,6.24-8.9,3.21-15.78-2.8-6.35-8.25-10.47-13.77-8.04-5.41,2.38-6.29,8.92-3.26,15.8Z" style="fill:#fff; stroke-width:0px;"></path><path d="M3737.66,1473.82c2.39-1.55,6.08-3.56,10.34-5.43,5.25-2.31,9.27-3.15,12.67-2.26,2.84.75,5.08,2.71,6.52,5.97,1.99,4.52.15,9.03-2.41,11.47l.07.16c2.91-.09,5.32,1.67,7.64,4.53,2.86,3.51,6,7.64,7.29,8.71l-8.19,3.61c-1.02-.74-3.13-3.26-6.1-7.16-2.89-4-4.95-4.53-8.22-3.15l-2.41,1.06,6.13,13.92-7.93,3.49-15.39-34.92ZM3752.3,1485.56l3.15-1.39c3.99-1.76,5.47-4.8,4.11-7.89-1.44-3.26-4.36-3.91-8.06-2.34-1.94.86-2.98,1.5-3.51,1.86l4.3,9.77Z" style="fill:#fff; stroke-width:0px;"></path><path d="M3768.59,1459.63l7.93-3.49,6.9,15.65.16-.07c.19-1.71.47-3.34.7-4.95l2.85-15.3,9.82-4.33-5.07,20.23,21.3,14.88-9.35,4.12-15.4-11.46-1.4,5.07,5.09,11.55-7.93,3.49-15.6-35.39Z" style="fill:#fff; stroke-width:0px;"></path><path d="M3839.13,1449.23c5.11,11.61,1.18,21.74-9.17,26.3-10.5,4.63-20.14-.59-24.59-10.67-4.68-10.61-1.4-21.52,9.05-26.13,10.87-4.79,20.39.73,24.7,10.5ZM3813.77,1460.98c3.05,6.93,8.46,10.38,13.82,8.02,5.41-2.38,6.24-8.9,3.21-15.78-2.8-6.35-8.25-10.47-13.77-8.04-5.41,2.38-6.29,8.92-3.26,15.8Z" style="fill:#fff; stroke-width:0px;"></path><path d="M3844.72,1426.07l8.98,20.38c2.68,6.09,6.36,8.17,10.46,6.37,4.2-1.85,5.21-5.81,2.46-12.06l-8.98-20.38,7.98-3.52,8.75,19.85c4.81,10.92,1.59,18.55-7.65,22.63-8.93,3.93-16.36,1.31-21.33-9.98l-8.7-19.75,8.04-3.54Z" style="fill:#fff; stroke-width:0px;"></path><path d="M3882.34,1417.52l-9.51,4.19-2.96-6.72,27.2-11.99,2.96,6.72-9.66,4.26,12.64,28.67-8.04,3.54-12.64-28.67Z" style="fill:#fff; stroke-width:0px;"></path><path d="M3708.56,1571.85l1.48,10.2-8.3,3.66-4.78-40.16,10.5-4.63,26.58,30.56-8.61,3.8-6.73-7.88-10.13,4.47ZM3714.9,1561.9l-5.52-6.54c-1.55-1.82-3.34-4.17-4.79-6.04l-.11.05c.4,2.33,1.06,5.24,1.38,7.54l1.21,8.43,7.82-3.45Z" style="fill:#fff; stroke-width:0px;"></path><path d="M3738.77,1569.39l-15.6-35.39,9.35-4.12,13.07,9.73c3.74,2.8,7.79,6.29,11.12,9.58l.16-.07c-2.59-4.44-4.85-9.15-7.19-14.45l-4.56-10.35,7.35-3.24,15.6,35.39-8.4,3.7-13.58-10.32c-3.77-2.86-8.09-6.41-11.65-9.79l-.13.12c2.27,4.58,4.57,9.52,7.12,15.3l4.7,10.66-7.35,3.24Z" style="fill:#fff; stroke-width:0px;"></path><path d="M3782.24,1550.23l-6.39-14.49-20.4-15.97,9.14-4.03,7.37,6.91c2.24,2.09,3.81,3.65,5.72,5.57l.11-.05c-.18-2.55-.25-4.97-.31-7.95l-.18-10.08,8.98-3.96-2.56,25.78,6.5,14.76-7.98,3.52Z" style="fill:#fff; stroke-width:0px;"></path><path d="M3799.9,1508.2l-9.51,4.19-2.96-6.72,27.2-11.99,2.96,6.72-9.66,4.26,12.64,28.67-8.04,3.54-12.64-28.67Z" style="fill:#fff; stroke-width:0px;"></path><path d="M3826.92,1488.26l15.6,35.39-8.03,3.54-15.6-35.39,8.04-3.54Z" style="fill:#fff; stroke-width:0px;"></path><path d="M3873.41,1493.86c-2.03-4.18-4.46-9.26-6.73-14.41l-.16.07c.89,5,1.64,10.69,2.1,15.44l1.78,15.71-6.25,2.75-9.82-12.04c-2.98-3.64-6.41-8.15-9.29-12.4l-.11.05c1.9,4.87,4.15,10.4,5.83,14.93l5.3,13.72-7.4,3.26-13.34-36.39,10.66-4.7,8.68,10.29c2.91,3.61,5.95,7.53,8.57,11.34l.16-.07c-.81-4.54-1.66-9.74-2.24-14.19l-1.4-13.43,10.45-4.61,17.54,34.54-7.82,3.45-6.5-13.32Z" style="fill:#fff; stroke-width:0px;"></path><path d="M3908.33,1476.78l-13.02,5.74,3.7,8.4,14.54-6.41,2.89,6.56-22.58,9.95-15.6-35.39,21.85-9.63,2.89,6.56-13.81,6.09,3.24,7.35,13.02-5.74,2.87,6.51Z" style="fill:#fff; stroke-width:0px;"></path><path d="M3414.37,1911.24l-5.06-11.47,1.62-.71,6.23,4.18c1.44.97,2.64,1.89,3.7,2.82l.03-.03c-.81-1.47-1.46-2.85-2.25-4.64l-2.12-4.8,1.4-.62,5.06,11.47-1.5.66-6.21-4.22c-1.36-.92-2.71-1.9-3.83-2.88l-.04.04c.72,1.41,1.37,2.77,2.21,4.68l2.16,4.9-1.39.61Z" style="stroke-width:0px;"></path><path d="M3421.99,1894.18l2.99,6.79c1.13,2.57,2.75,3.16,4.29,2.48,1.7-.75,2.3-2.35,1.18-4.89l-2.99-6.79,1.5-.66,2.95,6.69c1.55,3.52.33,5.79-2.15,6.88-2.35,1.04-4.71.47-6.28-3.09l-2.98-6.76,1.5-.66Z" style="stroke-width:0px;"></path><path d="M3434.25,1890.28l-3.49,1.54-.56-1.26,8.49-3.74.55,1.26-3.51,1.54,4.5,10.21-1.5.66-4.5-10.21Z" style="stroke-width:0px;"></path><path d="M3440.04,1886.4c.68-.48,1.72-1.04,2.74-1.49,1.58-.7,2.73-.86,3.73-.53.8.26,1.47.9,1.86,1.78.67,1.51.16,2.94-.87,3.88l.02.05c1.02-.08,1.91.5,2.71,1.57,1.08,1.44,1.84,2.42,2.27,2.76l-1.53.68c-.34-.26-1.02-1.12-1.97-2.4-1.04-1.43-1.91-1.76-3.28-1.22l-1.4.61,2.19,4.97-1.48.65-4.99-11.32ZM3443.82,1890.97l1.51-.67c1.58-.7,2.21-2.01,1.63-3.32-.65-1.48-2.01-1.66-3.58-.98-.71.31-1.2.61-1.4.78l1.85,4.19Z" style="stroke-width:0px;"></path><path d="M3450.61,1881.56l5.06,11.47-1.48.65-5.06-11.47,1.48-.65Z" style="stroke-width:0px;"></path><path d="M3423.21,1922.79c.84.12,1.96.03,2.99-.42,1.51-.67,2.05-1.86,1.54-3.01-.47-1.07-1.36-1.42-3.17-1.33-2.16.16-3.75-.3-4.46-1.92-.79-1.79.11-3.77,2.34-4.75,1.17-.52,2.15-.62,2.78-.56l.12,1.39c-.46-.04-1.38-.04-2.42.42-1.57.69-1.75,1.89-1.4,2.67.47,1.07,1.4,1.29,3.25,1.21,2.27-.11,3.67.4,4.41,2.08.78,1.77.15,3.9-2.55,5.09-1.11.49-2.46.68-3.26.54l-.17-1.41Z" style="stroke-width:0px;"></path><path d="M3427.6,1909.48c.66-.43,1.55-.95,2.74-1.47,1.46-.65,2.69-.78,3.64-.46.87.27,1.61.94,2.06,1.96.46,1.04.51,1.99.2,2.84-.42,1.18-1.5,2.17-2.95,2.81-.44.19-.86.36-1.24.42l2.03,4.6-1.48.65-5-11.33ZM3431.52,1914.35c.36-.06.78-.2,1.28-.42,1.79-.79,2.5-2.14,1.8-3.72-.67-1.52-2.06-1.78-3.7-1.06-.65.28-1.12.55-1.34.73l1.97,4.46Z" style="stroke-width:0px;"></path><path d="M3448.87,1906.65c1.74,3.95.26,7.1-2.66,8.39-3.03,1.33-6.19-.08-7.72-3.55-1.61-3.64-.39-7.02,2.67-8.37,3.13-1.38,6.22.13,7.72,3.53ZM3440.05,1910.76c1.08,2.45,3.38,4.06,5.71,3.03,2.35-1.04,2.72-3.78,1.58-6.39-1-2.28-3.25-4.14-5.71-3.05-2.45,1.08-2.68,3.88-1.57,6.4Z" style="stroke-width:0px;"></path><path d="M3450.63,1900.67l-3.49,1.54-.56-1.26,8.49-3.74.56,1.26-3.51,1.54,4.5,10.21-1.5.66-4.5-10.21Z" style="stroke-width:0px;"></path><path d="M3479.03,2290.12l6.52,15.79-2.04.84-6.52-15.79,2.04-.84Z" style="stroke-width:0px;"></path><path d="M3489.11,2304.44l-6.52-15.79,2.23-.92,8.36,5.9c1.94,1.37,3.54,2.65,4.95,3.96l.04-.04c-1.06-2.03-1.9-3.93-2.91-6.39l-2.73-6.6,1.92-.79,6.52,15.79-2.06.85-8.32-5.94c-1.83-1.3-3.63-2.67-5.13-4.05l-.06.05c.94,1.94,1.77,3.82,2.85,6.45l2.79,6.75-1.92.79Z" style="stroke-width:0px;"></path><path d="M3501.72,2282.78l-4.8,1.98-.71-1.73,11.69-4.83.72,1.73-4.83,1.99,5.8,14.06-2.06.85-5.8-14.05Z" style="stroke-width:0px;"></path><path d="M3521.29,2282.49l-6.14,2.53,2.35,5.69,6.84-2.83.71,1.71-8.88,3.67-6.52-15.79,8.53-3.52.71,1.71-6.49,2.68,2.06,4.99,6.14-2.54.7,1.69Z" style="stroke-width:0px;"></path><path d="M3521.26,2272.93c.94-.63,2.37-1.36,3.78-1.94,2.18-.9,3.75-1.08,5.1-.6,1.09.37,1.98,1.27,2.48,2.49.86,2.08.12,4.01-1.31,5.26l.03.07c1.39-.08,2.58.74,3.63,2.23,1.43,1.99,2.43,3.36,3.01,3.83l-2.11.87c-.45-.36-1.35-1.55-2.61-3.33-1.37-1.99-2.55-2.46-4.43-1.76l-1.92.79,2.83,6.84-2.04.84-6.43-15.58ZM3526.27,2279.28l2.09-.86c2.18-.9,3.07-2.67,2.32-4.47-.84-2.04-2.69-2.32-4.85-1.45-.98.41-1.65.79-1.94,1.02l2.38,5.76Z" style="stroke-width:0px;"></path><path d="M3540.3,2283.3l-6.52-15.79,2.23-.92,8.36,5.9c1.94,1.37,3.54,2.65,4.95,3.96l.04-.04c-1.06-2.03-1.9-3.93-2.91-6.39l-2.73-6.6,1.92-.79,6.52,15.79-2.06.85-8.32-5.94c-1.83-1.3-3.63-2.67-5.13-4.05l-.06.05c.94,1.94,1.77,3.82,2.85,6.45l2.79,6.75-1.92.79Z" style="stroke-width:0px;"></path><path d="M3556.22,2270.91l.41,5.64-2.11.87-1.16-18,2.46-1.02,11.91,13.56-2.18.9-3.74-4.27-5.6,2.31ZM3560.74,2267.18l-3.42-3.91c-.78-.89-1.4-1.73-2.01-2.54l-.05.02c.15,1.03.29,2.1.38,3.19l.34,5.21,4.76-1.96Z" style="stroke-width:0px;"></path><path d="M3580.52,2266.09c-.59.68-1.93,1.7-3.85,2.5-4.45,1.84-8.97.39-11.11-4.79-2.04-4.94-.07-9.68,4.82-11.7,1.97-.81,3.38-.9,4.04-.84l.2,1.87c-.93-.06-2.14.12-3.46.66-3.7,1.53-5.18,4.91-3.47,9.06,1.6,3.87,4.85,5.43,8.69,3.84,1.24-.51,2.4-1.29,3.06-2.03l1.09,1.44Z" style="stroke-width:0px;"></path><path d="M3578.81,2248.92l6.52,15.79-2.04.84-6.52-15.79,2.04-.84Z" style="stroke-width:0px;"></path><path d="M3599.06,2249.6c2.24,5.43.13,9.68-3.9,11.34-4.17,1.72-8.43-.3-10.41-5.08-2.07-5.01-.31-9.58,3.91-11.32,4.31-1.78,8.46.37,10.4,5.06ZM3586.91,2254.92c1.39,3.37,4.47,5.64,7.68,4.31,3.23-1.33,3.83-5.06,2.35-8.65-1.3-3.14-4.29-5.74-7.69-4.34-3.37,1.39-3.77,5.21-2.34,8.67Z" style="stroke-width:0px;"></path><path d="M3605.03,2256.57l-6.52-15.79,2.22-.92,8.36,5.9c1.94,1.37,3.54,2.65,4.95,3.96l.04-.04c-1.06-2.03-1.9-3.93-2.91-6.39l-2.73-6.6,1.92-.79,6.52,15.79-2.06.85-8.32-5.94c-1.83-1.3-3.63-2.67-5.13-4.05l-.06.05c.94,1.94,1.77,3.82,2.85,6.45l2.79,6.75-1.92.79Z" style="stroke-width:0px;"></path><path d="M3620.95,2244.18l.41,5.64-2.11.87-1.16-18,2.46-1.02,11.91,13.56-2.18.9-3.74-4.27-5.6,2.31ZM3625.47,2240.45l-3.42-3.91c-.78-.89-1.4-1.73-2.01-2.54l-.05.02c.15,1.03.29,2.1.38,3.19l.34,5.21,4.76-1.96Z" style="stroke-width:0px;"></path><path d="M3628.27,2228.49l2.04-.84,5.81,14.08,6.75-2.79.71,1.71-8.79,3.63-6.52-15.79Z" style="stroke-width:0px;"></path><path d="M3533.7,2293.34l-4.8,1.98-.72-1.73,11.69-4.83.72,1.73-4.83,1.99,5.8,14.06-2.06.85-5.8-14.05Z" style="stroke-width:0px;"></path><path d="M3541.71,2288.25c.94-.64,2.37-1.36,3.78-1.94,2.18-.9,3.75-1.08,5.1-.6,1.09.37,1.98,1.27,2.48,2.49.86,2.08.12,4.01-1.31,5.26l.03.07c1.39-.08,2.58.74,3.63,2.23,1.42,1.99,2.43,3.36,3.01,3.83l-2.11.87c-.45-.36-1.35-1.55-2.61-3.33-1.37-1.99-2.55-2.46-4.43-1.76l-1.92.79,2.82,6.84-2.04.84-6.43-15.58ZM3546.72,2294.6l2.08-.86c2.18-.9,3.07-2.67,2.32-4.47-.84-2.04-2.68-2.32-4.85-1.45-.98.41-1.65.79-1.94,1.02l2.38,5.76Z" style="stroke-width:0px;"></path><path d="M3561.37,2292.55l.41,5.64-2.11.87-1.16-18,2.46-1.02,11.91,13.56-2.18.9-3.74-4.27-5.6,2.31ZM3565.89,2288.82l-3.42-3.91c-.78-.89-1.4-1.73-2.01-2.54l-.05.02c.15,1.03.29,2.1.38,3.19l.34,5.21,4.76-1.96Z" style="stroke-width:0px;"></path><path d="M3577.43,2291.73l-11.67-13.66,2.2-.91,5.67,6.76c1.56,1.85,2.94,3.53,4.12,5.21l.05-.02c-.31-2.01-.47-4.27-.62-6.62l-.55-8.9,2.18-.9.88,18.12-2.25.93Z" style="stroke-width:0px;"></path><path d="M3592.16,2276.99l-6.14,2.54,2.35,5.69,6.84-2.82.71,1.71-8.88,3.67-6.52-15.79,8.53-3.52.71,1.71-6.49,2.68,2.06,4.99,6.14-2.53.7,1.69Z" style="stroke-width:0px;"></path><path d="M3592.04,2267.22l2.04-.84,5.81,14.08,6.75-2.79.71,1.71-8.79,3.63-6.52-15.79Z" style="stroke-width:0px;"></path><path d="M3779.52,2227.85c3.25,7.39.49,13.28-4.98,15.69-5.67,2.5-11.58-.14-14.45-6.64-3-6.81-.73-13.14,5-15.66,5.86-2.58,11.62.24,14.43,6.6ZM3763.02,2235.54c2.02,4.58,6.31,7.6,10.67,5.67,4.39-1.94,5.1-7.07,2.95-11.94-1.88-4.27-6.07-7.74-10.69-5.71-4.58,2.02-5.01,7.27-2.93,11.98Z" style="stroke-width:0px;"></path><path d="M3778.49,2215.75l11.56-5.09,1.02,2.32-8.79,3.87,3.14,7.13,8.12-3.58,1.01,2.29-8.12,3.58,4.28,9.71-2.77,1.22-9.46-21.46Z" style="stroke-width:0px;"></path><path d="M3796.76,2207.7l9.46,21.46-2.77,1.22-9.46-21.46,2.77-1.22Z" style="stroke-width:0px;"></path><path d="M3825.75,2219.71c-.79.96-2.59,2.4-5.2,3.55-6.05,2.67-12.3.82-15.4-6.22-2.96-6.72-.41-13.28,6.24-16.21,2.67-1.18,4.61-1.35,5.51-1.29l.33,2.56c-1.27-.05-2.94.23-4.72,1.02-5.03,2.22-6.96,6.91-4.47,12.54,2.31,5.25,6.83,7.3,12.05,4.99,1.69-.74,3.25-1.85,4.13-2.88l1.54,1.94Z" style="stroke-width:0px;"></path><path d="M3822.84,2196.21l9.46,21.46-2.77,1.22-9.46-21.46,2.77-1.22Z" style="stroke-width:0px;"></path><path d="M3837.14,2215.53l-9.46-21.46,3.03-1.33,11.66,7.83c2.7,1.81,4.94,3.53,6.93,5.27l.05-.06c-1.52-2.75-2.73-5.34-4.21-8.68l-3.96-8.98,2.61-1.15,9.46,21.46-2.8,1.23-11.61-7.89c-2.55-1.73-5.06-3.55-7.17-5.39l-.08.07c1.35,2.64,2.55,5.19,4.12,8.75l4.04,9.17-2.61,1.15Z" style="stroke-width:0px;"></path><path d="M3858.58,2198.02l.75,7.73-2.87,1.26-2.17-24.67,3.34-1.47,16.78,18.23-2.96,1.3-5.27-5.74-7.61,3.35ZM3864.67,2192.75l-4.82-5.25c-1.1-1.19-1.97-2.32-2.84-3.43l-.06.03c.24,1.41.47,2.87.63,4.36l.63,7.13,6.46-2.85Z" style="stroke-width:0px;"></path><path d="M3875.71,2194.5c1.58.22,3.67.05,5.58-.79,2.83-1.25,3.83-3.47,2.88-5.64-.88-2-2.54-2.65-5.92-2.48-4.05.3-7.01-.56-8.35-3.58-1.47-3.34.2-7.05,4.37-8.88,2.2-.97,4.01-1.16,5.21-1.04l.23,2.6c-.87-.07-2.58-.08-4.52.78-2.93,1.29-3.27,3.53-2.62,5,.88,2,2.62,2.42,6.09,2.26,4.25-.2,6.87.74,8.25,3.89,1.46,3.31.29,7.29-4.78,9.52-2.07.91-4.61,1.27-6.09,1.01l-.32-2.63Z" style="stroke-width:0px;"></path><path d="M3786.21,2270.09c-.79.96-2.59,2.4-5.2,3.55-6.05,2.67-12.3.82-15.4-6.21-2.96-6.72-.41-13.28,6.24-16.21,2.67-1.18,4.62-1.35,5.52-1.29l.33,2.55c-1.27-.05-2.94.23-4.72,1.02-5.03,2.22-6.96,6.91-4.47,12.54,2.31,5.25,6.83,7.29,12.05,4.99,1.69-.74,3.25-1.85,4.13-2.88l1.54,1.94Z" style="stroke-width:0px;"></path><path d="M3780.66,2248.09c1.28-.9,3.21-1.95,5.12-2.79,2.96-1.3,5.11-1.61,6.98-.99,1.5.48,2.75,1.68,3.48,3.33,1.25,2.83.29,5.5-1.63,7.26l.04.1c1.91-.16,3.57.94,5.06,2.94,2.02,2.68,3.44,4.53,4.25,5.16l-2.87,1.26c-.63-.48-1.91-2.09-3.69-4.49-1.94-2.68-3.58-3.29-6.13-2.28l-2.61,1.15,4.1,9.3-2.77,1.22-9.33-21.17ZM3787.74,2256.64l2.83-1.25c2.96-1.31,4.12-3.76,3.04-6.21-1.22-2.77-3.76-3.1-6.7-1.84-1.34.59-2.23,1.14-2.62,1.46l3.45,7.83Z" style="stroke-width:0px;"></path><path d="M3813.8,2246.76l-8.34,3.68,3.41,7.74,9.3-4.1,1.02,2.32-12.06,5.32-9.46-21.46,11.59-5.11,1.02,2.32-8.82,3.89,2.99,6.78,8.34-3.68,1.01,2.29Z" style="stroke-width:0px;"></path><path d="M3813.46,2233.64c1.58-1,3.5-2.07,5.69-3.04,3.98-1.75,7.22-2.08,9.87-1.16,2.68.91,4.89,2.9,6.42,6.37,1.54,3.5,1.72,6.84.59,9.7-1.12,2.89-3.96,5.43-8.13,7.27-1.97.87-3.67,1.5-5.14,1.96l-9.3-21.11ZM3824.59,2251.39c.76-.18,1.79-.6,2.87-1.08,5.92-2.61,7.68-7.34,5.12-13.13-2.2-5.08-6.48-7.03-12.34-4.45-1.43.63-2.46,1.24-3.12,1.72l7.46,16.94Z" style="stroke-width:0px;"></path><path d="M3837.31,2222.78l9.46,21.46-2.77,1.22-9.46-21.46,2.77-1.22Z" style="stroke-width:0px;"></path><path d="M3865.54,2224.71c-1.48-2.92-3.25-6.44-4.4-9.12l-.09.04c.38,2.84.68,5.94.88,9.34l.8,12.08-2.1.93-7.97-8.69c-2.35-2.58-4.43-4.97-6.16-7.25l-.06.03c1.12,2.7,2.54,6.37,3.77,9.67l3.48,9.45-2.64,1.16-7.96-22.12,3.53-1.56,8.24,8.77c2.06,2.25,3.83,4.28,5.35,6.27l.1-.04c-.41-2.4-.69-5.1-.92-8.22l-.76-12.06,3.54-1.56,10.79,20.87-2.71,1.19-4.7-9.18Z" style="stroke-width:0px;"></path><path d="M3877.38,2222.69l.75,7.73-2.87,1.26-2.17-24.67,3.34-1.47,16.78,18.23-2.96,1.3-5.27-5.74-7.61,3.35ZM3883.47,2217.42l-4.82-5.25c-1.1-1.19-1.97-2.32-2.84-3.42l-.06.03c.24,1.41.47,2.87.63,4.36l.63,7.13,6.46-2.85Z" style="stroke-width:0px;"></path><path d="M3894.51,2219.17c1.58.22,3.67.05,5.58-.79,2.83-1.25,3.83-3.47,2.88-5.64-.88-2-2.54-2.65-5.92-2.48-4.05.3-7.01-.56-8.35-3.58-1.47-3.34.2-7.05,4.37-8.88,2.2-.97,4.01-1.16,5.21-1.04l.23,2.6c-.87-.07-2.58-.08-4.52.78-2.93,1.29-3.27,3.53-2.63,5,.88,2,2.62,2.42,6.09,2.26,4.25-.2,6.87.74,8.25,3.89,1.46,3.31.29,7.29-4.78,9.52-2.07.91-4.61,1.27-6.09,1.01l-.32-2.63Z" style="stroke-width:0px;"></path><path d="M3214.44,2526.17c-1.19,1.43-3.88,3.58-7.78,5.3-9.04,3.99-18.39,1.23-23.03-9.29-4.43-10.04-.62-19.85,9.33-24.23,4-1.76,6.9-2.02,8.25-1.93l.49,3.82c-1.91-.07-4.4.34-7.06,1.52-7.52,3.31-10.4,10.33-6.69,18.75,3.46,7.85,10.21,10.91,18.01,7.47,2.52-1.11,4.86-2.77,6.17-4.31l2.3,2.91Z" style="stroke-width:0px;"></path><path d="M3210.09,2491.03l14.14,32.08-4.14,1.82-14.14-32.08,4.14-1.82Z" style="stroke-width:0px;"></path><path d="M3224.97,2488.67l-9.76,4.3-1.55-3.52,23.75-10.47,1.55,3.52-9.8,4.32,12.59,28.56-4.19,1.85-12.59-28.56Z" style="stroke-width:0px;"></path><path d="M3263.59,2505.76l-6-13.61-18.28-14,4.71-2.08,8.42,6.86c2.31,1.88,4.12,3.42,6.11,5.21l.09-.04c-.02-2.49.15-5.07.32-8.04l.72-10.89,4.71-2.08-2.64,23.16,6.02,13.66-4.19,1.85Z" style="stroke-width:0px;"></path><path d="M3316.08,2480.92c-1.56,1.48-4.75,4.19-9.08,6.1-4.85,2.14-9.4,2.66-13.86,1.05-3.94-1.45-7.54-4.98-9.74-9.98-4.17-9.59-.69-19.48,10.07-24.22,3.71-1.64,6.97-2.11,8.65-2.05l.49,3.82c-2.05,0-4.46.32-7.7,1.75-7.81,3.44-10.76,10.54-7.21,18.58,3.59,8.14,10.61,10.79,18.08,7.49,2.71-1.2,4.4-2.4,5.14-3.29l-4.22-9.57-6.52,2.87-1.47-3.33,10.57-4.66,6.8,15.42Z" style="stroke-width:0px;"></path><path d="M3323.78,2467.18l1.12,11.56-4.28,1.89-3.24-36.89,5-2.2,25.09,27.26-4.43,1.95-7.88-8.58-11.38,5.01ZM3332.87,2459.31l-7.21-7.85c-1.64-1.78-2.95-3.47-4.25-5.12l-.1.04c.36,2.11.7,4.3.94,6.52l.95,10.67,9.66-4.26Z" style="stroke-width:0px;"></path><path d="M3372.8,2440.8c-2.21-4.37-4.87-9.62-6.58-13.64l-.14.06c.56,4.24,1.01,8.88,1.32,13.97l1.2,18.06-3.14,1.38-11.92-12.99c-3.52-3.85-6.63-7.42-9.21-10.83l-.09.04c1.67,4.04,3.8,9.52,5.63,14.46l5.21,14.13-3.95,1.74-11.9-33.07,5.28-2.33,12.31,13.1c3.07,3.36,5.72,6.4,8,9.38l.14-.06c-.62-3.59-1.03-7.62-1.38-12.29l-1.13-18.04,5.28-2.33,16.14,31.2-4.04,1.78-7.02-13.73Z" style="stroke-width:0px;"></path><path d="M3400.22,2427.58l-12.47,5.5,5.1,11.57,13.9-6.13,1.53,3.47-18.04,7.95-14.14-32.08,17.33-7.64,1.53,3.47-13.19,5.81,4.47,10.14,12.47-5.5,1.51,3.43Z" style="stroke-width:0px;"></path><path d="M3410.86,2434.82c2.36.32,5.49.08,8.35-1.18,4.24-1.87,5.73-5.2,4.3-8.43-1.32-3-3.79-3.96-8.86-3.71-6.05.45-10.49-.83-12.48-5.36-2.2-5,.3-10.54,6.54-13.28,3.28-1.45,6-1.73,7.78-1.55l.35,3.88c-1.3-.11-3.86-.12-6.76,1.16-4.38,1.93-4.89,5.28-3.93,7.47,1.32,3,3.92,3.61,9.11,3.38,6.35-.3,10.26,1.1,12.34,5.82,2.18,4.95.43,10.9-7.14,14.23-3.09,1.36-6.89,1.9-9.11,1.51l-.48-3.94Z" style="stroke-width:0px;"></path><path d="M3028.74,2283.33c-.96-1.46-2.09-3.42-3.24-6.04-1.42-3.22-1.71-5.91-1.02-8,.59-1.91,2.06-3.55,4.31-4.54,2.28-1.01,4.38-1.13,6.25-.43,2.59.91,4.77,3.31,6.17,6.49.43.97.79,1.89.93,2.72l10.11-4.46,1.44,3.26-24.94,10.99ZM3039.47,2274.71c-.13-.79-.45-1.73-.93-2.81-1.73-3.93-4.7-5.49-8.18-3.95-3.33,1.47-3.9,4.54-2.32,8.13.63,1.42,1.22,2.46,1.62,2.96l9.81-4.32Z" style="stroke-width:0px;"></path><path d="M3020,2263.39c-1.06-1.5-2.29-3.78-3.28-6.02-1.54-3.48-1.89-6.01-1.16-8.21.56-1.77,1.97-3.24,3.92-4.1,3.33-1.47,6.47-.35,8.54,1.92l.11-.05c-.18-2.24,1.1-4.2,3.46-5.95,3.16-2.38,5.33-4.05,6.07-5l1.49,3.37c-.57.74-2.46,2.24-5.29,4.34-3.15,2.28-3.87,4.21-2.68,7.22l1.35,3.07,10.93-4.82,1.44,3.26-24.9,10.98ZM3030.06,2255.07l-1.47-3.33c-1.54-3.48-4.42-4.85-7.3-3.58-3.26,1.44-3.64,4.42-2.16,7.88.69,1.57,1.34,2.63,1.72,3.09l9.21-4.06Z" style="stroke-width:0px;"></path><path d="M3013.58,2216.27c8.69-3.83,15.62-.58,18.46,5.86,2.94,6.67-.17,13.62-7.81,16.99-8.01,3.53-15.45.86-18.42-5.88-3.04-6.89.28-13.67,7.77-16.98ZM3022.62,2235.67c5.39-2.38,8.94-7.43,6.67-12.56-2.28-5.17-8.32-5.99-14.05-3.47-5.02,2.21-9.11,7.14-6.71,12.57,2.38,5.39,8.55,5.89,14.09,3.45Z" style="stroke-width:0px;"></path><path d="M3004.14,2189.98c-3.44,1.74-7.57,3.83-10.73,5.18l.05.11c3.34-.44,6.98-.8,10.99-1.04l14.21-.94,1.09,2.47-10.22,9.38c-3.03,2.77-5.84,5.21-8.52,7.24l.03.08c3.18-1.31,7.49-2.99,11.37-4.43l11.12-4.1,1.37,3.11-26.02,9.36-1.83-4.16,10.31-9.69c2.65-2.42,5.04-4.5,7.38-6.29l-.05-.11c-2.83.49-5.99.81-9.67,1.09l-14.19.89-1.83-4.16,24.55-12.7,1.4,3.18-10.8,5.52Z" style="stroke-width:0px;"></path><path d="M2993.74,2168.41l4.32,9.81,9.1-4.01-4.82-10.93,2.73-1.2,6.25,14.19-25.24,11.12-6.01-13.63,2.73-1.21,4.57,10.37,7.98-3.52-4.32-9.81,2.7-1.19Z" style="stroke-width:0px;"></path><path d="M2978.31,2168.82c-1.06-1.5-2.29-3.78-3.28-6.02-1.53-3.48-1.89-6.01-1.16-8.21.56-1.77,1.97-3.24,3.92-4.1,3.33-1.47,6.47-.35,8.54,1.92l.11-.05c-.18-2.24,1.1-4.2,3.46-5.95,3.16-2.37,5.33-4.05,6.07-5l1.49,3.37c-.57.74-2.45,2.24-5.29,4.34-3.15,2.28-3.87,4.21-2.68,7.22l1.35,3.07,10.93-4.82,1.44,3.26-24.9,10.98ZM2988.37,2160.49l-1.47-3.33c-1.54-3.48-4.42-4.85-7.3-3.58-3.26,1.44-3.64,4.42-2.16,7.88.69,1.57,1.34,2.63,1.72,3.09l9.21-4.06Z" style="stroke-width:0px;"></path><path d="M2967.66,2145.56l25.24-11.12,1.44,3.26-25.24,11.12-1.44-3.26Z" style="stroke-width:0px;"></path><path d="M2981.79,2111.47c1.13.94,2.82,3.05,4.17,6.12,3.14,7.12.96,14.47-7.31,18.11-7.9,3.48-15.62.49-19.07-7.34-1.39-3.15-1.59-5.43-1.52-6.49l3-.39c-.05,1.5.27,3.46,1.2,5.56,2.61,5.92,8.12,8.18,14.75,5.26,6.18-2.72,8.58-8.03,5.87-14.17-.87-1.98-2.18-3.83-3.39-4.85l2.29-1.81Z" style="stroke-width:0px;"></path><path d="M2971.02,2106.3l9.09-.88,1.49,3.37-29.02,2.55-1.73-3.93,21.44-19.74,1.53,3.48-6.75,6.2,3.95,8.95ZM2964.82,2099.15l-6.18,5.67c-1.4,1.29-2.73,2.32-4.03,3.34l.03.07c1.66-.29,3.38-.55,5.13-.74l8.39-.75-3.35-7.6Z" style="stroke-width:0px;"></path><path d="M3599.01,1845.69l-7.27.7-1.19-2.7,23.21-2.04,1.39,3.14-17.15,15.79-1.23-2.79,5.4-4.95-3.15-7.16ZM3603.97,1851.42l4.94-4.54c1.12-1.03,2.19-1.86,3.22-2.67l-.03-.06c-1.33.23-2.7.44-4.1.59l-6.71.6,2.68,6.08Z" style="stroke-width:0px;"></path><path d="M3617.95,1857.17l-2.71-6.14,2.22-.98,6.59,14.95-2.22.98-2.72-6.17-17.97,7.92-1.16-2.64,17.97-7.92Z" style="stroke-width:0px;"></path><path d="M3621.21,1889.25c2.75-1.39,6.05-3.06,8.58-4.14l-.04-.09c-2.67.35-5.59.64-8.79.83l-11.37.75-.87-1.98,8.18-7.5c2.42-2.21,4.67-4.17,6.82-5.79l-.03-.06c-2.54,1.05-5.99,2.39-9.1,3.54l-8.89,3.28-1.1-2.49,20.81-7.49,1.46,3.32-8.25,7.75c-2.12,1.93-4.03,3.6-5.9,5.03l.04.09c2.26-.39,4.79-.65,7.74-.87l11.35-.71,1.47,3.32-19.63,10.16-1.12-2.55,8.64-4.42Z" style="stroke-width:0px;"></path><path d="M3575.52,1855.91c2.75-1.39,6.05-3.06,8.58-4.14l-.04-.09c-2.67.35-5.59.64-8.79.83l-11.37.75-.87-1.98,8.18-7.5c2.42-2.21,4.67-4.17,6.82-5.79l-.03-.06c-2.54,1.05-5.99,2.39-9.1,3.54l-8.89,3.28-1.1-2.49,20.81-7.49,1.46,3.32-8.25,7.75c-2.12,1.93-4.03,3.6-5.9,5.03l.04.09c2.26-.39,4.79-.65,7.74-.87l11.35-.71,1.47,3.32-19.63,10.16-1.12-2.55,8.64-4.42Z" style="stroke-width:0px;"></path><path d="M3587.67,1879.6c-6.95,3.06-12.49.46-14.76-4.69-2.35-5.33.13-10.9,6.24-13.59,6.41-2.82,12.36-.69,14.73,4.7,2.43,5.51-.22,10.94-6.21,13.58ZM3580.44,1864.08c-4.31,1.9-7.15,5.94-5.34,10.04,1.82,4.13,6.66,4.79,11.24,2.77,4.01-1.77,7.28-5.71,5.37-10.06-1.9-4.31-6.83-4.71-11.27-2.76ZM3600.09,1868.33l-5.18-2.26-.95-2.16,4.73,1.24,1.4,3.17Z" style="stroke-width:0px;"></path><path d="M3580.82,1891.96l17.28-15.49,1.24,2.82-8.56,7.53c-2.34,2.07-4.47,3.9-6.6,5.48l.03.06c2.59-.46,5.5-.74,8.53-1.01l11.48-.98,1.23,2.79-23.37,1.68-1.27-2.88Z" style="stroke-width:0px;"></path><path d="M3607.57,1897.95l-20.19,8.9-1.15-2.61,20.19-8.9,1.15,2.61Z" style="stroke-width:0px;"></path><path d="M3609.57,1902.5l1.15,2.61-18,7.93,3.8,8.63-2.19.96-4.95-11.23,20.19-8.9Z" style="stroke-width:0px;"></path><path d="M3256.83,1716.25c.84,1.28,1.93,3.4,2.8,5.64,1.25,3.2,1.51,5.47.87,7.5-.45,1.66-1.62,3.01-3.57,3.77-2.39.94-5.1.18-7.08-2.05l-.07.03c.33,2.58-.53,6.1-4.21,7.54-2.13.84-4.08.62-5.78-.15-2.26-1.11-4.09-3.61-5.67-7.65-.86-2.2-1.38-3.95-1.65-5.07l24.36-9.55ZM3236.08,1728.08c.13.67.46,1.6.9,2.74,1.3,3.31,3.71,5.88,7.3,4.47,3.38-1.33,3.64-4.77,2.27-8.26l-1.04-2.64-9.44,3.7ZM3247.94,1723.42l1.14,2.9c1.33,3.38,3.87,4.67,6.25,3.74,2.9-1.14,3.18-3.79,1.91-7.02-.58-1.47-1.02-2.27-1.33-2.74l-7.97,3.13Z" style="stroke-width:0px;"></path><path d="M3249.56,1746.69l-8.8.48-1.3-3.31,28.06-1.3,1.51,3.86-21.45,18.16-1.34-3.42,6.75-5.7-3.44-8.78ZM3255.25,1753.83l6.18-5.22c1.4-1.18,2.72-2.13,4.01-3.06l-.03-.07c-1.61.21-3.28.4-4.97.51l-8.11.38,2.92,7.46Z" style="stroke-width:0px;"></path><path d="M3249.02,1768.22l24.76-9.71,1.37,3.49-9.42,12.85c-2.18,2.97-4.23,5.43-6.3,7.6l.07.06c3.19-1.59,6.17-2.84,10.03-4.36l10.36-4.06,1.18,3.01-24.76,9.71-1.27-3.23,9.48-12.79c2.08-2.81,4.26-5.57,6.45-7.87l-.08-.1c-3.05,1.41-6,2.65-10.11,4.26l-10.58,4.15-1.18-3.01Z" style="stroke-width:0px;"></path><path d="M3266.09,1809.37c-1.05-.94-2.59-3.05-3.78-6.06-2.74-6.98-.35-13.98,7.77-17.16,7.75-3.04,15.06.15,18.08,7.83,1.21,3.09,1.31,5.29,1.2,6.31l-2.91.25c.11-1.44-.12-3.34-.93-5.4-2.28-5.8-7.5-8.21-14-5.66-6.06,2.38-8.59,7.39-6.22,13.42.76,1.95,1.95,3.77,3.07,4.81l-2.28,1.65Z" style="stroke-width:0px;"></path><path d="M3287.49,1829.13c-8.52,3.34-15.07-.06-17.55-6.38-2.56-6.54.71-13.12,8.2-16.06,7.86-3.08,14.92-.21,17.51,6.4,2.65,6.76-.81,13.16-8.16,16.04ZM3279.55,1810.07c-5.29,2.07-8.91,6.8-6.93,11.83,1.99,5.07,7.78,6.1,13.4,3.9,4.92-1.93,9.06-6.52,6.97-11.85-2.07-5.29-8-6.02-13.43-3.89Z" style="stroke-width:0px;"></path><path d="M3303.96,1836.44c1.06,1.83,2.19,4.06,3.18,6.59,1.8,4.59,2.02,8.28.85,11.24-1.16,3-3.52,5.41-7.52,6.98-4.04,1.58-7.84,1.63-11.02.21-3.22-1.41-5.97-4.74-7.86-9.55-.89-2.28-1.53-4.23-1.98-5.92l24.36-9.55ZM3283.32,1848.22c.17.87.59,2.05,1.08,3.3,2.68,6.83,7.96,9.05,14.64,6.42,5.85-2.25,8.27-7.02,5.62-13.77-.65-1.65-1.29-2.85-1.8-3.62l-19.54,7.67Z" style="stroke-width:0px;"></path><path d="M3305.76,1878.75l-3.77-9.62-8.93,3.5,4.21,10.73-2.68,1.05-5.46-13.92,24.76-9.71,5.24,13.37-2.68,1.05-3.99-10.18-7.82,3.07,3.77,9.62-2.65,1.04Z" style="stroke-width:0px;"></path><path d="M3218.31,1746.4c-8.52,3.34-15.07-.07-17.55-6.38-2.56-6.54.7-13.12,8.2-16.06,7.86-3.08,14.92-.21,17.51,6.4,2.65,6.76-.81,13.16-8.16,16.04ZM3210.38,1727.35c-5.29,2.08-8.9,6.8-6.93,11.83,1.99,5.07,7.78,6.1,13.4,3.9,4.92-1.93,9.06-6.52,6.97-11.84-2.07-5.29-8-6.02-13.43-3.89Z" style="stroke-width:0px;"></path><path d="M3214.9,1772.49c-1.05-.95-2.6-3.05-3.78-6.06-2.74-6.98-.35-13.98,7.76-17.16,7.75-3.04,15.06.15,18.08,7.83,1.21,3.09,1.31,5.29,1.2,6.31l-2.91.25c.11-1.44-.12-3.34-.93-5.4-2.28-5.8-7.5-8.21-14-5.66-6.06,2.38-8.59,7.39-6.22,13.42.76,1.95,1.95,3.77,3.07,4.81l-2.27,1.66Z" style="stroke-width:0px;"></path><path d="M3222.95,1793.03c-1.05-.95-2.59-3.05-3.78-6.06-2.74-6.98-.35-13.98,7.77-17.16,7.75-3.04,15.06.15,18.08,7.83,1.21,3.09,1.31,5.29,1.2,6.31l-2.91.25c.11-1.44-.12-3.34-.93-5.4-2.28-5.8-7.5-8.21-14-5.66-6.06,2.38-8.59,7.39-6.22,13.42.76,1.95,1.95,3.77,3.07,4.81l-2.28,1.66Z" style="stroke-width:0px;"></path><path d="M3249.72,1790.83l-24.76,9.71-1.25-3.2,24.76-9.71,1.25,3.2Z" style="stroke-width:0px;"></path><path d="M3251.58,1796.54c1.06,1.83,2.19,4.06,3.18,6.59,1.8,4.59,2.02,8.28.85,11.24-1.16,3-3.52,5.41-7.52,6.98-4.04,1.58-7.84,1.63-11.02.21-3.22-1.41-5.97-4.74-7.86-9.55-.89-2.28-1.53-4.23-1.98-5.92l24.36-9.55ZM3230.94,1808.33c.17.87.59,2.05,1.08,3.3,2.68,6.83,7.96,9.04,14.64,6.42,5.85-2.26,8.27-7.02,5.62-13.78-.65-1.65-1.28-2.84-1.8-3.62l-19.54,7.66Z" style="stroke-width:0px;"></path><path d="M3253.38,1838.85l-3.78-9.62-8.93,3.5,4.21,10.73-2.68,1.05-5.46-13.92,24.76-9.71,5.24,13.37-2.68,1.05-3.99-10.18-7.82,3.07,3.77,9.62-2.64,1.04Z" style="stroke-width:0px;"></path><path d="M3243.83,1848.66l24.76-9.71,1.37,3.49-9.42,12.85c-2.18,2.98-4.23,5.43-6.3,7.6l.07.06c3.19-1.59,6.17-2.85,10.03-4.36l10.36-4.06,1.18,3.01-24.76,9.71-1.27-3.23,9.48-12.79c2.08-2.81,4.26-5.57,6.45-7.87l-.08-.1c-3.05,1.41-6,2.65-10.11,4.26l-10.58,4.15-1.18-3.01Z" style="stroke-width:0px;"></path><path d="M3277.2,1868.89l-2.95-7.53,2.72-1.07,7.19,18.33-2.72,1.07-2.97-7.57-22.04,8.64-1.27-3.23,22.04-8.64Z" style="stroke-width:0px;"></path><path d="M3277.11,1899.35l-3.77-9.62-8.93,3.5,4.21,10.73-2.68,1.05-5.46-13.92,24.76-9.71,5.24,13.37-2.68,1.05-3.99-10.18-7.82,3.07,3.77,9.62-2.65,1.04Z" style="stroke-width:0px;"></path></g></svg>