<svg id="main" xmlns="http://www.w3.org/2000/svg" xmlns:xlink="http://www.w3.org/1999/xlink" viewBox="0 0 660.36 491.3"><defs><clipPath id="clippath"><path d="m461.1,473.4l4,12.2c-10.6.1-22.4,0-34.4-.2-38.8-.7-76.7-2.5-78.7-2.6l-4-12.2c2,.1,39.9,2,78.7,2.6,12,.3,23.8.3,34.4.2Z" style="fill:none;"></path></clipPath><clipPath id="clippath-1"><path d="m652.6,371.5l4,12.2c2.5,7.4,4.1,16.5,3.7,26.3-.6,12.1-6.5,26.1-9.1,30.9s-7.9,13.5-17,20.5c-9,7-18.7,13.5-19.2,13.8l-4-12.2c.5-.3,10.2-6.8,19.2-13.8,9.1-7,14.4-15.7,17-20.5s8.5-18.8,9.1-30.9c.5-9.8-1.3-18.9-3.7-26.3Z" style="fill:none;"></path></clipPath><clipPath id="clippath-2"><path d="m42.5,373l-4-12.2c2.6,7.8,6.9,16.7,12.6,28,7.7,15.2,16.2,24.7,16.7,25.2l4,12.2c-.4-.5-9-10-16.7-25.2-5.7-11.3-10-20.2-12.6-28Z" style="fill:none;"></path></clipPath><clipPath id="clippath-3"><path d="m485,410.7l4,12.2c-2.3,9.1-8.4,16.6-12.8,20.8-4.4,4.3-12.2,7.5-12.6,7.7l-4-12.2c.4-.2,8.3-3.5,12.7-7.7,4.3-4.2,10.4-11.7,12.7-20.8h0Z" style="fill:none;"></path></clipPath><clipPath id="clippath-4"><path d="m390.2,192.9l4,12.2c-.2.3-3.9,6.7-4.2,10.3l-4-12.2c.3-3.7,4-10,4.2-10.3Z" style="fill:none;"></path></clipPath></defs><g id="base-first"><polygon points="460.7 190 464.7 202.2 408.9 203.5 404.9 191.4 460.7 190" style="fill:#60605b;"></polygon><polygon points="404.9 191.4 408.9 203.5 395.5 228.2 391.5 216 404.9 191.4" style="fill:#71716b;"></polygon><polygon points="529.9 212.7 533.9 224.9 464.7 202.2 460.7 190 529.9 212.7" style="fill:#60605b;"></polygon><polygon points="561 219.2 565 231.4 533.9 224.9 529.9 212.7 561 219.2" style="fill:#60605b;"></polygon><polygon points="573.1 218.8 577.1 231 565 231.4 561 219.2 573.1 218.8" style="fill:#60605b;"></polygon><polygon points="64.3 438.6 68.3 450.7 4 358.9 0 346.8 64.3 438.6" style="fill:#60605b;"></polygon><polygon points="79.7 479.1 83.7 491.3 68.3 450.7 64.3 438.6 79.7 479.1" style="fill:#60605b;"></polygon><polygon points="494.9 324.9 498.9 337.1 499.8 364.8 495.8 352.6 494.9 324.9" style="fill:#777771;"></polygon><polygon points="265.9 472.5 269.9 484.7 83.7 491.3 79.7 479.1 265.9 472.5" style="fill:#60605b;"></polygon><polygon points="536.9 343 540.9 355.1 545.8 408.9 541.8 396.7 536.9 343" style="fill:#777771;"></polygon><polygon points="348 470.6 352.1 482.8 269.9 484.7 265.9 472.5 348 470.6" style="fill:#60605b;"></polygon><g style="clip-path:url(#clippath);"><path d="m461.1,473.4l4,12.2c-10.6.1-22.4,0-34.4-.2-38.8-.7-76.7-2.5-78.7-2.6l-4-12.2c2,.1,39.9,2,78.7,2.6,12,.3,23.8.3,34.4.2" style="fill:#63635e;"></path></g><polygon points="573.7 472.1 577.7 484.2 465.1 485.6 461.1 473.4 573.7 472.1" style="fill:#60605b;"></polygon><g style="clip-path:url(#clippath-1);"><path d="m652.6,371.5l4,12.2c2.5,7.4,4.1,16.5,3.7,26.3-.1,1.3-.2,2.6-.4,3.9l-4-12.2c.2-1.3.3-2.6.4-3.9.5-9.8-1.3-18.9-3.7-26.3" style="fill:#767670;"></path><path d="m655.9,401.7l4,12.2c-.8,5.9-2.5,12-4.4,17l-4-12.2c1.9-5,3.6-11.1,4.4-17" style="fill:#73736d;"></path><path d="m651.5,418.7l4,12.2c-1.6,4.4-3.3,8-4.4,10.1-.4.7-.8,1.4-1.2,2.2l-4-12.2c.5-.8.9-1.5,1.2-2.2,1.2-2.1,2.8-5.7,4.4-10.1" style="fill:#6f6f69;"></path><path d="m645.9,431l4,12.2c-1.6,2.8-3.9,6.3-7,10l-4-12.2c3.1-3.7,5.4-7.3,7-10" style="fill:#6b6b65;"></path><path d="m638.9,440.9l4,12.2c-2.3,2.7-5.1,5.5-8.3,8.1l-4-12.2c3.2-2.6,6-5.4,8.3-8.1" style="fill:#676762;"></path><path d="m630.6,449l4,12.2c-.1.1-.2.2-.4.3-9,7-18.7,13.5-19.2,13.8l-4-12.2c.5-.3,10.2-6.8,19.2-13.8.1-.1.3-.2.4-.3" style="fill:#63635e;"></path></g><polygon points="611 463.1 615 475.2 601.3 480.3 597.3 468.1 611 463.1" style="fill:#62625d;"></polygon><polygon points="597.3 468.1 601.3 480.3 601.2 482.7 597.2 470.5 597.3 468.1" style="fill:#777771;"></polygon><path d="m460.2,2.5l11.4,20.3,101.5,196-12.1.4-31-6.5-69.2-22.8-55.8,1.4-13.4,24.7,103.4,108.8,1,27.8,9.2.3,32-10,4.9,53.7,55.2-16v-43.5l31.1-10.1c8.8,10.4,19.3,31.3,22.6,39.4,3.4,8.1,6.1,19.2,5.5,31.3s-6.5,26.1-9.1,30.9-7.9,13.5-17,20.5c-9,7-18.7,13.4-19.2,13.8l-13.7,5.1-.1,2.4-23.5,1.6-112.6,1.3c-10.6.1-22.4,0-34.4-.2-38.8-.7-76.7-2.5-78.7-2.6l-82.2,1.9-186.2,6.7-15.4-40.6L0,346.8l2.4-4.6,44-19.9c-.1-.7-1.1-14.1-9.1-53.2s-19.8-103.2-20.4-106.6l139-28.6,187.6-79.5c45.7-19.3,113.1-50.2,116.7-51.9h0Z" style="fill:#a9a9a0;"></path><polygon points="597.2 470.5 601.2 482.7 577.7 484.2 573.7 472.1 597.2 470.5" style="fill:#60605b;"></polygon><polygon points="340.1 55.6 344.1 67.8 340.8 59.6 336.8 47.4 340.1 55.6" style="fill:#00151b;"></polygon><polygon points="467.7 35.9 471.7 48 467.6 49.7 463.6 37.5 467.7 35.9" style="fill:#00151b;"></polygon><polygon points="473.5 60.6 477.6 72.8 468.9 76.5 464.9 64.3 473.5 60.6" style="fill:#00151b;"></polygon><polygon points="361.9 121.5 365.9 133.6 338.3 70.2 334.3 58 361.9 121.5" style="fill:#00151b;"></polygon><polygon points="396.1 105.9 400.1 118.1 365.9 133.6 361.9 121.5 396.1 105.9" style="fill:#00151b;"></polygon><polygon points="417.3 145.2 421.3 157.3 418 158.9 414 146.7 417.3 145.2" style="fill:#00151b;"></polygon><polygon points="414 146.7 418 158.9 400.1 118.1 396.1 105.9 414 146.7" style="fill:#00151b;"></polygon><polygon points="425.2 148 429.3 160.2 421.3 157.3 417.3 145.2 425.2 148" style="fill:#00151b;"></polygon><polygon points="439.5 141.9 443.5 154.1 429.3 160.2 425.2 148 439.5 141.9" style="fill:#00151b;"></polygon><polygon points="523.4 161.6 527.4 173.8 515.2 179.3 511.2 167.1 523.4 161.6" style="fill:#00151b;"></polygon><polygon points="511.2 167.1 515.2 179.3 443.5 154.1 439.5 141.9 511.2 167.1" style="fill:#00151b;"></polygon><polygon points="397.2 122 401.2 134.2 392.7 138.3 388.7 126.1 397.2 122" style="fill:#6d6d68;"></polygon><polygon points="388.7 126.1 392.7 138.3 387 125.3 382.9 113.2 388.7 126.1" style="fill:#6a6a64;"></polygon><polygon points="110.7 140.7 114.7 152.9 114.1 169.9 110.1 157.7 110.7 140.7" style="fill:#83837c;"></polygon><polygon points="110.1 157.7 114.1 169.9 100.6 169.6 96.6 157.5 110.1 157.7" style="fill:#6a6a64;"></polygon><polygon points="149.5 150 153.5 162.2 147.1 165 143.1 152.8 149.5 150" style="fill:#6d6d67;"></polygon><polygon points="143.1 152.8 147.1 165 139.7 164.8 135.7 152.7 143.1 152.8" style="fill:#6a6a64;"></polygon><polygon points="241.6 428.2 245.7 440.4 245.2 458 241.2 445.8 241.6 428.2" style="fill:#83837c;"></polygon><polygon points="241.2 445.8 245.2 458 220.1 458.1 216.1 446 241.2 445.8" style="fill:#6a6a64;"></polygon><polygon points="241.6 428.2 241.2 445.8 216.1 446 216.4 428.3 241.6 428.2" style="fill:#bbbbb1;"></polygon><polygon points="252.6 428.2 256.6 440.3 256.4 457.7 252.4 445.6 252.6 428.2" style="fill:#83837c;"></polygon><polygon points="252.4 445.6 256.4 457.7 245.3 458 241.3 445.8 252.4 445.6" style="fill:#6a6a64;"></polygon><polygon points="252.6 428.2 252.4 445.6 241.3 445.8 241.7 428.2 252.6 428.2" style="fill:#bbbbb1;"></polygon><polygon points="263.7 428 267.7 440.2 267.3 457.6 263.3 445.5 263.7 428" style="fill:#83837c;"></polygon><polygon points="263.3 445.5 267.3 457.6 256.5 457.7 252.5 445.6 263.3 445.5" style="fill:#6a6a64;"></polygon><polygon points="263.7 428 263.3 445.5 252.5 445.6 252.7 428.1 263.7 428" style="fill:#bbbbb1;"></polygon><polygon points="274.7 428.1 278.7 440.2 278.4 457.9 274.4 445.7 274.7 428.1" style="fill:#83837c;"></polygon><polygon points="274.4 445.7 278.4 457.9 267.4 457.7 263.4 445.5 274.4 445.7" style="fill:#6a6a64;"></polygon><polygon points="274.7 428.1 274.4 445.7 263.4 445.5 263.7 428 274.7 428.1" style="fill:#bbbbb1;"></polygon><polygon points="274.5 362.3 278.5 374.5 277.9 389 273.9 376.8 274.5 362.3" style="fill:#83837c;"></polygon><polygon points="273.9 376.8 277.9 389 251.9 389 247.9 376.8 273.9 376.8" style="fill:#6a6a64;"></polygon><polygon points="245.4 332 249.4 344.1 231.9 344.1 227.9 332 245.4 332" style="fill:#6a6a64;"></polygon><polygon points="236 309.8 245.4 332 227.9 332 228.7 309.7 236 309.8" style="fill:#bbbbb1;"></polygon><polygon points="273.1 334.6 277.1 346.7 267.5 325 263.5 312.8 273.1 334.6" style="fill:#6a6a64;"></polygon><polygon points="291.4 334.4 295.4 346.6 277.1 346.7 273.1 334.6 291.4 334.4" style="fill:#6a6a64;"></polygon><polygon points="291.6 328.6 295.6 340.8 295.4 346.6 291.4 334.4 291.6 328.6" style="fill:#83837c;"></polygon><polygon points="281.3 305.1 291.6 328.6 291.4 334.4 273.1 334.6 263.5 312.8 281.3 305.1" style="fill:#bbbbb1;"></polygon><polygon points="51.7 347.9 55.8 360.1 55.9 378.7 51.9 366.5 51.7 347.9" style="fill:#83837d;"></polygon><polygon points="68.3 366.8 72.3 379 71.9 426.3 67.8 414.1 68.3 366.8" style="fill:#83837d;"></polygon><g style="clip-path:url(#clippath-2);"><path d="m67.8,414.1l4,12.2c-.4-.5-9-10-16.7-25.2-5.7-11.4-10.1-20.2-12.6-28l-4-12.2c2.6,7.8,6.9,16.7,12.6,28,7.7,15.2,16.3,24.7,16.7,25.2" style="fill:#6e6e68;"></path></g><path d="m35.6,334.6l3.7,6.6,7.9-3.1,3.3,9.8h1.3l.2,18.6,16.4.3-.5,47.3c-.4-.5-9-10-16.7-25.2s-12.8-26-14.6-35.7c-1.8-9.7-2.1-17.6-2.1-18l1.1-.6h0Z" style="fill:#bbbbb1;"></path><polygon points="60 313.8 64 326 63.3 343.7 59.3 331.6 60 313.8" style="fill:#83837c;"></polygon><polygon points="59.3 331.6 63.3 343.7 54.8 347.2 50.7 335 59.3 331.6" style="fill:#6c6c67;"></polygon><polygon points="50.7 335 54.8 347.2 51.2 339.2 47.2 327 50.7 335" style="fill:#6a6a64;"></polygon><polygon points="60 313.8 59.3 331.6 50.7 335 47.2 327 45.4 313.6 60 313.8" style="fill:#bbbbb1;"></polygon><polygon points="41.3 234.4 45.3 246.6 43.2 301.1 39.1 288.9 41.3 234.4" style="fill:#83837c;"></polygon><polygon points="41.3 234.4 39.1 288.9 29.1 234.2 41.3 234.4" style="fill:#bbbbb1;"></polygon><polygon points="27.3 181.2 31.3 193.4 31.5 217.4 27.5 205.3 27.3 181.2" style="fill:#83837d;"></polygon><polygon points="27.5 205.3 31.5 217.4 25.2 217.3 21.2 205.2 27.5 205.3" style="fill:#6a6a64;"></polygon><polygon points="27.3 181.2 27.5 205.3 21.2 205.2 15.8 181 27.3 181.2" style="fill:#bbbbb1;"></polygon><polygon points="37.9 158.1 41.9 170.3 44.6 182.6 40.6 170.4 37.9 158.1" style="fill:#83837c;"></polygon><polygon points="40.6 170.4 44.6 182.6 37.1 181.8 33.1 169.6 40.6 170.4" style="fill:#6a6a64;"></polygon><polygon points="37.9 158.1 40.6 170.4 33.1 169.6 30.6 159.1 37.9 158.1" style="fill:#bbbbb1;"></polygon><polygon points="315.7 66.5 319.7 78.7 315.9 68.8 311.9 56.6 315.7 66.5" style="fill:#6a6a64;"></polygon><polygon points="317.6 87.6 321.7 99.8 312 103.7 308 91.5 317.6 87.6" style="fill:#6c6c67;"></polygon><polygon points="308 91.5 312 103.7 303.8 84.7 299.8 72.5 308 91.5" style="fill:#6a6a64;"></polygon><polygon points="326.7 109 330.7 121.2 321.7 99.8 317.6 87.6 326.7 109" style="fill:#6a6a64;"></polygon><polygon points="339.3 103.3 343.3 115.5 330.7 121.2 326.7 109 339.3 103.3" style="fill:#6d6d67;"></polygon><polygon points="318.2 54 339.3 103.3 326.7 109 317.6 87.6 308 91.5 299.8 72.5 315.7 66.5 311.9 56.6 318.2 54" style="fill:#bbbbb1;"></polygon><polygon points="490.3 315.9 494.3 328.1 482.7 332.5 478.7 320.3 490.3 315.9" style="fill:#6c6c66;"></polygon><polygon points="464.1 340 468.1 352.2 445 298.5 440.9 286.3 464.1 340" style="fill:#6a6a64;"></polygon><polygon points="478.9 340.3 482.9 352.4 468.1 352.2 464.1 340 478.9 340.3" style="fill:#6a6a64;"></polygon><polygon points="478.7 320.3 482.7 332.5 482.9 352.4 478.9 340.3 478.7 320.3" style="fill:#83837d;"></polygon><path d="m440.9,286.3c0,.1.8,1.6,10,3.8,9.2,2.1,15.4,4.1,21.4,8.5,6.1,4.4,17.3,16.6,17.9,17.3l-11.6,4.4.2,20-14.8-.3-23.1-53.7h0Z" style="fill:#bbbbb1;"></path><polygon points="486.3 378.3 490.3 390.4 489 422.9 485 410.7 486.3 378.3" style="fill:#83837c;"></polygon><g style="clip-path:url(#clippath-3);"><path d="m485,410.7l4,12.2c-.3,1.2-.6,2.3-1,3.4l-4-12.2c.3-1.1.7-2.2,1-3.4" style="fill:#7f7f78;"></path><path d="m484,414.1l4,12.2c-.8,2.3-1.9,4.5-3.1,6.5l-4-12.2c1.1-2,2.2-4.2,3.1-6.5" style="fill:#7a7a74;"></path><path d="m480.9,420.6l4,12.2c-1.6,2.7-3.4,5.1-5.1,7.2l-4-12.2c1.7-2.1,3.5-4.5,5.1-7.2" style="fill:#767670;"></path><path d="m475.8,427.8l4,12.2c-1.2,1.4-2.4,2.7-3.5,3.8-.5.5-1.1,1-1.7,1.5l-4-12.2c.6-.5,1.2-1,1.7-1.5,1-1.1,2.2-2.4,3.5-3.8" style="fill:#72726c;"></path><path d="m470.5,433.1l4,12.2c-4.4,3.5-10.5,6-10.9,6.2l-4-12.2c.3-.2,6.4-2.7,10.9-6.2" style="fill:#6e6e68;"></path></g><path d="m486.3,378.3l-1.3,32.4c-2.3,9.1-8.4,16.6-12.8,20.8-4.4,4.3-12.2,7.5-12.6,7.7l.1-61.4,26.6.5h0Z" style="fill:#bbbbb1;"></path><polygon points="483.8 418.5 487.8 430.7 487.5 471.9 483.5 459.7 483.8 418.5" style="fill:#83837d;"></polygon><polygon points="483.5 459.7 487.5 471.9 463.2 472.1 459.2 459.9 483.5 459.7" style="fill:#6a6a64;"></polygon><path d="m483.8,418.5l-.3,41.2-24.3.2v-19.6c.4-.2,7.8-3.4,12.1-7,4.2-3.5,10.4-10.3,12.5-14.8h0Z" style="fill:#bbbbb1;"></path><polygon points="526.9 352 530.9 364.2 519 363.8 515 351.7 526.9 352" style="fill:#6a6a64;"></polygon><polygon points="534.5 337.7 538.5 349.8 539.1 362.6 535.1 350.4 534.5 337.7" style="fill:#83837d;"></polygon><polygon points="538 373 542 385.2 530.5 385.8 526.5 373.6 538 373" style="fill:#6a6a64;"></polygon><polygon points="536.2 350.4 540.3 362.6 542 385.2 538 373 536.2 350.4" style="fill:#83837d;"></polygon><polygon points="534.5 337.7 535.1 350.4 536.2 350.4 538 373 526.5 373.6 526.9 352 515 351.7 515.3 343.2 534.5 337.7" style="fill:#bbbbb1;"></polygon><polygon points="388.7 126.1 392.7 138.3 375.6 146.1 371.5 133.9 388.7 126.1" style="fill:#6d6d67;"></polygon><polygon points="371.5 133.9 375.6 146.1 369.7 133.2 365.7 121 371.5 133.9" style="fill:#6a6a64;"></polygon><polygon points="371.5 133.9 375.5 146.1 366.9 150 362.8 137.8 371.5 133.9" style="fill:#6d6d67;"></polygon><polygon points="362.8 137.8 366.9 150 361.2 136.8 357.2 124.7 362.8 137.8" style="fill:#6a6a64;"></polygon><polygon points="362.8 137.8 366.8 150 358.2 153.8 354.2 141.6 362.8 137.8" style="fill:#6d6d67;"></polygon><polygon points="354.2 141.6 358.2 153.8 352.8 140.5 348.8 128.3 354.2 141.6" style="fill:#6a6a64;"></polygon><polygon points="354.2 141.6 358.2 153.8 349.1 157.6 345.1 145.5 354.2 141.6" style="fill:#6d6d67;"></polygon><polygon points="345.1 145.5 349.1 157.6 343.4 144.5 339.4 132.3 345.1 145.5" style="fill:#6a6a64;"></polygon><polygon points="348.8 128.4 354.2 141.6 345.1 145.5 339.4 132.3 348.8 128.4" style="fill:#bbbbb1;"></polygon><polygon points="389.5 164.9 393.5 177.1 387.5 179.6 383.5 167.5 389.5 164.9" style="fill:#62625d;"></polygon><polygon points="383.5 167.5 387.5 179.6 384.4 173.9 380.3 161.7 383.5 167.5" style="fill:#60605b;"></polygon><polygon points="371.7 173.1 375.7 185.2 370.5 187.6 366.5 175.5 371.7 173.1" style="fill:#63635e;"></polygon><polygon points="366.5 175.5 370.5 187.6 368 181.9 363.9 169.7 366.5 175.5" style="fill:#60605b;"></polygon><polygon points="400 175.4 404 187.6 394.2 205 390.2 192.9 400 175.4" style="fill:#7c7c76;"></polygon><g style="clip-path:url(#clippath-4);"><path d="m390.2,192.9l4,12.2c-.1.2-2.2,3.8-3.5,7.1l-4-12.2c1.3-3.3,3.4-6.9,3.5-7.1" style="fill:#7a7a74;"></path><path d="m386.8,200l4,12.2c-.4,1-.7,2-.8,2.9l-4-12.2c.1-.9.4-1.9.8-2.9" style="fill:#7f7f78;"></path><path d="m386,202.9l4,12.2v.2l-4-12.2v-.2" style="fill:#83837c;"></path></g><polygon points="386 203.1 390 215.3 379.7 195 375.6 182.8 386 203.1" style="fill:#6a6a64;"></polygon><path d="m397.6,172l2.4,3.4-9.8,17.5c-.2.3-3.9,6.7-4.2,10.3l-10.3-20.3,21.9-10.9h0Z" style="fill:#bbbbb1;"></path></g><g id="landmarks-large-first"><polygon id="supermercadolacolonia-e2" points="444.3 0 454.7 22.6 460.7 19.8 467.7 35.9 463.6 37.5 473.5 60.6 464.9 64.3 492.5 128.5 509.1 129.4 523.4 161.6 511.2 167.1 439.5 141.9 425.2 148 417.3 145.2 414 146.7 396.1 105.9 361.9 121.5 334.3 58 340.1 55.6 336.8 47.4 444.3 0" style="fill:#00242f;"></polygon></g><g id="landmarks-small-first"><polygon id="clinicamedicageneral-e2" points="110.7 140.7 110.1 157.7 96.6 157.5 97.1 143.5 110.7 140.7" style="fill:#bbbbb1;" class="mapplic-clickable"></polygon><polygon id="clinicamedicagmc-e2" points="142.2 133.3 149.5 150 143.1 152.8 135.7 152.7 135.6 134.7 142.2 133.3" style="fill:#bbbbb1;"></polygon><polygon id="madejastextiles-e2" points="357.1 124.7 362.8 137.8 354.2 141.6 348.8 128.3 357.1 124.7" style="fill:#bbbbb1;" class="mapplic-clickable"></polygon><polygon id="tipicossouvenir-e2" points="365.7 121.1 371.5 133.9 362.8 137.8 357.2 124.7 365.7 121.1" style="fill:#bbbbb1;"></polygon><polygon id="partyandgift-e2" points="382.9 113.2 388.7 126.1 371.5 133.9 365.7 121 382.9 113.2" style="fill:#bbbbb1;" class="mapplic-clickable"></polygon><polygon id="basilio-e2" points="391.6 109.2 397.2 122 388.7 126.1 382.9 113.2 391.6 109.2" style="fill:#bbbbb1;" class="mapplic-clickable"></polygon><polygon id="cablecolor-e2" points="368.9 167.4 371.7 173.1 366.5 175.5 363.9 169.7 368.9 167.4" style="fill:#a9a9a0;" class="mapplic-clickable"></polygon><polygon id="saladebellezaesther-e2" points="386.2 159 389.5 164.9 383.5 167.5 380.3 161.7 386.2 159" style="fill:#a9a9a0;" class="mapplic-clickable"></polygon><polygon id="cstladylee-e2" points="274.5 362.3 273.9 376.8 247.9 376.8 248.2 362.5 274.5 362.3" style="fill:#bbbbb1;" class="mapplic-clickable"></polygon></g><g id="routes"><polyline points="451 11.2 454 9.9 455.5 13.3" style="fill:none; stroke:#231f20; stroke-miterlimit:10; stroke-width:.75px;"></polyline><line id="p-cstladylee-e2" x1="267.3" y1="406.41" x2="267.3" y2="390.7" style="fill:none; stroke:#231f20; stroke-miterlimit:10;"></line><line x1="121.13" y1="155.3" x2="127.88" y2="155.3" style="fill:none; stroke:#231f20; stroke-miterlimit:10;"></line><line x1="127.88" y1="150.8" x2="127.88" y2="155.3" style="fill:none; stroke:#231f20; stroke-miterlimit:10;"></line><line id="p-clinicamedicageneral-e2" x1="132.87" y1="150.6" x2="127.88" y2="150.8" style="fill:none; stroke:#231f20; stroke-miterlimit:10;"></line><line id="pf-escaleranorte-e2" x1="127.88" y1="158.85" x2="127.88" y2="155.3" style="fill:none; stroke:#231f20; stroke-miterlimit:10;"></line><line x1="365.2" y1="164.9" x2="381.68" y2="157.99" style="fill:none; stroke:#231f20; stroke-miterlimit:10; stroke-width:.75px;"></line><line x1="386.5" y1="155.9" x2="381.68" y2="157.99" style="fill:none; stroke:#231f20; stroke-miterlimit:10; stroke-width:.75px;"></line><line x1="383.54" y1="150" x2="386.5" y2="155.9" style="fill:none; stroke:#231f20; stroke-miterlimit:10; stroke-width:.75px;"></line><line x1="364.75" y1="157.1" x2="374.9" y2="152.3" style="fill:none; stroke:#231f20; stroke-miterlimit:10; stroke-width:.75px;"></line><line x1="383.54" y1="150" x2="374.9" y2="152.3" style="fill:none; stroke:#231f20; stroke-miterlimit:10; stroke-width:.75px;"></line><line x1="397.6" y1="140.63" x2="383.54" y2="150" style="fill:none; stroke:#231f20; stroke-miterlimit:10; stroke-width:.75px;"></line><line id="p-madejastextiles-e2" x1="363.3" y1="154.4" x2="364.75" y2="157.1" style="fill:none; stroke:#231f20; stroke-miterlimit:10; stroke-width:.75px;"></line><line id="p-tipicossouvenir-e2" x1="373.8" y1="149.37" x2="374.9" y2="152.3" style="fill:none; stroke:#231f20; stroke-miterlimit:10; stroke-width:.75px;"></line><line id="p-partyandgift-e2" x1="382.5" y1="145.8" x2="383.54" y2="150" style="fill:none; stroke:#231f20; stroke-miterlimit:10; stroke-width:.75px;"></line><line id="p-basilio-e2" x1="396.6" y1="138.3" x2="397.6" y2="140.63" style="fill:none; stroke:#231f20; stroke-miterlimit:10; stroke-width:.75px;"></line><line id="p-cablecolor-e2" x1="366.3" y1="167.1" x2="365.2" y2="164.9" style="fill:none; stroke:#231f20; stroke-miterlimit:10; stroke-width:.75px;"></line><line id="p-saladebellezaesther-e2" x1="382.8" y1="159.56" x2="381.68" y2="157.99" style="fill:none; stroke:#231f20; stroke-miterlimit:10; stroke-width:.75px;"></line><line id="pf-escaleraeste-e2" x1="389.5" y1="156.4" x2="386.5" y2="155.9" style="fill:none; stroke:#231f20; stroke-miterlimit:10; stroke-width:.75px;"></line><line id="p-supermercadolacolonia-e2" x1="404.62" y1="139.68" x2="397.6" y2="140.63" style="fill:none; stroke:#231f20; stroke-miterlimit:10; stroke-width:.75px;"></line></g><g id="nopointer-logos"><path d="m354.8,128.9c.2-.1.4-.2.5-.3h0c-.2,0-.4.1-.6.1l-.6.1-.1-.2.5-.4c.1-.1.3-.2.5-.4h0c-.2.1-.4.2-.6.2l-.5.2-.1-.3,1.4-.5.2.4-.4.4c-.1.1-.3.2-.4.3h0c.2,0,.4-.1.5-.1l.5-.1.2.4-1.3.7-.1-.3.4-.2Z" style="fill:#231f20;"></path><path d="m355.1,129.8l-.4.1-.1-.3,1.5-.2.2.4-1.2,1-.1-.3.3-.3-.2-.4h0Zm.3.3l.2-.2c.1-.1.2-.1.2-.2h0c-.1,0-.2,0-.3.1l-.3.1.2.2h0Z" style="fill:#231f20;"></path><path d="m356.5,130.4c.1.1.1.2.2.4.1.3.1.4.1.6s-.2.4-.4.5c-.3.1-.5.1-.6,0-.2-.1-.3-.3-.5-.5-.1-.2-.1-.3-.1-.4l1.3-.6Zm-1,.8v.1c.1.3.4.4.7.2.3-.1.4-.4.2-.6,0-.1-.1-.1-.1-.1l-.8.4h0Z" style="fill:#231f20;"></path><path d="m356.7,132.9l-.2-.5-.3.1.2.6-.2.1-.4-.9,1.4-.6.4.8-.2.1-.2-.5-.3.1.2.5-.4.2h0Z" style="fill:#231f20;"></path><path d="m357.8,133.1l.1.3-.9.4c-.4.2-.6.1-.7-.2,0-.1-.1-.2-.1-.2l.3-.1v.2c.1.1.1.2.4.1l.9-.5h0Z" style="fill:#231f20;"></path><path d="m357.2,134.4l-.4.1-.1-.3,1.5-.2.2.4-1.2,1-.1-.3.3-.3-.2-.4h0Zm.4.3l.2-.2c.1-.1.2-.1.2-.2h0c-.1,0-.2,0-.3.1l-.3.1.2.2h0Z" style="fill:#231f20;"></path><path d="m357.6,135.5c0,.1,0,.2.1.4.1.1.2.2.2.1.1,0,.1-.1.1-.3,0-.3,0-.5.2-.6s.5,0,.6.3c.1.1.1.3.1.4h-.3c0-.1,0-.2-.1-.3s-.1-.2-.2-.1c-.1,0-.1.1-.1.3,0,.3,0,.4-.2.5s-.5,0-.7-.4c-.1-.1-.1-.3-.1-.4l.4.1h0Z" style="fill:#231f20;"></path><path d="m353.4,128.8l-.2-.4.3-.1.5,1-.3.1-.2-.4-1.1.5-.1-.3,1.1-.4h0Z" style="fill:#231f20;"></path><path d="m353.6,130.6l-.2-.5-.3.1.2.6-.2.1-.4-.9,1.4-.6.4.8-.2.1-.2-.5-.3.1.2.5-.4.2h0Z" style="fill:#231f20;"></path><path d="m353.5,131.9l.2-.2c.1-.1.1-.2.2-.2h-.6l-.2-.4.9.1.5-.7.2.4-.2.2c-.07.07-.13.13-.2.2h.6l.2.4-.8-.1-.5.7-.3-.4h0Z" style="fill:#231f20;"></path><path d="m354.9,132.2l-.2-.4.3-.1.5,1-.3.1-.2-.4-1.1.5-.1-.3,1.1-.4h0Z" style="fill:#231f20;"></path><path d="m355.7,133.2l-1.4.6-.1-.3,1.4-.6.1.3h0Z" style="fill:#231f20;"></path><path d="m355.8,133.4l.1.3-1.1.5.2.5-.3.1-.4-.8,1.5-.6h0Z" style="fill:#231f20;"></path><path d="m355.9,135.6l-.2-.5-.3.1.2.6-.2.1-.4-.9,1.4-.6.4.8-.2.1-.2-.5-.3.1.2.5-.4.2h0Z" style="fill:#231f20;"></path><path d="m355.8,136c0,.1,0,.2.1.4.1.1.2.2.2.1.1,0,.1-.1.1-.3,0-.3,0-.5.2-.6s.5,0,.6.3c.1.1.1.3.1.4h-.3c0-.1,0-.2-.1-.3s-.1-.2-.2-.1c-.1,0-.1.1-.1.3,0,.3,0,.4-.2.5s-.5,0-.7-.4c-.1-.1-.1-.3-.1-.4l.4.1h0Z" style="fill:#231f20;"></path><path d="m252.9,370.4c-.1,0-.3.1-.6.1-.8,0-1.2-.5-1.2-1.1,0-.8.5-1.2,1.2-1.2.3,0,.5,0,.6.1l-.1.4c-.1,0-.2-.1-.4-.1-.4,0-.7.2-.7.8,0,.5.3.8.7.7.2,0,.3,0,.4-.1l.1.4h0Z" style="fill:#231f20;"></path><path d="m253.3,370c.1.1.4.1.6.1s.4-.1.4-.2-.1-.2-.4-.3c-.4-.1-.6-.3-.6-.7s.3-.7.9-.7c.3,0,.5,0,.6.1l-.1.4c-.1,0-.2-.1-.5-.1-.2,0-.3.1-.3.2s.1.2.4.3c.4.1.6.4.6.7,0,.4-.3.7-.9.7-.3,0-.5-.1-.6-.1l-.1-.4h0Z" style="fill:#231f20;"></path><path d="m255.5,368.6h-.6v-.4h1.8v.4h-.7v1.9h-.5v-1.9h0Z" style="fill:#231f20;"></path><path d="m257.6,368.2h.5v1.9h.9v.4h-1.4v-2.3h0Z" style="fill:#231f20;"></path><path d="m259.9,369.9l-.2.6h-.5l.7-2.3h.7l.7,2.3h-.6l-.2-.6h-.6Zm.6-.4l-.1-.5c0-.1-.1-.3-.1-.4h0c0,.1-.1.3-.1.4l-.1.5h.4Z" style="fill:#231f20;"></path><path d="m261.6,368.2h.7c.4,0,.7.1.9.2.2.2.4.5.4.9s-.2.7-.4.9-.6.3-1,.3h-.6v-2.3h0Zm.5,1.9h.2c.5,0,.8-.3.8-.8s-.3-.7-.7-.7h-.2l-.1,1.5h0Z" style="fill:#231f20;"></path><path d="m264.4,370.4v-.9l-.7-1.3h.6l.2.5c.1.2.1.3.2.4h0c0-.1.1-.3.2-.4l.2-.5h.6l-.7,1.3v1l-.6-.1h0Z" style="fill:#231f20;"></path><path d="m266.5,368.2h.5v1.9h.9v.4h-1.4v-2.3h0Z" style="fill:#231f20;"></path><path d="m269.6,369.4h-.8v.5h.9v.4h-1.5v-2.3h1.4v.4h-.9v.5h.8l.1.5h0Z" style="fill:#231f20;"></path><path d="m271.5,369.4h-.8v.5h.9v.4h-1.5v-2.3h1.4v.4h-.9v.5h.8l.1.5h0Z" style="fill:#231f20;"></path><path d="m367.2,170s-.1-.1-.1-.2c-.1-.3,0-.6.3-.7.3-.1.6,0,.7.3,0,.1.1.2.1.3h-.2v-.2c-.1-.2-.2-.3-.5-.2-.2.1-.3.2-.2.4,0,.1.1.1.1.2l-.2.1h0Z" style="fill:#231f20;"></path><path d="m367.6,170.3h-.3l-.1-.2,1.1-.1.1.3-.8.7-.1-.2.2-.2-.1-.3h0Zm.2.1l.2-.1s.1-.1.2-.1h-.4v.2h0Z" style="fill:#231f20;"></path><path d="m368.6,170.7c0,.1.1.2.1.3.1.1.1.2.1.3s0,.2-.1.2-.2,0-.3-.1h0c0,.1,0,.2-.1.3h-.2c-.1-.1-.2-.1-.2-.3,0-.1-.1-.2-.1-.2l.8-.5h0Zm-.7.5s0,.1,0,0c.07.13.13.2.2.2.1,0,.1-.1,0-.2v-.1l-.2.1h0Zm.4-.2h0c.07.13.13.2.2.2.1,0,.1-.1,0-.2v-.1l-.2.1h0Z" style="fill:#231f20;"></path><path d="m369,171.5l.1.2-.8.3.2.4-.2.1-.3-.6,1-.4h0Z" style="fill:#231f20;"></path><path d="m369,173.1l-.1-.4-.2.1.2.4-.2.1-.3-.6,1-.4.3.6-.2.1-.2-.4-.2.1.1.4h-.2,0Z" style="fill:#231f20;"></path><path d="m365.9,170.4s-.1-.1-.1-.2c-.1-.3,0-.6.3-.7.3-.1.6,0,.7.3,0,.1.1.2.1.3h-.2v-.2c-.1-.2-.2-.3-.5-.2-.2.1-.3.2-.2.4,0,.1.1.1.1.2l-.2.1h0Z" style="fill:#231f20;"></path><path d="m366.8,171.2c-.3.1-.6,0-.7-.2-.1-.3,0-.6.3-.7.3-.1.6,0,.7.2s0,.6-.3.7Zm-.3-.7c-.2.1-.3.2-.2.4.1.1.2.2.4.1s.3-.2.2-.4-.2-.2-.4-.1Z" style="fill:#231f20;"></path><path d="m367.3,171.1l.1.2-.8.3.2.4-.2.1-.3-.6,1-.4h0Z" style="fill:#231f20;"></path><path d="m367.5,172.9c-.3.1-.6,0-.7-.2-.1-.3,0-.5.3-.7.3-.1.6,0,.7.2s0,.6-.3.7h0Zm-.3-.7c-.2.1-.3.2-.2.4.1.1.2.2.4.1s.3-.2.2-.4-.2-.2-.4-.1Z" style="fill:#231f20;"></path><path d="m368,172.8c0,.1.1.2.1.3.1.1.1.2.1.3s-.1.1-.2.2c-.1.1-.2,0-.3-.1h0c0,.07-.03.13-.1.2-.1.1-.2.2-.2.2l-.1-.2s.1-.1.2-.2c.07-.07.1-.13.1-.2v-.1l-.4.2-.1-.2.9-.4h0Zm-.3.4h0c.1.2.2.2.2.2.1,0,.1-.1.1-.2v-.1l-.3.1h0Z" style="fill:#231f20;"></path><path d="m384.7,159.8v.3c0,.1.1.1.2.1s.1-.1.1-.2c0-.2,0-.3.2-.4.2-.1.4,0,.5.2,0,.1.1.2.1.3h-.2v-.2c0-.1-.1-.1-.1-.1-.1,0-.1.1-.1.2,0,.2,0,.3-.2.4-.2.1-.4,0-.5-.3,0-.1-.1-.2-.1-.3h.1Z" style="fill:#231f20;"></path><path d="m385.1,160.8h-.3l-.1-.2,1.1-.1.1.3-.8.7-.1-.3.2-.2-.1-.2h0Zm.3.2l.2-.1s.1-.1.2-.1h-.4v.2h0Z" style="fill:#231f20;"></path><path d="m386.2,161.2l.1.2-.8.3.2.4-.2.1-.3-.6,1-.4h0Z" style="fill:#231f20;"></path><path d="m385.9,162.5h-.3l-.1-.2,1.1-.1.1.3-.8.7-.1-.2.2-.2-.1-.3h0Zm.2.1l.2-.1s.1-.1.2-.1h-.4v.2h0Z" style="fill:#231f20;"></path><path d="m387,163.2c0,.1.1.2.1.3.1.2.1.3.1.4s-.1.2-.3.3c-.2.1-.3.1-.5,0-.1-.1-.2-.2-.3-.4,0-.1-.1-.2-.1-.2l1-.4h0Zm-.7.5s0,.1,0,0c.1.3.3.4.5.3.2-.1.2-.2.2-.4v-.1l-.7.2h0Z" style="fill:#231f20;"></path><path d="m387.1,165l-.1-.4-.2.1.2.4-.2.1-.3-.6,1-.4.3.6-.2.1-.2-.4-.2.1.1.4h-.2,0Z" style="fill:#231f20;"></path><path d="m384.1,159.9c0,.1.1.2.1.3.1.1.1.2.1.3s0,.2-.1.2-.2,0-.3-.1h0c0,.1,0,.2-.1.3h-.2c-.1-.1-.2-.1-.2-.3,0-.1-.1-.2-.1-.2l.8-.5h0Zm-.7.6h0c.1.2.1.3.2.2.1,0,.1-.1,0-.2v-.1l-.2.1h0Zm.4-.2h0c.07.13.13.2.2.2.1,0,.1-.1,0-.2v-.1l-.2.1h0Z" style="fill:#231f20;"></path><path d="m384.2,161.6l-.1-.4-.2.1.2.4-.2.1-.3-.6,1-.4.3.6-.2.1-.2-.4-.2.1.1.4h-.2,0Z" style="fill:#231f20;"></path><path d="m384.8,161.6l.1.2-.8.3.2.4-.2.1-.3-.6,1-.4h0Z" style="fill:#231f20;"></path><path d="m385.2,162.3l.1.2-.8.3.2.4-.2.1-.3-.6,1-.4h0Z" style="fill:#231f20;"></path><path d="m385.2,163.8l-.1-.4-.2.1.2.4-.2.1-.3-.6,1-.4.3.6-.2.1-.2-.4-.2.1.1.4h-.2,0Z" style="fill:#231f20;"></path><path d="m384.9,164.1l.9.2h0l-.2-.4.2-.1.3.7-.1.1-.9-.2h0l.2.5-.2.1-.3-.8.1-.1h0Z" style="fill:#231f20;"></path><path d="m385.6,165.1h-.3l-.1-.2,1.1-.1.1.3-.8.7-.1-.2.2-.2-.1-.3h0Zm.2.2l.2-.1s.1-.1.2-.1h-.4v.2h0Z" style="fill:#231f20;"></path><path d="m382.7,161.6l-.1-.4-.2.1.2.4-.2.1-.3-.6,1-.4.3.6-.2.1-.2-.4-.2.1.2.4h-.3,0Z" style="fill:#231f20;"></path><path d="m382.6,161.9v.3c0,.1.1.1.2.1s.1-.1.1-.2c0-.2,0-.3.2-.4.2-.1.4,0,.5.2,0,.1.1.2.1.3h-.2v-.2c0-.1-.1-.1-.1-.1-.1,0-.1.1-.1.2,0,.2,0,.3-.2.4-.2.1-.4,0-.5-.3,0-.1-.1-.2-.1-.3h.1Z" style="fill:#231f20;"></path><path d="m383.6,162.6l-.1-.3.2-.1.3.7-.2.1-.1-.3-.8.3-.1-.2.8-.2h0Z" style="fill:#231f20;"></path><path d="m384.2,163.4l-.4.2.2.4.4-.2.1.2-1,.4-.1-.2.4-.2-.2-.4-.4.2-.1-.2,1-.4.1.2h0Z" style="fill:#231f20;"></path><path d="m384.2,164.9l-.1-.4-.2.1.2.4-.2.1-.3-.6,1-.4.3.6-.2.1-.2-.4-.2.1.1.4h-.2,0Z" style="fill:#231f20;"></path><path d="m384.8,164.9c0,.1.1.2.1.3.1.1.1.2.1.3s-.1.1-.2.2c-.1.1-.2,0-.3-.1h0c0,.07-.03.13-.1.2-.1.1-.2.2-.2.2l-.1-.2s.1-.1.2-.2c.07-.07.1-.13.1-.2v-.1l-.4.2-.1-.2.9-.4h0Zm-.3.4h0c.1.2.2.2.2.2.1,0,.1-.1.1-.2v-.1l-.3.1h0Z" style="fill:#231f20;"></path><path d="m105.3,146.8c0-.1-.1-.2-.1-.4,0-.5.3-.8.7-.8.5,0,.8.4.8.8,0,.2,0,.3-.1.4l-.3-.1c0-.1.1-.2.1-.3,0-.3-.2-.5-.5-.5s-.5.2-.5.5c0,.1,0,.2.1.3l-.2.1h0Z" style="fill:#231f20;"></path><path d="m106.8,147v.3h-1.2v.6h-.3v-.9h1.5Z" style="fill:#231f20;"></path><path d="m106.8,148.5h-1.5v-.3h1.5v.3Zm.3.2l-.3-.3v-.3l.3.2v.4h0Z" style="fill:#231f20;"></path><path d="m105.3,148.8h1.5v.4l-.5.3c-.2.1-.3.2-.5.2h1v.3h-1.5v-.3l.6-.3c.2-.1.4-.2.5-.3h-1l-.1-.3h0Z" style="fill:#231f20;"></path><path d="m106.8,150.6h-1.5v-.3h1.5v.3Z" style="fill:#231f20;"></path><path d="m105.4,152c0-.1-.1-.2-.1-.4,0-.5.3-.8.7-.8.5,0,.8.4.8.8,0,.2,0,.3-.1.4l-.3-.1c0-.1.1-.2.1-.3,0-.3-.2-.5-.5-.5s-.5.2-.5.5c0,.1,0,.2.1.3l-.2.1h0Z" style="fill:#231f20;"></path><path d="m105.7,152.6l-.4-.1v-.4l1.5.4v.4l-1.5.5v-.4l.4-.1v-.3h0Zm.2.4l.3-.1c.1,0,.2-.1.3-.1h0c-.1,0-.2-.1-.3-.1l-.3-.1v.4h0Z" style="fill:#231f20;"></path><path d="m103.9,147h.6c-.2-.1-.4-.1-.6-.2l-.6-.2v-.3l.6-.2c.2-.1.4-.1.6-.1h-1.2v-.3l1.5.1v.4l-.5.1c-.2.1-.4.1-.5.1h0c.2.1.4.1.5.1l.5.1v.4l-1.5.1v-.3l.6.2h0Z" style="fill:#231f20;"></path><path d="m104,148.5v-.5h-.4v.6h-.3v-.9h1.5v.9h-.3v-.6h-.3v.5s-.2,0-.2,0Z" style="fill:#231f20;"></path><path d="m104.8,148.8v.4c0,.3-.1.5-.1.6-.1.2-.3.2-.6.3-.3,0-.5-.1-.6-.2-.1-.1-.2-.4-.2-.7v-.4h1.5,0Zm-1.2.3v.1c0,.3.2.5.5.5s.5-.2.5-.5v-.1h-1Z" style="fill:#231f20;"></path><path d="m104.9,150.6h-1.5v-.3h1.5v.3Z" style="fill:#231f20;"></path><path d="m103.4,152c0-.1-.1-.2-.1-.4,0-.5.3-.8.7-.8.5,0,.8.4.8.8,0,.2,0,.3-.1.4l-.3-.1c0-.1.1-.2.1-.3,0-.3-.2-.5-.5-.5s-.5.2-.5.5c0,.1,0,.2.1.3l-.2.1h0Z" style="fill:#231f20;"></path><path d="m103.8,152.6l-.4-.1v-.4l1.5.4v.4l-1.5.5v-.4l.4-.1v-.3h0Zm.3.4l.3-.1c.1,0,.2-.1.3-.1h0c-.1,0-.2-.1-.3-.1l-.3-.1v.4h0Z" style="fill:#231f20;"></path><path d="m101.5,146.3c0-.1-.1-.3-.1-.5,0-.3.1-.5.2-.6s.3-.2.5-.2c.5,0,.8.4.8.8,0,.2,0,.3-.1.4l-.3-.1c0-.1.1-.2.1-.3,0-.3-.2-.5-.5-.5s-.5.2-.5.5v.2h.3v-.2h.3v.6l-.7-.1h0Z" style="fill:#231f20;"></path><path d="m102.1,147.5v-.5h-.4v.6h-.3v-.9h1.5v.9h-.3v-.6h-.3v.5s-.2,0-.2,0Z" style="fill:#231f20;"></path><path d="m101.5,147.8h1.5v.4l-.5.3c-.2.1-.3.2-.5.2h1v.3h-1.5v-.3l.6-.3c.2-.1.4-.2.5-.3h-1l-.1-.3h0Z" style="fill:#231f20;"></path><path d="m102.1,150.2v-.5h-.4v.6h-.3v-.9h1.5v.9h-.3v-.6h-.3v.5s-.2,0-.2,0Z" style="fill:#231f20;"></path><path d="m102.9,150.5v.4c0,.2,0,.4-.1.5s-.2.1-.3.1c-.2,0-.3-.1-.4-.3h0c0,.1-.1.2-.3.2-.2.1-.4.1-.4.1v-.3s.2-.1.3-.1c.2,0,.2-.1.2-.2v-.1h-.6v-.3h1.6Zm-.6.3v.1c0,.2.1.3.2.3s.2-.1.2-.2v-.1l-.4-.1h0Z" style="fill:#231f20;"></path><path d="m101.9,152.1l-.4-.1v-.4l1.5.4v.4l-1.5.5v-.4l.4-.1v-.3h0Zm.2.4l.3-.1c.1,0,.2-.1.3-.1h0c-.1,0-.2-.1-.3-.1l-.3-.1v.4h0Z" style="fill:#231f20;"></path><path d="m103,153.2v.3h-1.2v.6h-.3v-.9h1.5Z" style="fill:#231f20;"></path><path d="m141.3,141.9c0-.1-.1-.2-.1-.4-.1-.5.1-.8.5-.9.5-.1.9.2,1,.6v.4h-.3v-.3c-.1-.3-.3-.4-.6-.3-.3.1-.4.3-.4.6,0,.1.1.2.1.3h-.2Z" style="fill:#231f20;"></path><path d="m142.8,141.8l.1.3-1.2.3.1.6-.3.1-.2-.9,1.5-.4h0Z" style="fill:#231f20;"></path><path d="m143.1,143.2l-1.4.4-.1-.3,1.4-.4.1.3Zm.4.1l-.3-.2-.1-.3.3.1.1.4h0Z" style="fill:#231f20;"></path><path d="m141.8,143.8l1.4-.4.1.4-.4.4c-.1.1-.3.2-.4.4h0c.2-.1.4-.1.6-.2l.4-.1.1.3-1.4.4-.1-.3.5-.4.4-.4h0c-.2.1-.4.1-.6.2l-.4.1-.2-.4h0Z" style="fill:#231f20;"></path><path d="m143.6,145.2l-1.4.4-.1-.3,1.4-.4.1.3Z" style="fill:#231f20;"></path><path d="m142.6,146.9c0-.1-.1-.2-.1-.4-.1-.5.1-.8.5-.9.5-.1.9.2,1,.6v.4h-.3v-.3c-.1-.3-.3-.4-.6-.3-.3.1-.4.3-.4.6,0,.1.1.2.1.3h-.2Z" style="fill:#231f20;"></path><path d="m143.1,147.4h-.4l-.1-.4,1.6.1.1.4-1.3.8-.1-.4.3-.2-.1-.3h0Zm.3.3l.3-.2c.1-.1.2-.1.3-.1h-.6v.3Z" style="fill:#231f20;"></path><path d="m140,142.4c.2-.1.4-.1.6-.2h-1.2l-.1-.2.5-.3c.2-.1.4-.2.5-.3h0c-.2,0-.4.1-.6.1l-.6.1-.1-.3,1.5-.3.1.4-.4.3c-.2.1-.3.2-.5.2h1.1l.1.4-1.4.4-.1-.3h.6,0Z" style="fill:#231f20;"></path><path d="m140.4,143.8l-.1-.5-.3.1.1.6-.3.1-.2-.9,1.4-.4.2.9-.3.1-.1-.6-.3.1.1.5h-.2,0Z" style="fill:#231f20;"></path><path d="m141.3,143.9c.1.1.1.3.1.4.1.3.1.5,0,.6-.1.2-.2.3-.5.4-.3.1-.5,0-.6-.1-.2-.1-.3-.3-.4-.6,0-.2-.1-.3-.1-.4l1.5-.3h0Zm-1.1.6v.1c.1.3.3.4.6.4.3-.1.4-.3.3-.6,0-.07-.03-.1-.1-.1l-.8.2h0Z" style="fill:#231f20;"></path><path d="m141.8,145.7l-1.4.4-.1-.3,1.4-.4.1.3Z" style="fill:#231f20;"></path><path d="m140.7,147.4c0-.1-.1-.2-.1-.4-.1-.5.1-.8.5-.9.5-.1.9.2,1,.6v.4h-.3v-.3c-.1-.3-.3-.4-.6-.3-.3.1-.4.3-.4.6,0,.1.1.2.1.3h-.2Z" style="fill:#231f20;"></path><path d="m141.2,147.9h-.4l-.1-.4,1.6.1.1.4-1.3.8-.1-.4.3-.2-.1-.3h0Zm.3.3l.3-.2c.1-.1.2-.1.3-.1h-.6v.3Z" style="fill:#231f20;"></path><path d="m138.1,144.6c-.1-.1-.1-.3-.2-.5-.1-.3-.1-.5.1-.6.1-.2.3-.3.5-.3.5-.1.8.2,1,.6.1.2.1.3,0,.4h-.3v-.4c-.1-.3-.3-.4-.6-.4-.3.1-.4.3-.4.6,0,.07.03.13.1.2l.3-.1-.1-.2.2-.1.1.5-.7.3h0Z" style="fill:#231f20;"></path><path d="m138.9,145.9c.2-.1.4-.1.6-.2h-1.2l-.1-.2.5-.3c.2-.1.4-.2.5-.3h0c-.2,0-.4.1-.6.1l-.6.1-.1-.3,1.5-.3.1.4-.4.3c-.2.1-.3.2-.5.2h1.1l.1.4-1.4.4-.1-.3h.6,0Z" style="fill:#231f20;"></path><path d="m138.8,147.7c0-.1-.1-.2-.1-.4-.1-.5.1-.8.5-.9.5-.1.9.2,1,.6v.4h-.3v-.3c-.1-.3-.3-.4-.6-.3-.3.1-.4.3-.4.6,0,.1.1.2.1.3h-.2Z" style="fill:#231f20;"></path><path d="m364.7,124.8l-.2-.4.3-.1.5,1-.3.1-.2-.4-1.1.5-.1-.3,1.1-.4h0Z" style="fill:#231f20;"></path><path d="m365.5,125.8l-1.4.6-.1-.3,1.4-.6.1.3Zm.4,0l-.4-.1-.1-.2.3.1.2.2h0Z" style="fill:#231f20;"></path><path d="m365.5,126c.1.1.1.2.2.4s.1.3.1.5c0,.1-.1.2-.2.3s-.3.1-.4,0-.3-.2-.3-.4v-.1l-.5.2-.1-.3,1.2-.6h0Zm-.4.6v.1c.1.2.2.2.3.2.1-.1.2-.2.1-.3,0-.07-.03-.1-.1-.1,0,0-.3.1-.3.1Z" style="fill:#231f20;"></path><path d="m366.2,127.5l-1.4.6-.1-.3,1.4-.6s.1.3.1.3Z" style="fill:#231f20;"></path><path d="m365.5,129.3s-.1-.2-.2-.3c-.2-.5,0-.8.4-1,.5-.2.9,0,1,.4.1.2.1.3.1.4l-.3.1c0-.1,0-.2-.1-.3-.1-.2-.3-.4-.6-.2-.3.1-.4.4-.2.6,0,.1.1.2.2.2l-.3.1h0Z" style="fill:#231f20;"></path><path d="m366.8,130.4c-.4.2-.8.1-1-.3-.2-.4,0-.8.4-.9.4-.2.8-.1,1,.3.2.4,0,.8-.4.9h0Zm-.5-.9c-.3.1-.4.3-.3.5s.3.2.6.1c.2-.1.4-.3.3-.5,0-.2-.3-.3-.6-.1h0Z" style="fill:#231f20;"></path><path d="m366.5,130.8c0,.1,0,.2.1.4.1.1.2.2.2.1.1,0,.1-.1.1-.3,0-.3,0-.5.2-.6s.5,0,.6.3c.1.1.1.3.1.4h-.3c0-.1,0-.2-.1-.3s-.1-.2-.2-.1c-.1,0-.1.1-.1.3,0,.3,0,.4-.2.5s-.5,0-.7-.4c-.1-.1-.1-.3-.1-.4l.4.1h0Z" style="fill:#231f20;"></path><path d="m361.5,124.5c0,.1,0,.2.1.4.1.1.2.2.2.1.1,0,.1-.1.1-.3,0-.3,0-.5.2-.6s.5,0,.6.3c.1.1.1.3.1.4h-.3c0-.1,0-.2-.1-.3s-.1-.2-.2-.1c-.1,0-.1.1-.1.3,0,.3,0,.4-.2.5s-.5,0-.7-.4c-.1-.1-.1-.3-.1-.4l.4.1h0Z" style="fill:#231f20;"></path><path d="m363,126.6c-.4.2-.8.1-1-.3s0-.8.4-.9c.4-.2.8-.1,1,.3.1.4-.1.7-.4.9h0Zm-.5-.9c-.3.1-.4.3-.3.5s.3.2.6.1c.2-.1.4-.3.3-.5s-.4-.3-.6-.1h0Z" style="fill:#231f20;"></path><path d="m363.8,126.8l-.8.4c-.2.1-.3.2-.2.4.1.2.2.2.5.1l.8-.4.1.3-.8.4c-.4.2-.7.1-.9-.3-.2-.3-.1-.6.4-.8l.8-.3.1.2h0Z" style="fill:#231f20;"></path><path d="m363.1,128.8l1.1-1.1.1.3-.5.4c-.1.1-.3.2-.4.3h0c.2,0,.4-.1.5-.1l.6-.1.1.3-1.5.2v-.2h0Z" style="fill:#231f20;"></path><path d="m364.5,130.3l-.2-.5-.3.1.2.6-.2.1-.4-.9,1.4-.6.4.8-.2.1-.2-.5-.3.1.2.5-.4.2h0Z" style="fill:#231f20;"></path><path d="m364,130.8l1.4-.6.2.4-.4.5c-.1.1-.2.3-.4.4h0c.2-.1.4-.2.5-.3l.4-.2.1.3-1.4.6-.1-.3.4-.5c.1-.1.2-.3.4-.4h0l-.6.3-.4.2-.1-.4h0Z" style="fill:#231f20;"></path><path d="m366.2,131.9l-1.4.6-.1-.3,1.4-.6.1.3Z" style="fill:#231f20;"></path><path d="m366.3,132.2c.1.1.1.2.2.4s.1.4.1.5-.1.2-.2.2c-.2.1-.3,0-.4-.1h0c0,.1-.1.2-.2.3s-.3.2-.3.3l-.1-.3s.1-.1.3-.2c.1-.1.2-.2.1-.3v-.1l-.5.2-.1-.3,1.1-.6h0Zm-.5.5v.1c.1.1.2.2.3.1.1-.1.1-.2.1-.3s-.1-.1-.1-.1l-.3.2h0Z" style="fill:#231f20;"></path><path d="m389.9,114.8c0,.1.1.2.2.4s.1.3.1.4-.1.2-.2.3-.3,0-.4-.1h0c0,.2,0,.3-.2.4-.1.1-.2,0-.4,0-.1-.1-.2-.2-.4-.5-.1-.1-.1-.3-.1-.3l1.4-.6h0Zm-1,.8v.1c.1.1.2.2.3.2.1-.1.1-.2.1-.4v-.1l-.4.2h0Zm.6-.3v.1c.1.2.2.2.3.2.07-.07.1-.17.1-.3s-.03-.17-.1-.1l-.3.1h0Z" style="fill:#231f20;"></path><path d="m389.6,116.8l-.4.1-.1-.3,1.5-.2.2.4-1.2,1-.1-.3.3-.3-.2-.4h0Zm.4.2l.2-.2c.1-.1.2-.1.2-.2h0c-.1,0-.2,0-.3.1l-.3.1.2.2h0Z" style="fill:#231f20;"></path><path d="m390,117.8c0,.1,0,.2.1.4.1.1.2.2.2.1.1,0,.1-.1.1-.3,0-.3,0-.5.2-.6s.5,0,.6.3c.1.1.1.3.1.4h-.3c0-.1,0-.2-.1-.3s-.1-.2-.2-.1c-.1,0-.1.1-.1.3,0,.3,0,.4-.2.5s-.5,0-.7-.4c-.1-.1-.1-.3-.1-.4l.4.1h0Z" style="fill:#231f20;"></path><path d="m391.7,118.7l-1.4.6-.1-.3,1.4-.6.1.3Z" style="fill:#231f20;"></path><path d="m391.8,119l.1.3-1.1.5.2.5-.3.1-.4-.8,1.5-.6h0Z" style="fill:#231f20;"></path><path d="m392.4,120.3l-1.4.6-.1-.3,1.4-.6.1.3Z" style="fill:#231f20;"></path><path d="m392.5,122.1c-.4.2-.8.1-1-.3s0-.8.4-.9c.4-.2.8-.1,1,.3.1.3-.1.7-.4.9h0Zm-.5-1c-.3.1-.4.3-.3.5s.3.2.6.1c.2-.1.4-.3.3-.5s-.3-.2-.6-.1h0Z" style="fill:#231f20;"></path><path d="m374,123.7c.1-.1.2-.1.4-.2s.3-.1.5-.1.2.1.3.2c.1.1.1.3,0,.4s-.2.3-.4.3h-.1l.2.5-.3.1-.6-1.2h0Zm.6.5h.1c.2-.1.2-.2.2-.3-.1-.1-.2-.2-.3-.1-.1,0-.1.1-.1.1l.1.3h0Z" style="fill:#231f20;"></path><path d="m375.8,124.1l.1.4-.3.1-.2-1.5.4-.2,1,1.1-.3.1-.3-.3-.4.3h0Zm.3-.4l-.2-.2c-.1-.1-.1-.2-.2-.2h0c0,.1,0,.2.1.3v.3l.3-.2h0Z" style="fill:#231f20;"></path><path d="m376.4,122.6c.1-.1.2-.1.4-.2s.4-.1.5-.1.2.1.2.2c.1.2,0,.4-.1.4h0c.1,0,.2.1.3.2.1.1.2.3.3.3l-.3.1s-.1-.1-.2-.3c-.1-.1-.2-.2-.3-.1h-.1l.2.5-.3.1-.6-1.1h0Zm.6.5l.1-.1c.1-.1.2-.2.1-.3s-.2-.1-.3-.1-.1.1-.1.1l.2.4h0Z" style="fill:#231f20;"></path><path d="m377.9,122.2l-.4.2-.1-.3,1-.5.1.3-.4.2.5,1.1-.3.1-.4-1.1h0Z" style="fill:#231f20;"></path><path d="m379.6,122.8l-.2-.6-.8-.6.4-.2.3.3c.07.07.13.13.2.2h0v-.7l.3-.2-.1,1,.3.6-.4.2h0Z" style="fill:#231f20;"></path><path d="m374.2,126.9l.1.4-.3.1-.2-1.5.4-.2,1,1.2-.3.1-.3-.3-.4.2h0Zm.3-.4l-.2-.2c-.1-.1-.1-.2-.2-.2h0c0,.1,0,.2.1.3v.3l.3-.2h0Z" style="fill:#231f20;"></path><path d="m375.4,126.8l-.6-1.4.4-.2.5.4c.1.1.3.2.4.4h0c-.1-.2-.2-.4-.3-.6l-.2-.4.3-.1.6,1.4-.3.1-.5-.4c-.1-.1-.3-.2-.5-.4h0c.1.2.2.4.3.6l.2.4-.3.2h0Z" style="fill:#231f20;"></path><path d="m376.1,124.8c.1-.1.2-.1.4-.2.3-.1.4-.1.6-.1s.4.2.5.4c.1.3.1.5,0,.6-.1.2-.3.3-.5.5-.2.1-.3.1-.4.1l-.6-1.3h0Zm.9,1h.1c.3-.1.4-.4.2-.7-.1-.3-.4-.4-.6-.2-.1,0-.1.1-.1.1l.4.8h0Z" style="fill:#231f20;"></path><path d="m379.6,124.8c-.1.1-.2.2-.4.3-.2.1-.5.1-.6.1s-.3-.2-.4-.4c-.2-.4,0-.9.5-1.1.2-.1.3-.1.4-.1v.3c-.1,0-.2,0-.3.1-.3.1-.4.4-.2.6.1.3.4.4.6.2.1,0,.1-.1.1-.1l-.1-.3-.2.1-.1-.2.5-.2.2.7h0Z" style="fill:#231f20;"></path><path d="m379.6,123.2l.6,1.4-.3.1-.6-1.4.3-.1Z" style="fill:#231f20;"></path><path d="m379.9,123.1l.8-.4.1.2-.5.2.1.3.5-.2.1.2-.5.2.2.5-.3.1-.5-1.1h0Z" style="fill:#231f20;"></path><path d="m381.3,122.8l-.4.2-.1-.3,1-.5.1.3-.4.2.5,1.1-.3.1-.4-1.1h0Z" style="fill:#231f20;"></path><path d="m392.6,87.2c.3,0,.7-.1,1-.2.4-.2.5-.5.4-.7s-.4-.3-.9-.2c-.7.1-1.3,0-1.6-.6-.3-.6,0-1.4.8-1.8.4-.2.8-.3,1-.3l.2.8c-.2,0-.5,0-.9.2s-.5.4-.4.6.4.2,1,.2c.8-.1,1.2.1,1.5.6.3.6.1,1.4-.9,1.9-.4.2-.9.3-1.2.3v-.8h0Z" style="fill:#fff;"></path><path d="m394.9,82.4l1.1,2.1c.3.6.7.8,1.2.6.4-.2.5-.6.2-1.3l-1.1-2.1.8-.4,1.1,2.1c.6,1.1.3,2-.7,2.5-.9.5-1.7.2-2.3-.9l-1-2.1.7-.5h0Z" style="fill:#fff;"></path><path d="m397.8,81c.2-.2.6-.4,1.1-.6.5-.3.9-.4,1.3-.3.3.1.6.3.8.6.2.4.2.7.1,1.1s-.5.8-1,1c-.1.1-.2.1-.3.1l.7,1.3-.8.4-1.9-3.6h0Zm1.7,1.2c.1,0,.2-.1.3-.1.4-.2.6-.6.4-1-.2-.3-.5-.4-.9-.2-.2.1-.3.2-.3.2l.5,1.1h0Z" style="fill:#fff;"></path><path d="m404.3,80.3l-1.4.7.5.9,1.5-.8.4.7-2.4,1.2-1.9-3.7,2.3-1.2.4.7-1.4.7.4.8,1.4-.7.2.7h0Z" style="fill:#fff;"></path><path d="m403.9,77.8c.2-.2.6-.4,1.1-.6.5-.3,1-.4,1.3-.3s.6.3.7.6c.2.5.1,1-.2,1.2h0c.3,0,.6.1.9.4.3.4.7.8.8.9l-.9.4c-.1-.1-.4-.3-.7-.7-.3-.4-.6-.4-.9-.3l-.2.1.7,1.4-.8.4-1.8-3.5h0Zm1.7,1.2l.3-.2c.4-.2.5-.6.4-.9-.2-.3-.5-.4-.9-.2-.2.1-.3.2-.4.2l.6,1.1h0Z" style="fill:#fff;"></path><path d="m411.4,76.8c-.2-.4-.5-1-.8-1.5h0c.1.5.2,1.1.3,1.6l.3,1.7-.6.3-1.1-1.2c-.3-.4-.7-.8-1.1-1.3h0c.2.5.5,1.1.7,1.6l.6,1.4-.8.4-1.7-3.8,1.1-.6,1,1c.3.4.7.8,1,1.1h0c-.1-.5-.2-1-.3-1.5l-.2-1.4,1.1-.6,2.1,3.6-.8.4-.8-1.2h0Z" style="fill:#fff;"></path><path d="m415,74.8l-1.4.7.5.9,1.5-.8.4.7-2.4,1.2-1.9-3.7,2.3-1.2.4.7-1.4.7.4.8,1.4-.7.2.7h0Z" style="fill:#fff;"></path><path d="m414.7,72.3c.2-.2.6-.4,1.1-.6.5-.3,1-.4,1.3-.3s.6.3.7.6c.2.5.1,1-.2,1.2h0c.3,0,.6.1.9.4.3.4.7.8.8.9l-.9.4c-.1-.1-.4-.3-.7-.7-.3-.4-.6-.4-.9-.3l-.2.1.7,1.4-.8.4-1.8-3.5h0Zm1.6,1.2l.3-.2c.4-.2.5-.6.4-.9-.2-.3-.5-.4-.9-.2-.2.1-.3.2-.4.2l.6,1.1h0Z" style="fill:#fff;"></path><path d="m422.4,72.8c-.1.1-.4.4-.9.6-1.3.6-2.3.2-2.9-.9-.6-1.2-.1-2.4,1-3,.4-.2.8-.3,1-.3l.2.8c-.2,0-.5.1-.8.2-.7.3-1,1-.5,1.8.4.7,1,1,1.8.6.2-.1.5-.3.6-.5l.5.7h0Z" style="fill:#fff;"></path><path d="m423.5,71.2l.2,1.1-.9.4-.8-4.3,1.1-.6,3,3.1-.9.5-.8-.8-.9.6h0Zm.6-1.1l-.6-.7c-.2-.2-.4-.4-.5-.6h0c.1.2.1.6.2.8l.2.9.7-.4h0Z" style="fill:#fff;"></path><path d="m424.8,67.1c.3-.2.7-.4,1.1-.7.7-.4,1.2-.5,1.7-.4s1,.4,1.3,1.1c.4.7.4,1.3.1,1.8-.2.5-.7,1-1.5,1.3-.4.2-.8.4-1,.4l-1.7-3.5h0Zm2.4,2.6c.1,0,.2-.1.3-.1.8-.4,1-1.1.6-1.9s-1-.9-1.8-.6c-.2.1-.3.2-.4.2l1.3,2.4h0Z" style="fill:#fff;"></path><path d="m432.9,65.2c.6,1.2.3,2.3-.8,2.9-1.1.6-2.1.1-2.7-1s-.3-2.3.8-2.8c1.1-.7,2.1-.1,2.7.9h0Zm-2.7,1.4c.4.7,1,1.1,1.5.8.6-.3.6-1,.2-1.7-.3-.7-1-1.1-1.5-.8-.5.3-.5,1-.2,1.7h0Z" style="fill:#fff;"></path><path d="m399.3,86.2l.8-.4,1.5,3,1.5-.8.4.7-2.3,1.2-1.9-3.7h0Z" style="fill:#fff;"></path><path d="m404.4,87l.2,1.1-.9.4-.8-4.2,1.1-.6,3,3.1-.9.5-.8-.8-.9.5h0Zm.6-1.1l-.6-.7c-.2-.2-.4-.4-.5-.6h0c.1.2.1.6.2.8l.2.9.7-.4h0Z" style="fill:#fff;"></path><path d="m411.3,84.5c-.1.2-.4.4-.9.6-1.3.6-2.3.2-2.9-.9-.6-1.2-.1-2.4,1-3,.4-.2.8-.3,1-.3l.2.8c-.2,0-.5.1-.8.2-.7.3-1,1-.5,1.8.4.7,1,1,1.8.6.2-.1.5-.3.6-.5l.5.7h0Z" style="fill:#fff;"></path><path d="m414.2,80.8c.6,1.2.3,2.3-.8,2.9-1.1.6-2.1.1-2.7-1s-.3-2.3.8-2.9c1.1-.6,2.1,0,2.7,1Zm-2.7,1.4c.4.7,1,1.1,1.5.8.6-.3.6-1,.2-1.7-.3-.7-1-1.1-1.5-.8s-.5,1-.2,1.7h0Z" style="fill:#fff;"></path><path d="m413.8,78.7l.8-.4,1.5,3,1.5-.8.4.7-2.3,1.2-1.9-3.7h0Z" style="fill:#fff;"></path><path d="m420.7,77.4c.6,1.2.3,2.3-.8,2.9-1.1.6-2.1.1-2.7-1s-.3-2.3.8-2.9c1.1-.5,2.1,0,2.7,1Zm-2.7,1.5c.4.7,1,1.1,1.5.8.6-.3.6-1,.2-1.7-.3-.7-1-1.1-1.5-.8-.5.2-.5,1-.2,1.7h0Z" style="fill:#fff;"></path><path d="m422.2,79l-1.9-3.7,1-.5,1.5,1c.4.3.9.6,1.2.9h0c-.3-.5-.6-.9-.9-1.5l-.5-1.1.8-.4,1.9,3.7-.9.4-1.5-1c-.4-.3-.9-.6-1.3-1h0c.3.5.5,1,.9,1.6l.6,1.1-.9.5h0Z" style="fill:#fff;"></path><path d="m424.9,73l1.9,3.7-.8.4-1.9-3.7.8-.4Z" style="fill:#fff;"></path><path d="m427.9,74.9l.2,1.1-.9.4-.8-4.2,1.1-.6,3,3.1-.9.5-.8-.8-.9.5h0Zm.6-1.1l-.6-.7c-.2-.2-.4-.4-.5-.6h0c.1.2.1.6.2.8l.2.9.7-.4h0Z" style="fill:#fff;"></path></g><g id="nopointer-icons"><g id="frontalsubidaescalera1"><path d="m393.1,155.8l1.3.4h0v.2s-.1,0-.1.1h-.1l-1.3-.3.2.4v.1s0,.1-.1.1h-.1s-.1,0-.1-.1l-.4-.9v-.3h.1l.9-.5h.2v.4h-.1l-.4.4m2.6-2.3l1.4.4s.1,0,.1.1l.1.1.1.1s0,.1.1.1l.4.9v.3c0,.1,0,.2-.1.3,0,.1-.1.2-.2.3,0,.1-.2.2-.3.2s-.3.1-.4.1h-.4c-.2,0-.2-.1-.3-.1-.07-.07-.13-.13-.2-.2-.1-.1,0-.1-.1-.2s0-.1-.1-.2v-.1h0l-3.8-1.1c-.1,0-.1-.1-.2-.1,0,0-.1-.1-.2-.1l-.1-.1s0-.1-.1-.1c0,0,0-.1-.1-.2s-.1-.2-.1-.3-.1-.2-.1-.2v-.1c0-.1,0-.2-.1-.4,0-.1,0-.2.1-.3,0-.1.1-.2.2-.3,0-.1.2-.1.3-.2.1-.1.2-.1.3-.1h.4c.1,0,.2.1.3.1.1.1.2.2.2.3l.2.5v.1h.1l1.2.3,1.1-.6c.1,0,.1-.1.2-.1h.1s.1,0,.1.1l.1.1v.2s0,.1-.1.2c0,0-.1.1-.2.1l.1.2m.7-.9v-.4s0-.1.1-.2l.1-.1c.1,0,.1-.1.2-.1h.1s.1,0,.1.1.1.1.1.1v.4s0,.1-.1.2l-.1.1c-.1,0-.1.1-.2.1h-.1s-.1,0-.1-.1-.1,0-.1-.1m3.3,2.2l-2.4-5.4c0-.1-.1-.2-.2-.3s-.2-.1-.2-.2h-.3c-.1,0-.2.1-.4.1l-6.1,3c-.1.1-.3.2-.3.2,0,0-.1.2-.2.3v.3c0,.1,0,.2.1.4l2.4,5.5c0,.1.1.2.2.3s.2.1.2.2h.3c.1,0,.2-.1.4-.1l6-3c.1-.1.3-.2.3-.2.1-.1.1-.2.2-.3v-.3c.1-.3.1-.4,0-.5" style="fill:#333;"></path><path d="m397.3,152.3s0-.1-.1-.1l-.1-.1h-.1s-.1,0-.2.1c-.1,0-.1.1-.1.1,0,.07-.03.13-.1.2v.4s0,.1.1.1c0,.1.1.1.1.1h.1c.07,0,.13-.03.2-.1.1,0,.1-.1.1-.1,0-.07.03-.13.1-.2v-.4" style="fill:#fff;"></path><path d="m391.6,152.8v-.2s0-.1.1-.2l.1-.1c.1,0,.1-.1.2-.1h.1s.1,0,.1.1c0,0,0,.1.1.1l.2.5v.1l.1.1.1.1h.1l3.9,1.1h.1l.1.1v.2l.4.9v.3s0,.1-.1.1c0,0,0,.1-.1.1h-.2s-.1,0-.1-.1-.1-.1-.1-.1l-.2-.5v-.1s0-.1-.1-.1l-.1-.1h-.1l-3.9-1.1h-.1s-.1,0-.1-.1,0,0-.1-.1v-.1l-.4-.8m6.4,2.5l-.4-.9s0-.1-.1-.1c0-.1-.1-.1-.1-.1l-.1-.1-.1-.1-1.4-.4.3-.1c.1,0,.1-.1.2-.1,0,0,0-.1.1-.2v-.2s0-.1-.1-.1-.1-.1-.1-.1h-.1c-.07,0-.13.03-.2.1l-1.1.6-1.2-.3h-.1v-.1l-.2-.5c0-.1-.1-.2-.2-.3s-.2-.1-.3-.1h-.4c-.13,0-.23.03-.3.1-.1.1-.2.1-.3.2,0,.1-.1.2-.2.3,0,.1-.1.2-.1.3s0,.2.1.4v.1c0,.07.03.13.1.2,0,.1.1.2.1.3s.1.1.1.2,0,.1.1.1l.1.1s.1.1.2.1c0,0,.1.1.2.1l3.8,1.1h0v.1s0,.1.1.2,0,.1.1.2.1.1.2.2c.07.07.17.1.3.1h.4c.13,0,.27-.03.4-.1.1-.1.2-.1.3-.2.1-.1.1-.2.2-.3,0-.1,0-.2.1-.3-.2-.13-.33-.27-.4-.4" style="fill:#fff;"></path><path d="m394.6,156.2h0l-1.4-.4.5-.2h.1v-.3h-.2l-.9.5h-.1v.3l.4.9.1.1h.1l.1-.1v-.1l-.2-.4,1.3.4h.1s.1,0,.1-.1v-.6" style="fill:#fff;"></path><path d="m397.6,155.5l-.4-.9v-.2l-.1-.1h-.1l-3.9-1.1h-.1l-.1-.1-.1-.1v-.1l-.2-.5s0-.1-.1-.1l-.1-.1h-.1c-.07,0-.13.03-.2.1-.1,0-.1.1-.1.1,0,0,0,.1-.1.2v.2l.4.8v.1s0,.1.1.1l.1.1h.1l3.9,1.1h.1s.1,0,.1.1l.1.1v.1l.2.5c0,.1.1.1.1.1,0,0,.1,0,.1.1h.2s.1,0,.1-.1c0,0,0-.1.1-.1v-.3c0,.1,0,0,0,0" style="fill:#333;"></path></g><g id="frontalsubidaescalera1-2"><path d="m127.7,164.1l.6-.6h.1v.3l-.6.6h.4v.2l-.1.1h-.7c-.1,0,0,0,0,0v-.1h0v-.7h.1l.2.2m-.6-2l.6-.7.1-.1h.9c.07,0,.13.03.2.1.07.07.13.1.2.1.1,0,.1.1.1.2s0,.2.1.3,0,.2,0,.2c0,.1-.1.1-.1.2s-.1.1-.2.1h-.5l-1.6,1.9-.1.1-.1.1h-.8c-.07,0-.13-.03-.2-.1l-.2-.2c0-.1-.1-.1-.1-.2v-.4c0-.1.1-.1.1-.2s.1-.1.2-.1.1,0,.2-.1h.4l.5-.6v-1l.1-.1h.2s.1,0,.1.1,0,.1.1.1v.1l-.2.2m-.3-.6h-.1s-.1,0-.1-.1c0,0,0-.1-.1-.1v-.3l.1-.1h.2l.1.1s0,.1.1.1v.3l-.1.1h-.1m2.1-1.3l-3.7-.1h-.2s-.1.1-.2.1c-.07.07-.1.13-.1.2v.2l.1,4.3c0,.1,0,.2.1.3,0,.1.1.1.1.2.1,0,.1.1.2.1s.1.1.2.1l3.8.1h.2c.1,0,.1-.1.2-.1,0,0,.1-.1.1-.2v-.2l-.1-4.3c0-.1,0-.2-.1-.3,0-.1-.1-.1-.1-.2-.1,0-.1-.1-.2-.1-.1-.1-.2-.1-.3-.1" style="fill:#333;"></path><path d="m126.8,160.8h-.1s-.1,0-.1.1v.3s0,.1.1.1c0,0,.1,0,.1.1h.2s.1,0,.1-.1v-.3s0-.1-.1-.1c0,0-.1,0-.1-.1h-.1" style="fill:#fff;"></path><path d="m125.6,164.2h0c-.1,0-.1-.1-.2-.1,0,0,0-.1-.1-.1v-.3l.1-.1h.8l1.7-1.9h1s.1,0,.1.1c0,0,0,.1.1.1v.3s0,.1-.1.1h-.7l-.1.1-1.6,1.9-.1.1h-.3l-.6-.2m3.2-3h-.9c-.1,0-.1.1-.1.1l-.6.7v-.3s0-.1-.1-.1c0,0-.1,0-.1-.1s-.1,0-.1,0h-.1s-.1,0-.1.1v1l-.5.6h-.4c-.07,0-.13.03-.2.1-.1,0-.1.1-.2.1,0,.1-.1.1-.1.2v.4c0,.1.1.1.1.2s.1.1.2.2.1.1.2.1h.8s.1,0,.1-.1l.1-.1,1.6-1.9h.5c.1,0,.1-.1.2-.1,0-.1.1-.1.1-.2v-.2c0-.1,0-.2-.1-.3s-.1-.1-.1-.2c-.1,0-.1-.1-.2-.1.1-.1,0-.1,0-.1" style="fill:#fff;"></path><path d="m128.4,163.4h0s-.1,0,0,0h0l-.6.7v-.3h0v.7h0v.1h.7s.1,0,.1-.1v-.2h-.6l.6-.7v-.3l-.2.1" style="fill:#fff;"></path><path d="m128.7,161.5h-.9l-1.7,1.9h-.8s-.1,0-.1.1v.3s0,.1.1.1c0,0,.1,0,.1.1h1l.1-.1,1.6-1.9.1-.1h.7l.1-.1v-.3s0-.1-.1-.1c0,.07-.07.1-.2.1q.07,0,0,0" style="fill:#333;"></path></g><g id="frontalsubidaescalera1-3"><path d="m270.1,414.2l.5-.6h.1v.3l-.5.6h.4v.2h-.7c-.1,0,0,0,0,0h0v-.7h0l.2.2m-.6-2l.6-.7s0-.1.1-.1h1.1c.1,0,.1.1.2.1,0,0,.1.1.1.2v.5c0,.1-.1.1-.1.2s-.1.1-.2.1h-.5l-1.6,1.9s-.1,0-.1.1c0,0-.1,0-.1.1h-.8c-.07,0-.13-.03-.2-.1-.1,0-.1-.1-.2-.2,0-.1-.1-.1-.1-.2v-.4c0-.07.03-.13.1-.2,0-.1.1-.1.2-.1s.1,0,.2-.1h.3l.5-.6v-1s0-.1.1,0h.3s0,.1.1.1v.4m-.3-.6h-.1l-.1-.1s0-.1-.1-.1v-.3s0-.1.1-.1h.2s.1,0,.1.1c0,0,0,.1.1.1v.3s0,.1-.1.1h-.1m2.1-1.3l-3.7-.1h-.2s-.1,0-.2.1c0,.1-.1.1-.1.2v.2l.1,4.3v.3s.1.1.1.2c0,0,.1.1.2.1h.2l3.8.1h.2c.1,0,.1-.1.2-.1,0,0,.1-.1.1-.2v-.2l-.1-4.3v-.3c0-.1-.1-.1-.1-.2,0,0-.1-.1-.2-.1h-.3" style="fill:#333;"></path><path d="m269.2,410.9h-.1s-.1,0-.1.1v.3s0,.1.1.1l.1.1h.2s.1,0,.1-.1v-.3s0-.1-.1-.1l-.1-.1h-.1" style="fill:#fff;"></path><path d="m268,414.3h0c-.1,0-.1-.1-.2-.1,0,0,0-.1-.1-.1v-.3h.9l1.7-1.9h1l.1.1v.4s0,.1-.1.1h-.7v.1l-1.6,1.9v.1h-.3l-.7-.3m3.2-3h-.9s-.1,0-.1.1l-.6.7v-.3s0-.1-.1-.1h-.4v1l-.5.6h-.3c-.07,0-.13.03-.2.1-.1,0-.1.1-.2.1,0,.1-.1.1-.1.2v.4s.1.1.1.2.1.1.2.2c.1,0,.1.1.2.1h.8s.1,0,.1-.1c0,0,.1,0,.1-.1l1.6-1.9h.5c.1,0,.1-.1.2-.1,0-.1.1-.1.1-.2v-.5c0-.1-.1-.1-.1-.2,0,0-.1-.1-.2-.1-.1-.1-.2-.1-.2-.1" style="fill:#fff;"></path><path d="m270.8,413.5h0l-.6.7v-.3h0v.7h.8v-.2h-.4l.5-.7v-.3l-.3.1" style="fill:#fff;"></path><path d="m271.1,411.6h-.9l-1.7,1.9h-.7v.3s0,.1.1.1h1.1v-.1l1.6-1.9v-.1h.7s0-.1.1-.1v-.4c-.1.3-.2.3-.3.3q.07,0,0,0" style="fill:#333;"></path></g><g id="frontalsubidaescalera1-4"><path d="m457,16.3l.1-.5h0v.1l-.1.5.2-.1h.1v.2l-.3.2h0l-.2-.4h.2m-.9-.9l.1-.5v-.3h.1l.4-.2h.2s.1,0,.1.1l.1.1v.4s0,.1-.1.1h-.3l-.4,1.5v.3h-.2c-.07,0-.1.03-.1.1h-.3l-.1-.1-.1-.1v-.3l.1-.1.2-.1h0l.1-.5-.2-.4v-.3h.3v.1l.1.2m-.3-.3h-.2v-.4h.4v.3c-.07,0-.13.03-.2.1h0m.8-1.3l-2.1.9-.1.1s0,.1-.1.1v.2l1.2,2.3c0,.1.1.1.1.1l.1.1h.2l2.1-1,.1-.1s0-.1.1-.1v-.2l-1.2-2.3c0-.1-.1-.1-.1-.1l-.1-.1h-.1s0,.1-.1.1" style="fill:#333;"></path><path d="m455.6,14.7h0q0,.07,0,0l-.1.1v.2h.4v-.4h-.1c0,.07-.07.1-.2.1h0" style="fill:#fff;"></path><path d="m455.9,16.9h-.2v-.4h0l.2-.1h0l.4-1.5h0l.3-.2h.3v.4l-.2.1h0v.1l-.4,1.5v.1h-.4m1-2.5l-.4.2h-.1c-.1,0,0,0,0,.1v.2l-.1.5v-.2h-.3v.3l.2.4-.1.5h0l-.2.1-.1.1v.3s0,.1.1.1l.1.1h.3s.1,0,.1-.1h.2v-.3l.4-1.5h.3c.07,0,.1-.03.1-.1v-.4l-.1-.1-.1-.1h-.1l-.2-.1" style="fill:#fff;"></path><path d="m457.2,15.8h0l-.1.5-.1-.2h0l.2.4h0l.3-.2v-.2h-.1l-.2.1.1-.5v-.1h0c0,.1-.1.1-.1.2" style="fill:#fff;"></path><path d="m456.9,14.6l-.3.2h0l-.4,1.5h0l-.2.1h0v.4h.3l.3-.2h0v-.1l.4-1.5v-.1h0l.2-.1v-.4h0c-.13.13-.23.2-.3.2h0" style="fill:#333;"></path></g></g></svg>