<svg id="main" xmlns="http://www.w3.org/2000/svg" xmlns:xlink="http://www.w3.org/1999/xlink" viewBox="0 0 1101 1301"><defs><clipPath id="clippath"><path d="m677.98,652.15l4,12.2c0,.4-1.6,1.7-1.7,1.8l-4-12.2c.1,0,1.7-1.3,1.7-1.8Z" style="fill:none;"></path></clipPath><clipPath id="clippath-1"><path d="m205.88,730.05l-4-12.2c.1.4.3.7.4,1,1.9,3.7,53.2,70.3,55.4,76,2.2,5.6,8.8,17.1,9.2,17.7l4,12.2c-.3-.6-7-12-9.2-17.7-2.2-5.6-53.5-72.3-55.4-76-.1-.3-.3-.7-.4-1Z" style="fill:none;"></path></clipPath><clipPath id="clippath-2"><path d="m662.58,851.75l4,12.2c-25.2-2.5-49.1-3.2-71-3.5-58.4-1-100.2-.4-102.5-.4-63.8-.1-199.8,6.9-206.9,7.3l-4-12.2c7.2-.4,143.1-7.4,206.9-7.3,2.2,0,44-.6,102.4.4,21.9.3,45.8.9,71.1,3.5h0Z" style="fill:none;"></path></clipPath><clipPath id="clippath-3"><path d="m888.68,756.25l4,12.2c.1,1.2,1.5,23.2,1.4,24.9s-5.5,18-8.1,24.6c-2.5,6.6-13.6,20-14.2,20.7l-4-12.2c.6-.7,11.6-14,14.2-20.7,2.5-6.6,8-22.9,8.1-24.6s-1.3-23.7-1.4-24.9Z" style="fill:none;"></path></clipPath><clipPath id="clippath-4"><path d="m867.88,826.55l4,12.2c-.2.2-5,4.2-17.1,12-12.1,7.7-25.8,11.4-26.5,11.6l-4-12.2c.7-.2,14.4-3.8,26.5-11.6s16.8-11.8,17.1-12h0Z" style="fill:none;"></path></clipPath></defs><rect x=".5" y=".5" width="1100" height="1300" style="fill:#fff; opacity:0; stroke:#000; stroke-miterlimit:10;"></rect><g id="Layer_2"><polygon points="705.88 389.65 709.88 401.75 707.88 402.75 703.88 390.55 705.88 389.65" style="fill:#63635e;"></polygon><polygon points="629.88 562.95 633.88 575.15 627.78 584.55 623.78 572.45 629.88 562.95" style="fill:#6f6f69;"></polygon><polygon points="690.58 562.95 694.58 575.15 633.88 575.15 629.88 562.95 690.58 562.95" style="fill:#60605b;"></polygon><polygon points="626.68 579.05 630.68 591.15 623.88 602.15 619.88 589.95 626.68 579.05" style="fill:#6f6f6a;"></polygon><polygon points="730.08 576.95 734.08 589.15 694.58 575.15 690.58 562.95 730.08 576.95" style="fill:#60605b;"></polygon><polygon points="762.88 587.65 766.88 599.75 734.08 589.15 730.08 576.95 762.88 587.65" style="fill:#60605b;"></polygon><polygon points="796.68 594.65 800.78 606.85 766.88 599.75 762.88 587.65 796.68 594.65" style="fill:#60605b;"></polygon><polygon points="808.38 594.25 812.38 606.45 800.78 606.85 796.68 594.65 808.38 594.25" style="fill:#60605b;"></polygon><g style="clip-path:url(#clippath);"><path d="m677.98,652.15l4,12.2h0l-4-12.2c0,.1,0,0,0,0" style="fill:#767670;"></path><path d="m677.98,652.25l4,12.2v.1l-4-12.3h0" style="fill:#73736d;"></path><path d="m677.98,652.25l4,12.2v.1l-4-12.2v-.1" style="fill:#6f6f69;"></path><path d="m677.98,652.35l4,12.2c0,.1-.1.2-.2.3l-4-12.2c0-.1.1-.2.2-.3" style="fill:#6b6b65;"></path><path d="m677.68,652.65l4,12.2c-.5.5-1.3,1.3-1.4,1.3l-4-12.2c.1,0,1-.7,1.4-1.3" style="fill:#676762;"></path></g><g style="clip-path:url(#clippath-1);"><path d="m266.88,812.55l4,12.2c-.3-.6-7-12-9.2-17.7-2.2-5.6-53.5-72.3-55.4-76-.2-.4-.3-.7-.4-1l-4-12.2c.1.4.3.7.4,1,1.9,3.7,53.2,70.3,55.4,76,2.2,5.6,8.8,17.1,9.2,17.7" style="fill:#63635e;"></path></g><polygon points="282.18 855.05 286.18 867.25 270.88 824.65 266.88 812.55 282.18 855.05" style="fill:#60605b;"></polygon><polygon points="722.68 704.15 726.68 716.35 725.78 742.75 721.68 730.55 722.68 704.15" style="fill:#777771;"></polygon><polygon points="766.08 721.75 770.08 733.95 772.48 787.85 768.48 775.75 766.08 721.75" style="fill:#777771;"></polygon><g style="clip-path:url(#clippath-2);"><path d="m662.58,851.75l4,12.2c-25.2-2.5-49.1-3.2-71-3.5-58.4-1-100.2-.4-102.5-.4-63.8-.1-199.8,6.9-206.9,7.3l-4-12.2c7.2-.4,143.1-7.4,206.9-7.3,2.2,0,44-.6,102.4.4,21.9.3,45.8.9,71.1,3.5" style="fill:#63635e;"></path></g><g style="clip-path:url(#clippath-3);"><path d="m888.68,756.25l4,12.2c.1,1.2,1.5,23.2,1.4,24.9v.2l-4-12.2v-.2c.1-1.7-1.3-23.7-1.4-24.9" style="fill:#767670;"></path><path d="m890.08,781.35l4,12.2c-.3,2.2-4.4,14.5-7.1,21.8l-4-12.2c2.7-7.3,6.8-19.6,7.1-21.8" style="fill:#73736d;"></path><path d="m882.98,803.15l4,12.2c-.4,1-.7,1.9-1,2.6-.4,1.1-1.1,2.5-2,4l-4-12.2c.8-1.5,1.5-2.8,2-4,.3-.7.7-1.6,1-2.6" style="fill:#6f6f69;"></path><path d="m879.98,809.75l4,12.2c-4.1,6.9-11.7,16.2-12.2,16.7l-4-12.2c.6-.5,8.2-9.7,12.2-16.7" style="fill:#6b6b65;"></path></g><g style="clip-path:url(#clippath-4);"><path d="m867.88,826.55l4,12.2c-.1,0-.4.3-1,.8l-4-12.2c.6-.5.9-.8,1-.8" style="fill:#676762;"></path><path d="m866.88,827.35l4,12.2c-2,1.6-6.9,5.3-16.1,11.1-12.1,7.7-25.8,11.4-26.5,11.6l-4-12.2c.7-.2,14.4-3.8,26.5-11.6,9.1-5.8,14.1-9.6,16.1-11.1" style="fill:#63635e;"></path></g><polygon points="824.18 852.35 828.18 864.45 666.58 863.85 662.58 851.75 824.18 852.35" style="fill:#60605b;"></polygon><polygon points="824.18 850.05 828.28 862.25 828.18 864.45 824.18 852.35 824.18 850.05" style="fill:#777771;"></polygon><path d="m694.48,368.25l11.4,21.4-2,.9,104.5,203.7-11.7.4-33.8-7-32.8-10.6-39.5-14.1-60.7.1-6.1,9.4,2.8,6.6-6.7,11,44.8,47.7c.7.7,13.4,14.1,13.3,14.5s-1.6,1.7-1.7,1.8l20,21.8,16.8,16.8,1.9,3.7,3.3,3.3,4.2,4.6-.9,26.4c.5,0,10,.3,10.5.4.9,0,32.2-8.7,33.8-9.2l2.3,53.9,59.2-14.6,1.6-44.7,34-9.6,16.2,25.8,9.3,23.6c.1,1.2,1.5,23.2,1.4,24.9s-5.5,18-8.1,24.6c-2.5,6.6-13.6,20-14.2,20.7-.2.2-5,4.2-17.1,12-12.1,7.7-25.8,11.4-26.5,11.6l-.1,2.3-161.6-.6c-25.2-2.5-49.1-3.2-71-3.5-58.4-1-100.2-.4-102.4-.4-63.8-.1-199.8,6.9-206.9,7.3l-15.1-42.6c-.3-.6-7-12-9.2-17.7-2.2-5.6-53.5-72.3-55.4-76-1.9-3.7.2-7.1.3-7.3l49.7-20.6-29.9-164.8,146.8-25.9,67.2-27.2,258.1-104.8h0Z" style="fill:#a9a9a0;"></path><polygon points="389.58 575.55 393.68 587.75 393.28 596.85 389.28 584.65 389.58 575.55" style="fill:#83837c;"></polygon><polygon points="389.28 584.65 393.28 596.85 382.28 596.65 378.28 584.45 389.28 584.65" style="fill:#6a6a64;"></polygon><polygon points="368.88 598.25 372.88 610.35 365.08 610.25 361.08 598.05 368.88 598.25" style="fill:#6a6a64;"></polygon><polygon points="377.78 598.15 381.78 610.35 372.88 610.35 368.88 598.25 377.78 598.15" style="fill:#6a6a64;"></polygon><polygon points="378.28 584.45 382.28 596.65 381.78 610.35 377.78 598.15 378.28 584.45" style="fill:#83837c;"></polygon><polygon points="389.58 575.55 389.28 584.65 378.28 584.45 377.78 598.15 368.88 598.25 361.08 598.05 361.58 575.45 389.58 575.55" style="fill:#bbbbb1;"></polygon><polygon points="416.58 597.05 420.68 609.15 411.68 612.85 407.68 600.65 416.58 597.05" style="fill:#6c6c67;"></polygon><polygon points="407.68 600.65 411.68 612.85 411.68 627.55 407.68 615.45 407.68 600.65" style="fill:#83837d;"></polygon><polygon points="407.68 615.45 411.68 627.55 401.08 627.45 397.08 615.25 407.68 615.45" style="fill:#6a6a64;"></polygon><polygon points="397.08 615.25 401.08 627.45 400.78 634.05 396.78 621.85 397.08 615.25" style="fill:#83837c;"></polygon><polygon points="396.78 621.85 400.78 634.05 390.38 633.85 386.38 621.65 396.78 621.85" style="fill:#6a6a64;"></polygon><polygon points="405.38 571.95 416.58 597.05 407.68 600.65 407.68 615.45 397.08 615.25 396.78 621.85 386.38 621.65 387.08 603.15 388.58 603.15 388.68 601.35 389.68 575.55 395.98 576.25 405.38 571.95" style="fill:#bbbbb1;"></polygon><polygon points="423.08 615.55 427.18 627.75 411.78 627.65 407.78 615.45 423.08 615.55" style="fill:#6a6a64;"></polygon><polygon points="424.88 619.45 428.98 631.55 427.18 627.75 423.08 615.55 424.88 619.45" style="fill:#6a6a64;"></polygon><polygon points="434.78 615.45 438.88 627.55 428.98 631.55 424.88 619.45 434.78 615.45" style="fill:#6c6c67;"></polygon><polygon points="425.58 593.45 434.78 615.45 424.88 619.45 423.08 615.55 407.78 615.45 407.68 600.65 425.58 593.45" style="fill:#bbbbb1;"></polygon><polygon points="739.98 526.05 743.98 538.15 732.38 508.95 728.38 496.85 739.98 526.05" style="fill:#6a6a64;"></polygon><polygon points="769.08 527.05 773.08 539.15 743.98 538.15 739.98 526.05 769.08 527.05" style="fill:#6a6a64;"></polygon><polygon points="728.38 496.85 753.58 497.55 769.08 527.05 739.98 526.05 728.38 496.85" style="fill:#bbbbb1;"></polygon><polygon points="680.88 550.25 684.88 562.45 667.68 522.15 663.68 509.95 680.88 550.25" style="fill:#6a6a64;"></polygon><polygon points="686.08 550.25 690.18 562.45 684.88 562.45 680.88 550.25 686.08 550.25" style="fill:#6a6a64;"></polygon><polygon points="687.68 550.85 691.68 563.05 690.18 562.45 686.08 550.25 687.68 550.85" style="fill:#6a6a64;"></polygon><polygon points="693.08 538.45 697.18 550.55 691.68 563.05 687.68 550.85 693.08 538.45" style="fill:#7e7e78;"></polygon><polygon points="678.58 503.75 693.08 538.45 687.68 550.85 686.08 550.25 680.88 550.25 663.68 509.95 678.58 503.75" style="fill:#bbbbb1;"></polygon><polygon points="659.08 550.55 663.08 562.65 649.28 529.85 645.28 517.65 659.08 550.55" style="fill:#6a6a64;"></polygon><polygon points="680.68 550.45 684.78 562.55 663.08 562.65 659.08 550.55 680.68 550.45" style="fill:#6a6a64;"></polygon><polygon points="637.48 550.75 641.48 562.95 630.68 537.45 626.68 525.35 637.48 550.75" style="fill:#6a6a64;"></polygon><polygon points="658.98 550.55 662.98 562.75 641.48 562.95 637.48 550.75 658.98 550.55" style="fill:#6a6a64;"></polygon><polygon points="637.38 550.85 641.48 563.05 629.68 562.85 625.68 550.65 637.38 550.85" style="fill:#6a6a64;"></polygon><polygon points="625.68 550.65 629.68 562.85 623.58 572.85 619.58 560.75 625.68 550.65" style="fill:#7b7b75;"></polygon><polygon points="619.58 560.75 623.58 572.85 611.78 544.95 607.78 532.85 619.58 560.75" style="fill:#6a6a64;"></polygon><polygon points="626.68 525.45 637.38 550.85 625.68 550.65 619.58 560.75 607.78 532.85 626.68 525.45" style="fill:#bbbbb1;"></polygon><polygon points="615.98 552.25 619.98 564.35 595.28 574.65 591.28 562.45 615.98 552.25" style="fill:#6c6c67;"></polygon><polygon points="591.28 562.45 595.28 574.65 586.78 554.55 582.78 542.35 591.28 562.45" style="fill:#6a6a64;"></polygon><polygon points="622.18 566.85 626.18 579.05 619.38 590.15 615.28 578.05 622.18 566.85" style="fill:#7b7b75;"></polygon><polygon points="600.48 584.95 604.48 597.15 595.28 574.75 591.28 562.65 600.48 584.95" style="fill:#6a6a64;"></polygon><polygon points="618.68 628.15 622.68 640.35 604.48 597.15 600.48 584.95 618.68 628.15" style="fill:#6a6a64;"></polygon><polygon points="640.88 619.15 644.88 631.35 622.68 640.35 618.68 628.15 640.88 619.15" style="fill:#6c6c67;"></polygon><polygon points="660.78 626.25 664.88 638.45 662.78 640.15 658.68 627.95 660.78 626.25" style="fill:#73736d;"></polygon><polygon points="646.48 632.75 650.48 644.95 644.88 631.35 640.88 619.15 646.48 632.75" style="fill:#6a6a64;"></polygon><polygon points="658.68 627.95 662.78 640.15 650.48 644.95 646.48 632.75 658.68 627.95" style="fill:#6c6c67;"></polygon><polygon points="689.08 395.65 693.08 407.85 687.58 409.95 683.58 397.75 689.08 395.65" style="fill:#6c6c67;"></polygon><polygon points="689.08 411.15 693.08 423.25 683.38 427.45 679.38 415.25 689.08 411.15" style="fill:#6d6d67;"></polygon><polygon points="680.98 419.75 684.98 431.85 651.48 445.55 647.48 433.45 680.98 419.75" style="fill:#6c6c67;"></polygon><polygon points="647.48 433.45 651.48 445.55 631.28 396.45 627.28 384.25 647.48 433.45" style="fill:#6a6a64;"></polygon><polygon points="676.58 363.85 689.08 395.65 683.58 397.75 689.08 411.15 679.38 415.25 680.98 419.75 647.48 433.45 627.28 384.25 676.58 363.85" style="fill:#bbbbb1;"></polygon><polygon points="323.08 501.35 327.08 513.55 326.38 530.35 322.38 518.15 323.08 501.35" style="fill:#83837c;"></polygon><polygon points="322.38 518.15 326.38 530.35 312.48 529.35 308.48 517.25 322.38 518.15" style="fill:#6a6a64;"></polygon><polygon points="323.08 501.35 322.38 518.15 308.48 517.25 308.98 503.55 323.08 501.35" style="fill:#bbbbb1;"></polygon><polygon points="255.08 507.85 259.08 519.95 257.68 557.05 253.58 544.85 255.08 507.85" style="fill:#83837c;"></polygon><polygon points="253.58 544.85 257.68 557.05 240.28 556.75 236.18 544.55 253.58 544.85" style="fill:#6a6a64;"></polygon><polygon points="255.08 507.85 253.58 544.85 236.18 544.55 233.38 530.25 240.18 530.35 236.18 510.85 255.08 507.85" style="fill:#bbbbb1;"></polygon><polygon points="271.28 648.55 275.28 660.75 274.78 674.55 270.78 662.45 271.28 648.55" style="fill:#83837c;"></polygon><polygon points="270.78 662.45 274.78 674.55 249.68 674.15 245.58 661.95 270.78 662.45" style="fill:#6a6a64;"></polygon><polygon points="271.28 648.55 270.78 662.45 245.58 661.95 242.78 648.75 271.28 648.55" style="fill:#bbbbb1;"></polygon><polygon points="270.78 662.55 274.78 674.75 274.38 686.45 270.38 674.25 270.78 662.55" style="fill:#83837c;"></polygon><polygon points="270.38 674.25 274.38 686.45 251.38 686.85 247.38 674.65 270.38 674.25" style="fill:#6a6a64;"></polygon><polygon points="270.78 662.55 270.38 674.25 247.38 674.65 245.68 662.15 270.78 662.55" style="fill:#bbbbb1;"></polygon><polygon points="262.68 674.45 266.68 686.65 266.18 699.95 262.18 687.75 262.68 674.45" style="fill:#83837c;"></polygon><polygon points="262.18 687.75 266.18 699.95 253.68 699.65 249.58 687.55 262.18 687.75" style="fill:#6a6a64;"></polygon><polygon points="262.68 674.45 262.18 687.75 249.58 687.55 247.38 674.75 262.68 674.45" style="fill:#bbbbb1;"></polygon><polygon points="262.18 687.75 266.18 699.95 265.78 710.35 261.78 698.15 262.18 687.75" style="fill:#83837c;"></polygon><polygon points="261.78 698.15 265.78 710.35 251.78 716.45 247.78 704.25 261.78 698.15" style="fill:#6d6d67;"></polygon><polygon points="247.78 704.25 251.78 716.45 245.18 703.45 241.18 691.25 247.78 704.25" style="fill:#6a6a64;"></polygon><polygon points="262.18 687.75 261.78 698.15 247.78 704.25 241.18 691.25 249.58 687.55 262.18 687.75" style="fill:#bbbbb1;"></polygon><polygon points="412.48 799.85 416.58 812.05 387.68 811.55 383.68 799.35 412.48 799.85" style="fill:#6a6a64;"></polygon><polygon points="424.98 818.25 429.08 830.35 415.78 830.15 411.78 817.95 424.98 818.25" style="fill:#6a6a64;"></polygon><polygon points="428.28 736.35 432.28 748.55 429.08 830.35 424.98 818.25 428.28 736.35" style="fill:#83837c;"></polygon><polygon points="449.68 736.75 453.68 748.95 453.08 763.25 449.08 751.15 449.68 736.75" style="fill:#83837c;"></polygon><polygon points="449.08 751.15 453.08 763.25 431.78 762.95 427.68 750.75 449.08 751.15" style="fill:#6a6a64;"></polygon><polygon points="449.68 736.75 449.08 751.15 427.68 750.75 428.28 736.35 449.68 736.75" style="fill:#bbbbb1;"></polygon><polygon points="449.08 751.15 453.08 763.35 452.58 776.05 448.58 763.85 449.08 751.15" style="fill:#83837c;"></polygon><polygon points="448.58 763.85 452.58 776.05 431.28 775.65 427.18 763.55 448.58 763.85" style="fill:#6a6a64;"></polygon><polygon points="449.08 751.15 448.58 763.85 427.18 763.55 427.68 750.75 449.08 751.15" style="fill:#bbbbb1;"></polygon><polygon points="448.58 763.95 452.68 776.15 451.98 791.85 447.98 779.65 448.58 763.95" style="fill:#83837c;"></polygon><polygon points="447.98 779.65 451.98 791.85 430.68 791.45 426.68 779.25 447.98 779.65" style="fill:#6a6a64;"></polygon><polygon points="448.58 763.95 447.98 779.65 426.68 779.25 427.28 763.55 448.58 763.95" style="fill:#bbbbb1;"></polygon><polygon points="447.98 779.35 451.98 791.45 451.48 804.15 447.48 792.05 447.98 779.35" style="fill:#83837c;"></polygon><polygon points="447.48 792.05 451.48 804.15 430.18 803.85 426.18 791.65 447.48 792.05" style="fill:#6a6a64;"></polygon><polygon points="447.98 779.35 447.48 792.05 426.18 791.65 426.68 778.95 447.98 779.35" style="fill:#bbbbb1;"></polygon><polygon points="489.48 738.15 493.48 750.35 492.88 763.55 488.88 751.35 489.48 738.15" style="fill:#83837c;"></polygon><polygon points="488.88 751.35 492.88 763.55 466.48 763.05 462.48 750.95 488.88 751.35" style="fill:#6a6a64;"></polygon><polygon points="489.48 807.35 493.48 819.45 492.88 834.05 488.88 821.85 489.48 807.35" style="fill:#83837c;"></polygon><polygon points="488.88 821.85 492.88 834.05 465.48 833.55 461.38 821.35 488.88 821.85" style="fill:#6a6a64;"></polygon><polygon points="460.38 706.45 464.38 718.65 446.28 718.35 442.28 706.15 460.38 706.45" style="fill:#6a6a64;"></polygon><polygon points="451.28 683.85 460.38 706.45 442.28 706.15 443.18 683.75 451.28 683.85" style="fill:#bbbbb1;"></polygon><polygon points="721.98 705.65 725.98 717.85 725.98 728.35 721.98 716.15 721.98 705.65" style="fill:#83837d;"></polygon><polygon points="706.58 722.65 710.58 734.85 707.38 725.65 703.38 713.45 706.58 722.65" style="fill:#6a6a64;"></polygon><polygon points="722.08 728.65 726.08 740.85 710.88 740.15 706.78 728.05 722.08 728.65" style="fill:#6a6a64;"></polygon><polygon points="721.98 716.15 725.98 728.35 726.08 740.85 722.08 728.65 721.98 716.15" style="fill:#83837d;"></polygon><polygon points="721.98 705.65 721.98 716.15 722.08 728.65 706.78 728.05 706.58 722.65 703.38 713.45 721.98 705.65" style="fill:#bbbbb1;"></polygon><polygon points="678.08 651.55 682.08 663.65 679.98 665.35 675.98 653.25 678.08 651.55" style="fill:#72726c;"></polygon><polygon points="682.38 678.35 686.38 690.55 670.28 651.25 666.28 639.15 682.38 678.35" style="fill:#6a6a64;"></polygon><polygon points="684.88 677.95 688.88 690.15 686.38 690.55 682.38 678.35 684.88 677.95" style="fill:#6a6a64;"></polygon><polygon points="686.48 679.75 690.48 691.95 688.88 690.15 684.88 677.95 686.48 679.75" style="fill:#6a6a64;"></polygon><polygon points="689.08 679.35 693.08 691.55 690.48 691.95 686.48 679.75 689.08 679.35" style="fill:#6a6a64;"></polygon><polygon points="696.78 675.55 700.78 687.75 693.08 691.55 689.08 679.35 696.78 675.55" style="fill:#6e6e68;"></polygon><polygon points="666.28 639.15 678.08 651.55 675.98 653.25 696.78 675.55 689.08 679.35 686.48 679.75 684.88 677.95 682.38 678.35 666.28 639.15" style="fill:#bbbbb1;"></polygon><polygon points="563.18 416.55 567.18 428.75 560.88 430.95 556.88 418.85 563.18 416.55" style="fill:#6c6c66;"></polygon><polygon points="552.88 446.65 556.88 458.75 546.78 433.85 542.78 421.65 552.88 446.65" style="fill:#6a6a64;"></polygon><polygon points="552.28 461.45 556.28 473.65 550.88 461.45 546.88 449.25 552.28 461.45" style="fill:#6a6a64;"></polygon><polygon points="577.58 451.35 581.68 463.55 556.28 473.65 552.28 461.45 577.58 451.35" style="fill:#6c6c67;"></polygon><polygon points="561.88 414.35 563.18 416.55 556.88 418.85 561.98 431.55 568.28 428.75 577.58 451.35 552.28 461.45 546.88 449.25 552.88 446.65 542.78 421.65 561.88 414.35" style="fill:#bbbbb1;"></polygon><polygon points="721.88 463.95 725.88 476.05 717.88 479.35 713.88 467.15 721.88 463.95" style="fill:#62625d;"></polygon><polygon points="713.88 467.15 717.88 479.35 707.48 456.15 703.48 444.05 713.88 467.15" style="fill:#60605b;"></polygon><polygon points="711.48 440.55 721.88 463.95 713.88 467.15 703.48 444.05 711.48 440.55" style="fill:#a9a9a0;"></polygon><polygon points="496.58 547.45 500.58 559.65 487.58 564.45 483.58 552.35 496.58 547.45" style="fill:#62625d;"></polygon><polygon points="483.58 552.35 487.58 564.45 482.38 552.15 478.38 539.95 483.58 552.35" style="fill:#60605b;"></polygon><polygon points="491.48 535.05 496.58 547.45 483.58 552.35 478.38 539.95 491.48 535.05" style="fill:#a9a9a0;"></polygon><polygon points="523.28 540.65 527.28 552.85 516.98 556.65 512.98 544.45 523.28 540.65" style="fill:#6c6c66;"></polygon><polygon points="512.98 544.45 516.98 556.65 512.68 546.35 508.68 534.15 512.98 544.45" style="fill:#6a6a64;"></polygon><polygon points="518.78 530.15 523.28 540.65 512.98 544.45 508.68 534.15 518.78 530.15" style="fill:#bbbbb1;"></polygon><polygon points="447.48 792.05 451.48 804.25 450.68 816.95 446.68 804.75 447.48 792.05" style="fill:#83837c;"></polygon><polygon points="446.68 804.75 450.68 816.95 429.68 816.55 425.68 804.45 446.68 804.75" style="fill:#6a6a64;"></polygon><polygon points="446.68 804.85 450.68 817.05 450.18 830.75 446.08 818.55 446.68 804.85" style="fill:#83837c;"></polygon><polygon points="446.08 818.55 450.18 830.75 429.18 830.35 425.08 818.15 446.08 818.55" style="fill:#6a6a64;"></polygon><polygon points="446.68 804.85 446.08 818.55 425.08 818.15 425.68 804.45 446.68 804.85" style="fill:#bbbbb1;"></polygon><polygon points="368.78 598.25 372.88 610.45 372.18 626.95 368.18 614.75 368.78 598.25" style="fill:#83837c;"></polygon><polygon points="368.18 614.75 372.18 626.95 364.38 626.85 360.38 614.65 368.18 614.75" style="fill:#6a6a64;"></polygon><polygon points="368.78 598.25 368.18 614.75 360.38 614.65 361.08 598.15 368.78 598.25" style="fill:#bbbbb1;"></polygon><polygon points="700.78 545.85 704.78 557.95 688.88 520.65 684.88 508.45 700.78 545.85" style="fill:#6a6a64;"></polygon><polygon points="720.08 563.15 724.08 575.35 700.88 567.45 696.88 555.25 720.08 563.15" style="fill:#6a6a64;"></polygon><polygon points="724.88 549.75 728.88 561.85 724.08 575.35 720.08 563.15 724.88 549.75" style="fill:#808079;"></polygon><polygon points="744.88 725.45 748.88 737.65 747.98 760.45 743.98 748.35 744.88 725.45" style="fill:#83837c;"></polygon><polygon points="743.98 748.35 747.98 760.45 710.08 759.85 705.98 747.65 743.98 748.35" style="fill:#6a6a64;"></polygon><polygon points="766.38 720.05 770.38 732.25 771.28 749.75 767.28 737.55 766.38 720.05" style="fill:#83837d;"></polygon><polygon points="767.28 737.55 771.28 749.75 748.48 749.35 744.48 737.15 767.28 737.55" style="fill:#6a6a64;"></polygon><polygon points="756.98 748.55 760.98 760.75 748.08 760.55 744.08 748.35 756.98 748.55" style="fill:#6a6a64;"></polygon><polygon points="762.38 748.45 766.48 760.55 760.98 760.75 756.98 748.55 762.38 748.45" style="fill:#6a6a64;"></polygon><polygon points="767.68 747.55 771.68 759.75 766.48 760.55 762.38 748.45 767.68 747.55" style="fill:#6a6a64;"></polygon><polygon points="767.28 737.55 771.28 749.75 771.68 759.75 767.68 747.55 767.28 737.55" style="fill:#83837d;"></polygon><polygon points="767.68 747.55 771.68 759.75 771.98 776.35 767.98 764.15 767.68 747.55" style="fill:#83837d;"></polygon><polygon points="767.98 764.15 771.98 776.35 759.88 777.15 755.88 764.95 767.98 764.15" style="fill:#6a6a64;"></polygon><polygon points="767.68 747.55 767.98 764.15 755.88 764.95 756.48 748.65 762.38 748.45 767.68 747.55" style="fill:#bbbbb1;"></polygon><polygon points="710.68 507.25 714.68 519.45 706.88 516.35 702.88 504.15 710.68 507.25" style="fill:#00151b;"></polygon><polygon points="726.68 545.45 730.68 557.65 714.68 519.45 710.68 507.25 726.68 545.45" style="fill:#00151b;"></polygon><polygon points="764.88 577.25 768.88 589.35 724.38 575.35 720.38 563.15 764.88 577.25" style="fill:#00151b;"></polygon><polygon points="798.38 584.65 802.38 596.75 768.88 589.35 764.88 577.25 798.38 584.65" style="fill:#00151b;"></polygon><polygon points="713.78 467.25 717.78 479.45 675.48 496.65 671.48 484.55 713.78 467.25" style="fill:#00151b;"></polygon><polygon points="671.48 484.55 675.48 496.65 664.68 471.25 660.68 459.05 671.48 484.55" style="fill:#00151b;"></polygon><polygon points="666.58 473.25 670.58 485.45 652.18 492.75 648.08 480.65 666.58 473.25" style="fill:#6c6c67;"></polygon><polygon points="648.08 480.65 652.18 492.75 646.48 479.55 642.48 467.45 648.08 480.65" style="fill:#6a6a64;"></polygon><polygon points="660.78 459.85 666.58 473.25 648.08 480.65 642.48 467.45 660.78 459.85" style="fill:#bbbbb1;"></polygon><polygon points="648.08 480.65 652.08 492.85 633.48 500.45 629.48 488.25 648.08 480.65" style="fill:#6c6c67;"></polygon><polygon points="629.48 488.25 633.48 500.45 627.98 487.35 623.98 475.15 629.48 488.25" style="fill:#6a6a64;"></polygon><polygon points="629.38 488.25 633.48 500.45 615.08 508.25 611.08 496.05 629.38 488.25" style="fill:#6d6d67;"></polygon><polygon points="611.08 496.05 615.08 508.25 609.38 494.85 605.38 482.65 611.08 496.05" style="fill:#6a6a64;"></polygon><polygon points="610.98 496.05 614.98 508.25 596.18 515.45 592.18 503.25 610.98 496.05" style="fill:#6c6c66;"></polygon><polygon points="592.18 503.25 596.18 515.45 590.68 502.35 586.68 490.15 592.18 503.25" style="fill:#6a6a64;"></polygon><polygon points="592.08 503.35 596.08 515.55 577.48 522.85 573.48 510.65 592.08 503.35" style="fill:#6c6c66;"></polygon><polygon points="573.48 510.65 577.48 522.85 571.68 509.75 567.68 497.55 573.48 510.65" style="fill:#6a6a64;"></polygon><polygon points="586.58 490.35 592.08 503.35 573.48 510.65 567.68 497.55 586.58 490.35" style="fill:#bbbbb1;"></polygon></g><g id="landmarks-large-first"><polygon id="officedepot-e1" points="706.38 496.05 728.38 496.95 739.98 526.15 768.98 527.15 798.38 584.65 764.88 577.25 720.38 563.15 726.68 545.45 710.68 507.25 702.88 504.15 706.38 496.05" style="fill:#00242f;" class="mapplic-clickable"></polygon><polygon id="papajohns-e1" points="702.18 441.45 713.78 467.25 671.48 484.55 660.68 459.05 702.18 441.45" style="fill:#00242f;" class="mapplic-clickable"></polygon></g><g id="landmarks-small-first"><polygon id="webcenter-e1" points="642.38 467.45 648.08 480.65 629.48 488.25 623.98 475.15 642.38 467.45" style="fill:#bbbbb1;" class="mapplic-clickable"></polygon><polygon id="granoyoro-e1" points="623.88 475.25 629.38 488.25 611.08 496.05 605.38 482.65 623.88 475.25" style="fill:#bbbbb1;" class="mapplic-clickable"></polygon><polygon id="cooperativa-e1" points="663.58 510.15 680.68 550.45 659.08 550.55 645.28 517.65 663.58 510.15" style="fill:#bbbbb1;" class="mapplic-clickable"></polygon><polygon id="banhcafe" points="645.18 517.75 658.98 550.55 637.48 550.75 626.68 525.35 645.18 517.75" style="fill:#bbbbb1;" class="mapplic-clickable"></polygon><polygon id="credimas-e1" points="607.68 532.85 615.98 552.25 591.28 562.45 582.78 542.35 607.68 532.85" style="fill:#bbbbb1;" class="mapplic-clickable"></polygon><polygon id="fantastic-e1" points="615.88 552.45 622.18 566.85 615.28 578.05 660.78 626.25 658.68 627.95 646.48 632.75 640.88 619.15 618.68 628.15 600.48 584.95 591.28 562.65 615.88 552.45" style="fill:#bbbbb1;" class="mapplic-clickable"></polygon><polygon id="grupoeps-e1" points="428.28 736.35 424.98 818.25 411.78 817.95 412.48 799.85 383.68 799.35 386.18 735.55 428.28 736.35" style="fill:#bbbbb1;" class="mapplic-clickable"></polygon><polygon id="valentinas-e1" points="489.48 738.15 488.88 751.35 462.48 750.95 462.98 737.65 489.48 738.15" style="fill:#bbbbb1;" class="mapplic-clickable"></polygon><polygon id="looking-e1" points="447.48 792.05 446.68 804.75 425.68 804.45 426.18 791.65 447.48 792.05" style="fill:#bbbbb1;" class="mapplic-clickable"></polygon><polygon id="maxiefectivo-e1" points="693.18 505.45 708.78 511.55 724.88 549.75 720.08 563.15 696.88 555.25 700.78 545.85 684.88 508.45 693.18 505.45" style="fill:#bbbbb1;" class="mapplic-clickable"></polygon><polygon id="llanticentro-e1" points="744.88 725.45 743.98 748.35 705.98 747.65 706.78 728.15 732.28 729.25 744.88 725.45" style="fill:#bbbbb1;" class="mapplic-clickable"></polygon><polygon id="prontocar-e1" points="766.38 720.05 767.28 737.55 744.48 737.15 744.98 725.45 766.38 720.05" style="fill:#bbbbb1;" class="mapplic-clickable"></polygon><polygon id="elgallomasgallo-e1" points="767.28 737.55 767.68 747.55 762.38 748.45 756.98 748.55 744.08 748.35 744.48 737.15 767.28 737.55" style="fill:#bbbbb1;"></polygon><polyline id="bac-e1" points="605.38 482.65 610.98 496.05 592.18 503.25 586.68 490.15" style="fill:#bbbbb1;" class="mapplic-clickable"></polyline><polyline id="surticascos-e1" points="489.48 807.35 488.88 821.85 461.38 821.35 461.98 806.85" style="fill:#bbbbb1;" class="mapplic-clickable"></polyline></g><g id="routes"><line x1="402.68" y1="833.36" x2="456.33" y2="833.02" style="fill:none; stroke:#000; stroke-miterlimit:10; stroke-width:.5px;"></line><line x1="458.77" y1="801.55" x2="456.33" y2="833.02" style="fill:none; stroke:#000; stroke-miterlimit:10; stroke-width:.5px;"></line><line id="pf-escaleraoeste" x1="471.98" y1="784.31" x2="461.38" y2="772.85" style="fill:none; stroke:#000; stroke-miterlimit:10;"></line><line id="p-grupoeps-e1" x1="402.6" y1="815.75" x2="402.68" y2="833.36" style="fill:none; stroke:#000; stroke-miterlimit:10;"></line><line id="p-looking-e1" x1="453.08" y1="802.15" x2="458.77" y2="801.55" style="fill:none; stroke:#000; stroke-miterlimit:10;"></line><line id="p-surticascos-e1" x1="477.88" y1="802.45" x2="458.77" y2="801.55" style="fill:none; stroke:#000; stroke-miterlimit:10;"></line><line x1="461.38" y1="772.85" x2="458.77" y2="801.55" style="fill:none; stroke:#000; stroke-miterlimit:10;"></line><line id="p-valentinas-e1" x1="476.38" y1="766.85" x2="461.38" y2="772.85" style="fill:none; stroke:#000; stroke-miterlimit:10;"></line><line x1="698.94" y1="774.98" x2="750.78" y2="774.46" style="fill:none; stroke:#000; stroke-miterlimit:10;"></line><line x1="622.68" y1="669.61" x2="698.94" y2="774.98" style="fill:none; stroke:#000; stroke-miterlimit:10;"></line><line x1="597.88" y1="618.04" x2="622.68" y2="669.61" style="fill:none; stroke:#000; stroke-miterlimit:10;"></line><line x1="568.55" y1="536.2" x2="597.88" y2="618.04" style="fill:none; stroke:#000; stroke-miterlimit:10;"></line><line x1="605.68" y1="520.02" x2="568.55" y2="536.2" style="fill:none; stroke:#000; stroke-miterlimit:10;"></line><line id="p-credimas-e1" x1="604.98" y1="531.15" x2="605.68" y2="520.02" style="fill:none; stroke:#000; stroke-miterlimit:10; stroke-width:.5px;"></line><line id="p-bac-e1" x1="603.18" y1="513.05" x2="605.68" y2="520.02" style="fill:none; stroke:#000; stroke-miterlimit:10; stroke-width:.5px;"></line><line x1="624.63" y1="507.45" x2="605.68" y2="520.02" style="fill:none; stroke:#000; stroke-miterlimit:10; stroke-width:.5px;"></line><line x1="652.18" y1="505.45" x2="624.63" y2="507.45" style="fill:none; stroke:#000; stroke-miterlimit:10; stroke-width:.5px;"></line><line id="pf-escaleraeste" x1="640.63" y1="511.2" x2="652.18" y2="505.45" style="fill:none; stroke:#000; stroke-miterlimit:10; stroke-width:.5px;"></line><line id="p-cooperativa-e1" x1="654.18" y1="511.75" x2="652.18" y2="505.45" style="fill:none; stroke:#000; stroke-miterlimit:10; stroke-width:.5px;"></line><line id="p-webcenter-e1" x1="647.33" y1="498.05" x2="652.18" y2="505.45" style="fill:none; stroke:#000; stroke-miterlimit:10; stroke-width:.5px;"></line><line x1="675.28" y1="499.4" x2="652.18" y2="505.45" style="fill:none; stroke:#000; stroke-miterlimit:10; stroke-width:.5px;"></line><line id="p-papajohns-e1" x1="671.18" y1="494.25" x2="675.28" y2="499.4" style="fill:none; stroke:#000; stroke-miterlimit:10; stroke-width:.5px;"></line><line id="p-maxiefectivo-e1" x1="685.08" y1="504.15" x2="675.28" y2="499.4" style="fill:none; stroke:#000; stroke-miterlimit:10; stroke-width:.5px;"></line><line id="p-granoyoro-e1" x1="623.26" y1="505.45" x2="624.63" y2="507.45" style="fill:none; stroke:#000; stroke-miterlimit:10; stroke-width:.5px;"></line><line id="p-llanticentro-e1" x1="715.38" y1="764.95" x2="698.94" y2="774.98" style="fill:none; stroke:#000; stroke-miterlimit:10; stroke-width:.5px;"></line><line id="p-elgallomasgallo-e1" x1="749.43" y1="766.51" x2="750.78" y2="774.46" style="fill:none; stroke:#000; stroke-miterlimit:10; stroke-width:.5px;"></line><line id="p-fantastic-e1" x1="604.48" y1="617.25" x2="597.88" y2="618.04" style="fill:none; stroke:#000; stroke-miterlimit:10; stroke-width:.5px;"></line></g><g id="nopointer-logos"><path d="m429.58,794.35h.5v1.9h.9v.4h-1.4v-2.3h0Z"></path><path d="m433.28,795.45c0,.8-.4,1.2-1.1,1.2s-1.1-.5-1.1-1.2.4-1.2,1.1-1.2,1.1.6,1.1,1.2Zm-1.7.1c0,.5.2.8.6.8s.6-.3.6-.8c0-.4-.2-.8-.6-.8s-.6.3-.6.8h0Z"></path><path d="m435.68,795.45c0,.8-.5,1.2-1.1,1.2s-1.1-.5-1.1-1.2.4-1.2,1.1-1.2,1.1.6,1.1,1.2h0Zm-1.6.1c0,.5.2.8.6.8s.5-.3.5-.8c0-.4-.2-.8-.5-.8s-.6.3-.6.8h0Z"></path><path d="m436.08,794.35h.5v1h0c0-.1.1-.2.2-.2l.5-.8h.6l-.8,1,.8,1.3h-.6l-.6-1-.2.2v.8h-.5l.1-2.3h0Z"></path><path d="m438.68,794.35v2.3h-.5v-2.3h.5Z"></path><path d="m439.08,796.65v-2.3h.6l.5.8c.1.2.3.5.4.8h0v-1.7h.5v2.3h-.5l-.5-.9c-.1-.2-.3-.5-.4-.8h0v1.7l-.6.1h0Z"></path><path d="m443.38,796.55c-.2,0-.5.1-.8.1-.4,0-.7-.1-.9-.3s-.3-.5-.3-.8c0-.8.6-1.2,1.3-1.2.3,0,.5.1.6.1l-.1.4c-.1,0-.3-.1-.5-.1-.4,0-.8.2-.8.7s.3.8.7.8h.2v-.5h-.4v-.4h.9l.1,1.2h0Z"></path><path d="m430.08,798.95l-.2.6h-.5l.7-2.3h.7l.7,2.3h-.6l-.2-.6h-.6,0Zm.6-.4l-.1-.5c0-.1-.1-.3-.1-.4h0c0,.1-.1.3-.1.4l-.1.5h.4Z"></path><path d="m433.68,798.65v-.9h0c-.1.3-.2.6-.2.9l-.3.9h-.4l-.2-.9c-.1-.3-.1-.6-.2-.9h0v1.9h-.5l.1-2.3h.7l.2.8c.1.3.1.5.2.8h0c.1-.3.1-.6.2-.8l.2-.8h.7l.1,2.3h-.5l-.1-1h0Z"></path><path d="m435.18,798.95l-.2.6h-.5l.7-2.3h.7l.7,2.3h-.6l-.2-.6h-.6,0Zm.6-.4l-.1-.5c0-.1-.1-.3-.1-.4h0c0,.1-.1.3-.1.4l-.1.5h.4Z"></path><path d="m436.68,799.25l1.1-1.6h-1v-.4h1.7v.3l-1.1,1.5h1.1v.4h-1.8v-.2h0Z"></path><path d="m439.38,797.25v2.3h-.5v-2.3h.5Z"></path><path d="m439.78,799.55v-2.3h.6l.5.8c.1.2.3.5.4.8h0v-1.7h.5v2.3h-.5l-.5-.9c-.1-.2-.3-.5-.4-.8h0v1.7l-.6.1h0Z"></path><path d="m444.08,799.45c-.2,0-.5.1-.8.1-.4,0-.7-.1-.9-.3s-.3-.5-.3-.8c0-.8.6-1.2,1.3-1.2.3,0,.5.1.6.1l-.1.4c-.1,0-.3-.1-.5-.1-.4,0-.8.2-.8.7s.3.8.7.8h.2v-.5h-.4v-.4h.9l.1,1.2h0Z"></path><path d="m430.88,800.25h.7c.3,0,.5,0,.7.1s.3.2.3.5-.1.4-.4.5h0c.3.1.4.3.4.6,0,.2-.1.4-.2.5-.2.1-.4.2-.9.2h-.6v-2.4h0Zm.5.9h.2c.3,0,.4-.1.4-.3s-.1-.3-.4-.3h-.2v.6h0Zm0,1h.2c.2,0,.4-.1.4-.3s-.2-.3-.5-.3h-.2v.6h.1Z"></path><path d="m434.28,801.55h-.8v.5h.9v.4h-1.5v-2.3h1.4v.4h-.9v.5h.8v.5h.1Z"></path><path d="m435.28,801.95l-.2.6h-.5l.7-2.3h.7l.7,2.3h-.6l-.2-.6h-.6,0Zm.6-.4l-.1-.5c0-.1-.1-.3-.1-.4h0c0,.1-.1.3-.1.4l-.1.5h.4Z"></path><path d="m437.38,800.25v1.3c0,.4.1.6.4.6s.4-.2.4-.6v-1.3h.5v1.3c0,.7-.4,1-1,1s-.9-.3-.9-1v-1.3h.6Z"></path><path d="m439.58,800.65h-.6v-.4h1.8v.4h-.6v1.9h-.5l-.1-1.9h0Z"></path><path d="m441.58,802.55v-1l-.7-1.4h.6l.2.5c.1.2.1.3.2.4h0c0-.1.1-.3.2-.4l.2-.5h.6l-.8,1.3v1h-.5v.1Z"></path><path d="m465.68,815.55c.1.1.4.1.6.1s.4-.1.4-.2-.1-.2-.4-.3c-.4-.1-.6-.3-.6-.7s.3-.7.9-.7c.3,0,.5,0,.6.1l-.1.4c-.1,0-.2-.1-.5-.1s-.3.1-.3.2.1.2.4.3c.4.1.6.4.6.7,0,.4-.3.7-.9.7-.3,0-.5-.1-.6-.1l-.1-.4h0Z"></path><path d="m468.08,813.75v1.3c0,.4.1.6.4.6s.4-.2.4-.6v-1.3h.5v1.3c0,.7-.4,1-1,1s-.9-.3-.9-1v-1.3h.6Z"></path><path d="m469.88,813.85h.7c.3,0,.6,0,.7.2.1.1.2.3.2.5,0,.3-.2.5-.4.6h0c.2.1.2.2.3.4.1.3.1.6.2.6h-.5c0-.1-.1-.2-.2-.5s-.2-.4-.4-.4h-.2v.9h-.5l.1-2.3h0Zm.5,1h.2c.3,0,.4-.1.4-.3s-.1-.3-.4-.3h-.2v.6h0Z"></path><path d="m472.28,814.25h-.6v-.4h1.8v.4h-.6v1.9h-.5l-.1-1.9h0Z"></path><path d="m474.28,813.75v2.3h-.5v-2.3h.5Z"></path><path d="m476.38,816.05c-.1,0-.3.1-.6.1-.8,0-1.2-.5-1.2-1.1,0-.8.6-1.2,1.2-1.2.3,0,.5,0,.6.1l-.1.4c-.1,0-.2-.1-.4-.1-.4,0-.7.2-.7.8,0,.5.3.8.7.8.2,0,.3,0,.4-.1l.1.3h0Z"></path><path d="m477.28,815.55l-.2.6h-.5l.7-2.3h.7l.7,2.3h-.6l-.2-.6h-.6Zm.6-.4l-.1-.5c0-.1-.1-.3-.1-.4h0c0,.1-.1.3-.1.4l-.1.5h.4Z"></path><path d="m478.98,815.55c.1.1.4.1.6.1s.4-.1.4-.2-.1-.2-.4-.3c-.4-.1-.6-.3-.6-.7s.3-.7.9-.7c.3,0,.5,0,.6.1l-.1.4c-.1,0-.2-.1-.5-.1s-.3.1-.3.2.1.2.4.3c.4.1.6.4.6.7,0,.4-.3.7-.9.7-.3,0-.5-.1-.6-.1l-.1-.4h0Z"></path><path d="m482.48,816.05c-.1,0-.3.1-.6.1-.8,0-1.2-.5-1.2-1.1,0-.8.6-1.2,1.2-1.2.3,0,.5,0,.6.1l-.1.4c-.1,0-.2-.1-.4-.1-.4,0-.7.2-.7.8,0,.5.3.8.7.8.2,0,.3,0,.4-.1l.1.3h0Z"></path><path d="m484.78,814.95c0,.8-.5,1.2-1.1,1.2s-1.1-.5-1.1-1.2.4-1.2,1.1-1.2,1.1.5,1.1,1.2h0Zm-1.6,0c0,.5.2.8.6.8s.5-.3.5-.8c0-.4-.2-.8-.5-.8s-.6.3-.6.8h0Z"></path><path d="m485.18,815.55c.1.1.4.1.6.1s.4-.1.4-.2-.1-.2-.4-.3c-.4-.1-.6-.3-.6-.7s.3-.7.9-.7c.3,0,.5,0,.6.1l-.1.4c-.1,0-.2-.1-.5-.1s-.3.1-.3.2.1.2.4.3c.4.1.6.4.6.7,0,.4-.3.7-.9.7-.3,0-.5-.1-.6-.1l-.1-.4h0Z"></path><path d="m467.58,746.15l-.7-2.3h.6l.3,1c.1.3.1.5.2.8h0c.1-.3.1-.5.2-.8l.3-1h.5l-.8,2.3h-.6Z"></path><path d="m469.58,745.55l-.2.6h-.5l.7-2.3h.7l.7,2.3h-.6l-.2-.6h-.6Zm.5-.4l-.1-.5c0-.1-.1-.3-.1-.4h0c0,.1-.1.3-.1.4l-.1.5h.4Z"></path><path d="m471.28,743.85h.5v1.9h.9v.4h-1.4v-2.3Z"></path><path d="m474.38,745.15h-.8v.5h.9v.4h-1.5v-2.3h1.4v.4h-.9v.5h.8v.5h.1Z"></path><path d="m474.78,746.15v-2.3h.6l.5.8c.1.2.3.5.4.8h0v-1.7h.5v2.3h-.5l-.5-.9c-.1-.2-.3-.5-.4-.8h0v1.7l-.6.1h0Z"></path><path d="m477.58,744.25h-.6v-.4h1.8v.4h-.6v1.9h-.5l-.1-1.9h0Z"></path><path d="m479.48,743.85v2.3h-.5v-2.3h.5Z"></path><path d="m479.98,746.15v-2.3h.6l.5.8c.1.2.3.5.4.8h0v-1.7h.5v2.3h-.5l-.5-.9c-.1-.2-.3-.5-.4-.8h0v1.7l-.6.1h0Z"></path><path d="m482.78,745.55l-.2.6h-.5l.7-2.3h.7l.7,2.3h-.5l-.2-.6h-.7Zm.6-.4l-.1-.5c0-.1-.1-.3-.1-.4h0c0,.1-.1.3-.1.4l-.1.5h.4Z"></path><path d="m484.58,745.55c.1.1.4.1.6.1s.4-.1.4-.2-.1-.2-.4-.3c-.4-.1-.6-.3-.6-.7s.3-.7.9-.7c.3,0,.5,0,.6.1l-.1.4c-.1,0-.2-.1-.5-.1s-.3.1-.3.2.1.2.4.3c.4.1.6.4.6.7,0,.4-.3.7-.9.7-.3,0-.5-.1-.6-.1l-.1-.4h0Z"></path><path d="m713.98,737.85h.5v1.9h.9v.4h-1.4v-2.3Z"></path><path d="m715.68,737.85h.5v1.9h.9v.4h-1.4v-2.3Z"></path><path d="m717.98,739.55l-.2.6h-.5l.7-2.3h.7l.7,2.3h-.6l-.1-.6h-.7Zm.6-.4l-.1-.5c0-.1-.1-.3-.1-.4h0c0,.1-.1.3-.1.4l-.1.5h.4,0Z"></path><path d="m719.68,740.05v-2.3h.6l.5.8c.1.2.3.5.4.8h0v-1.7h.5v2.3h-.5l-.5-.9c-.1-.2-.3-.5-.4-.8h0v1.7l-.6.1h0Z"></path><path d="m722.48,738.25h-.6v-.4h1.8v.4h-.6v1.9h-.5v-1.9h-.1Z"></path><path d="m724.38,737.85v2.3h-.5v-2.3h.5Z"></path><path d="m726.48,740.05c-.1,0-.3.1-.6.1-.8,0-1.2-.5-1.2-1.1,0-.8.6-1.2,1.2-1.2.3,0,.5,0,.6.1l-.1.4c-.1,0-.2-.1-.4-.1-.4,0-.7.2-.7.8,0,.5.3.8.7.8.2,0,.3,0,.4-.1l.1.3h0Z"></path><path d="m728.18,739.15h-.8v.5h.9v.4h-1.5v-2.3h1.4v.4h-.9v.5h.8l.1.5h0Z"></path><path d="m728.68,740.05v-2.3h.6l.5.8c.1.2.3.5.4.8h0v-1.7h.5v2.3h-.5l-.5-.9c-.1-.2-.3-.5-.4-.8h0v1.7l-.6.1h0Z"></path><path d="m731.48,738.25h-.6v-.4h1.8v.4h-.6v1.9h-.5v-1.9h-.1Z"></path><path d="m732.88,737.85h.7c.3,0,.6,0,.7.2.1.1.2.3.2.5,0,.3-.2.5-.4.6h0c.2.1.2.2.3.4.1.3.1.6.2.6h-.5c0-.1-.1-.2-.2-.5-.1-.3-.2-.4-.4-.4h-.2v.9h-.5l.1-2.3h0Zm.5,1h.2c.3,0,.4-.1.4-.3s-.1-.3-.4-.3h-.2v.6h0Z"></path><path d="m736.98,738.95c0,.8-.5,1.2-1.1,1.2s-1.1-.5-1.1-1.2.4-1.2,1.1-1.2,1.1.6,1.1,1.2Zm-1.7,0c0,.5.2.8.6.8s.5-.3.5-.8c0-.4-.2-.8-.5-.8s-.6.4-.6.8h0Z"></path><path d="m747.08,730.15h.6c.3,0,.5,0,.6.2.1.1.2.3.2.5s-.1.4-.2.5c-.2.1-.4.2-.7.2h-.2v.7h-.5v-2.1h.2Zm.4,1h.2c.2,0,.4-.1.4-.3s-.1-.3-.4-.3h-.2v.6h0Z"></path><path d="m748.88,730.15h.6c.3,0,.5,0,.7.2.1.1.2.2.2.4,0,.3-.2.4-.4.5h0c.1.1.2.2.3.4.1.2.1.5.2.6h-.5c0-.1-.1-.2-.1-.5s-.1-.3-.3-.3h-.1v.8h-.5l-.1-2.1h0Zm.4.9h.2c.2,0,.4-.1.4-.3s-.1-.3-.3-.3h-.2l-.1.6h0Z"></path><path d="m752.48,731.15c0,.7-.4,1.1-1,1.1s-1-.5-1-1c0-.6.4-1.1,1-1.1s1,.5,1,1h0Zm-1.4.1c0,.4.2.7.5.7s.5-.3.5-.7-.2-.7-.5-.7-.5.3-.5.7Z"></path><path d="m752.88,732.25v-2.1h.5l.4.8c.1.2.2.5.3.7h0v-1.5h.4v2.1h-.5l-.4-.8c-.1-.2-.3-.5-.4-.7h0v1.5h-.3Z"></path><path d="m755.38,730.55h-.6v-.4h1.6v.4h-.6v1.7h-.5l.1-1.7h0Z"></path><path d="m758.48,731.15c0,.7-.4,1.1-1,1.1s-1-.5-1-1c0-.6.4-1.1,1-1.1s1,.5,1,1h0Zm-1.5.1c0,.4.2.7.5.7s.5-.3.5-.7-.2-.7-.5-.7-.5.3-.5.7Z"></path><path d="m760.88,732.15c-.1,0-.3.1-.5.1-.7,0-1.1-.4-1.1-1,0-.7.5-1.1,1.1-1.1.2,0,.4,0,.5.1l-.1.4c-.1,0-.2-.1-.4-.1-.4,0-.7.2-.7.7,0,.4.2.7.7.7.1,0,.3,0,.4-.1l.1.3h0Z"></path><path d="m761.68,731.75l-.2.5h-.5l.6-2.1h.6l.6,2.1h-.5l-.2-.5h-.4,0Zm.5-.4l-.1-.4c0-.1-.1-.3-.1-.4h0c0,.1-.1.3-.1.4l-.1.4h.4,0Z"></path><path d="m763.18,730.15h.6c.3,0,.5,0,.7.2.1.1.2.2.2.4,0,.3-.2.4-.4.5h0c.1.1.2.2.3.4.1.2.1.5.2.6h-.5c0-.1-.1-.2-.1-.5s-.1-.3-.3-.3h-.2v.8h-.5v-2.1h0Zm.5.9h.2c.2,0,.4-.1.4-.3s-.1-.3-.3-.3h-.2l-.1.6h0Z"></path><path d="m750.08,741.75h-.8v.5h.8v.4h-1.3v-2.1h1.3v.4h-.8v.4h.8v.4h0Z"></path><path d="m750.48,740.55h.5v1.7h.8v.4h-1.3v-2.1h0Z"></path><path d="m754.48,742.55c-.1,0-.4.1-.7.1-.4,0-.7-.1-.8-.3-.2-.2-.3-.5-.3-.8,0-.7.5-1.1,1.2-1.1.3,0,.5,0,.6.1l-.1.4c-.1,0-.2-.1-.5-.1-.4,0-.7.2-.7.7s.3.7.7.7h.2v-.4h-.4v-.4h.8v1.1h0Z"></path><path d="m755.28,742.15l-.2.5h-.4l.6-2.1h.6l.6,2.1h-.5l-.2-.5h-.5,0Zm.5-.4l-.1-.4c0-.1-.1-.3-.1-.4h0c0,.1-.1.3-.1.4l-.1.4h.4,0Z"></path><path d="m756.78,740.55h.5v1.7h.8v.4h-1.3v-2.1h0Z"></path><path d="m758.38,740.55h.5v1.7h.8v.4h-1.3v-2.1h0Z"></path><path d="m761.68,741.55c0,.7-.4,1.1-1,1.1s-1-.5-1-1c0-.6.4-1.1,1-1.1s1,.5,1,1h0Zm-1.5.1c0,.4.2.7.5.7s.5-.3.5-.7-.2-.7-.5-.7-.5.3-.5.7Z"></path><path d="m749.08,744.55v-.9h0c-.1.3-.2.6-.2.8l-.2.8h-.4l-.2-.8c-.1-.2-.1-.5-.2-.8h0v1.7h-.4l.1-2.1h.6l.2.7c.1.2.1.5.2.7h0c.1-.2.1-.5.2-.7l.2-.7h.6l.1,2.1h-.5l-.1-.8h0Z"></path><path d="m750.48,744.75l-.2.5h-.5l.6-2.1h.6l.6,2.1h-.5l-.2-.5h-.4,0Zm.5-.3l-.1-.4c0-.1-.1-.3-.1-.4h0c0,.1-.1.3-.1.4l-.1.4h.4,0Z"></path><path d="m751.98,744.85c.1.1.3.1.5.1s.3-.1.3-.2-.1-.2-.3-.3c-.3-.1-.6-.3-.6-.6,0-.4.3-.6.8-.6.2,0,.4,0,.5.1l-.1.4c-.1,0-.2-.1-.4-.1s-.3.1-.3.2.1.2.4.3c.4.1.5.3.5.6,0,.4-.3.6-.8.6-.2,0-.5-.1-.6-.1l.1-.4h0Z"></path><path d="m755.98,745.25c-.1,0-.4.1-.7.1-.4,0-.7-.1-.8-.3-.2-.2-.3-.5-.3-.8,0-.7.5-1.1,1.2-1.1.3,0,.5,0,.6.1l-.1.4c-.1,0-.2-.1-.5-.1-.4,0-.7.2-.7.7s.3.7.7.7h.2v-.4h-.3v-.4h.8l-.1,1.1h0Z"></path><path d="m756.78,744.75l-.2.5h-.5l.6-2.1h.6l.6,2.1h-.5l-.2-.5h-.4,0Zm.5-.3l-.1-.4c0-.1-.1-.3-.1-.4h0c0,.1-.1.3-.1.4l-.1.4h.4,0Z"></path><path d="m758.38,743.25h.5v1.7h.8v.4h-1.3v-2.1h0Z"></path><path d="m759.88,743.25h.5v1.7h.8v.4h-1.3v-2.1h0Z"></path><path d="m763.28,744.25c0,.7-.4,1.1-1,1.1s-1-.5-1-1c0-.6.4-1.1,1-1.1s1,.4,1,1h0Zm-1.5,0c0,.4.2.7.5.7s.5-.3.5-.7-.2-.7-.5-.7-.5.3-.5.7Z"></path><path d="m408.68,789.15c.1.3.2.9.2,1.5,0,.8-.2,1.4-.6,1.8-.4.4-1,.6-1.6.6-1.5,0-2.4-1.1-2.4-2.6,0-.6.1-1,.2-1.3l.8.2c-.1.2-.2.6-.2,1,0,.9.5,1.5,1.5,1.5s1.5-.6,1.5-1.4c0-.2,0-.4-.1-.5h-.9v.7h-.8v-1.7l2.4.2h0Z"></path><path d="m404.48,788.35c-.1-.3-.1-.8-.1-1.4,0-.7.1-1.1.4-1.5.2-.3.5-.4.9-.4.6,0,1,.4,1.1.8h0c.1-.3.4-.5.9-.6s1.1-.3,1.3-.4v1c-.1.1-.5.2-1.1.3-.6.1-.7.3-.7.7v.3h1.8v1l-4.5.2h0Zm1.9-1v-.4c0-.5-.3-.8-.6-.8-.4,0-.6.3-.6.8v.5h1.2v-.1h0Z"></path><path d="m404.38,783.45h2.6c.8,0,1.2-.3,1.2-.8s-.4-.8-1.2-.8h-2.6v-1h2.5c1.4,0,2.1.7,2.1,1.9s-.6,1.8-2.1,1.8h-2.5v-1.1h0Z"></path><path d="m404.48,779.85c-.1-.3-.1-.8-.1-1.4s.1-1.1.4-1.4c.2-.3.6-.5,1.1-.5s.8.1,1.1.4c.3.4.5.9.5,1.5v.4h1.6v1h-4.6Zm2-1v-.3c0-.5-.3-.9-.7-.9s-.7.3-.7.8v.4h1.4Z"></path><path d="m406.58,771.85c1.5,0,2.4.9,2.4,2.2s-1,2.1-2.3,2.1c-1.4,0-2.4-.9-2.4-2.2s1-2.1,2.3-2.1Zm.1,3.2c.9,0,1.5-.4,1.5-1.1s-.7-1.1-1.5-1.1-1.5.4-1.5,1.1.6,1.1,1.5,1.1h0Z"></path><path d="m406.98,767.05v1.7h1.1v-1.9h.8v2.9h-4.5v-2.8h.8v1.8h.9v-1.7h.9Z"></path><path d="m404.48,766.15c-.1-.3-.1-.8-.1-1.4s.1-1.1.4-1.4c.2-.3.6-.5,1.1-.5s.8.1,1.1.4c.3.4.5.9.5,1.5v.4h1.6v1h-4.6Zm2-1v-.3c0-.5-.3-.9-.7-.9s-.7.3-.7.8v.4h1.4Z"></path><path d="m407.88,762.25c.1-.3.3-.7.3-1.1,0-.5-.2-.7-.5-.7s-.4.2-.6.8c-.3.8-.7,1.2-1.3,1.2-.8,0-1.4-.6-1.4-1.7,0-.5.1-.9.2-1.2l.8.2c-.1.2-.2.5-.2,1s.2.7.4.7c.3,0,.4-.2.6-.8.3-.8.7-1.2,1.4-1.2.8,0,1.4.6,1.4,1.8,0,.5-.1,1-.3,1.3l-.8-.3h0Z"></path><path d="m593.48,551.55c-.1.1-.3.3-.6.4-.9.4-1.6,0-1.9-.7-.4-.9,0-1.6.8-1.9.3-.1.5-.2.7-.2l.1.5c-.1,0-.3,0-.5.1-.5.2-.7.6-.4,1.2.2.5.7.7,1.2.5.2-.1.4-.2.4-.3l.2.4h0Z"></path><path d="m592.78,548.95c.2-.1.4-.2.7-.4.4-.2.7-.2.9-.2.2.1.4.2.5.4.1.3,0,.6-.2.8h0c.2,0,.4.1.5.3.2.2.4.6.5.6l-.6.2c-.1-.1-.2-.2-.4-.5-.2-.3-.4-.3-.6-.2l-.2.1.4,1-.6.2-.9-2.3h0Zm1,.9l.2-.1c.3-.1.4-.3.3-.6-.1-.2-.3-.3-.6-.2-.1.1-.2.1-.2.1l.3.8h0Z"></path><path d="m597.08,548.75l-.9.4.3.6,1-.4.2.5-1.6.7-1.1-2.5,1.6-.7.2.5-1,.4.2.5.9-.4.2.4h0Z"></path><path d="m596.98,547.15c.2-.1.5-.3.8-.4.5-.2.8-.3,1.1-.2.4.1.6.3.8.8.2.5.2.9,0,1.2s-.5.6-1,.8c-.3.1-.5.2-.7.2l-1-2.4h0Zm1.5,1.8s.1,0,.2-.1c.5-.2.7-.6.5-1.3-.2-.5-.6-.7-1.1-.5-.1.1-.2.1-.2.1l.6,1.8h0Z"></path><path d="m600.18,545.75l1.1,2.5-.6.3-1.1-2.5.6-.3Z"></path><path d="m603.48,546.15c-.1-.3-.3-.7-.5-1h0c.1.4.1.8.1,1.1l.1,1.1-.5.2-.7-.9c-.2-.3-.5-.6-.7-.9h0c.1.4.3.8.4,1.1l.4,1-.5.2-.9-2.6.8-.3.6.7c.2.3.4.5.6.8h0c-.1-.3-.1-.7-.2-1l-.1-1,.8-.3,1.2,2.5-.6.2-.3-.9h0Z"></path><path d="m605.18,545.75l.1.7-.6.3-.3-2.9.8-.3,1.9,2.2-.6.3-.5-.6-.8.3h0Zm.5-.7l-.4-.5c-.1-.1-.2-.3-.3-.4h0c0,.2.1.4.1.5l.1.6.5-.2h0Z"></path><path d="m607.18,544.95c.2,0,.5,0,.7-.1.3-.1.4-.3.3-.4-.1-.2-.2-.2-.6-.2-.5,0-.9-.1-1-.4-.2-.4,0-.9.6-1.2.3-.1.5-.2.7-.1l.1.5c-.1,0-.3,0-.6.1s-.3.3-.3.4c.1.2.2.2.6.1.5,0,.8.1,1,.5s0,.9-.7,1.2c-.3.1-.6.2-.8.2v-.6h0Z"></path><path d="m613.68,487.15c-.1.1-.4.4-.8.5-.5.2-.8.2-1.2.1-.3-.1-.6-.4-.8-.8-.4-.8,0-1.6.8-2,.3-.1.6-.2.8-.2l.1.5c-.2,0-.4,0-.6.2-.5.2-.7.6-.5,1.2.2.5.7.7,1.2.5.1-.1.2-.1.3-.2l-.2-.5-.4.2-.2-.4.9-.4.6,1.3h0Z"></path><path d="m612.98,484.55c.2-.1.4-.3.7-.4.4-.2.7-.2.9-.2.2.1.4.2.5.4.1.3,0,.6-.2.8h0c.2,0,.4.1.5.3.2.2.4.5.5.6l-.6.3c-.1-.1-.2-.2-.4-.5-.2-.3-.4-.3-.6-.2l-.2.1.5,1-.6.3-1-2.5h0Zm1.1.8l.2-.1c.3-.1.4-.4.3-.6s-.3-.3-.6-.2c-.1.1-.2.1-.2.1l.3.8h0Z"></path><path d="m616.68,485.05l.1.7-.6.3-.4-2.9.7-.3,1.9,2.1-.6.3-.5-.6-.6.4h0Zm.4-.7l-.4-.5c-.1-.1-.2-.3-.4-.4h0c0,.2.1.4.1.5l.1.6.6-.2h0Z"></path><path d="m618.78,484.85l-1.2-2.5.7-.3.9.7c.3.2.6.4.8.7h0c-.2-.3-.4-.6-.5-1l-.3-.7.5-.2,1.2,2.5-.6.3-1-.7c-.3-.2-.6-.4-.8-.7h0c.2.3.3.7.5,1.1l.4.8s-.6,0-.6,0Z"></path><path d="m623.08,481.35c.4.8.1,1.6-.6,1.9s-1.4,0-1.8-.7c-.4-.8-.1-1.5.6-1.9.8-.4,1.4,0,1.8.7h0Zm-1.8.8c.2.5.6.7,1,.6s.4-.6.2-1.1c-.2-.4-.6-.7-1-.6-.4.2-.4.7-.2,1.1h0Z"></path><path d="m614.68,490.65l-.5-1-1.5-1.1.6-.3.5.5c.2.1.3.2.4.4h0v-1.3l.6-.3-.1,1.8.5,1-.5.3h0Z"></path><path d="m618.68,487.25c.4.8.1,1.6-.6,1.9s-1.4,0-1.8-.7c-.4-.8-.1-1.5.6-1.9.8-.4,1.5,0,1.8.7h0Zm-1.7.8c.2.5.6.7,1,.6s.4-.6.2-1.1c-.2-.4-.6-.7-1-.6-.4.2-.5.7-.2,1.1h0Z"></path><path d="m618.58,485.85c.2-.1.4-.3.7-.4.4-.2.7-.2.9-.2.2.1.4.2.5.4.1.3,0,.6-.2.8h0c.2,0,.4.1.5.3.2.2.4.5.5.6l-.6.3c-.1-.1-.2-.2-.5-.5-.2-.3-.4-.3-.6-.2l-.2.1.5,1-.6.3-.9-2.5h0Zm1,.8l.2-.1c.3-.1.4-.4.3-.6s-.3-.3-.6-.2c-.1.1-.2.1-.2.1l.3.8h0Z"></path><path d="m623.58,484.95c.4.8.1,1.6-.6,1.9s-1.4,0-1.8-.7c-.4-.8-.1-1.5.6-1.9.8-.3,1.5.1,1.8.7h0Zm-1.8.9c.2.5.6.7,1,.6s.4-.6.2-1.1c-.2-.4-.6-.7-1-.6-.4.2-.4.6-.2,1.1h0Z"></path><path d="m632.68,478.95l-1.8-2.2.6-.3.7.9c.2.3.4.6.5.8h0c-.1-.3-.2-.6-.2-1l-.3-1.1.6-.3.7,1c.2.3.4.5.5.8h0c-.1-.3-.2-.6-.3-.9l-.3-1.1.6-.3.5,2.8-.6.3-.7-1c-.2-.2-.3-.4-.5-.7h0c.1.3.2.6.2.8l.3,1.2-.5.3h0Z"></path><path d="m636.58,475.85l-.9.4.3.6,1-.5.2.5-1.6.7-1.2-2.5,1.5-.7.2.5-1,.4.2.5.9-.4.4.5h0Z"></path><path d="m636.48,474.15c.1-.1.4-.3.7-.4.4-.2.6-.2.8-.2s.4.1.5.4c.1.2.1.5-.2.7h0c.3-.1.6.1.8.4.1.2.1.4,0,.6s-.4.4-.9.7c-.3.1-.5.2-.6.2l-1.1-2.4h0Zm1,.7l.2-.1c.3-.1.4-.3.3-.5s-.3-.2-.5-.1c-.1.1-.2.1-.2.1l.2.6h0Zm.5,1.1c.1,0,.1-.1.2-.1.3-.1.4-.3.3-.6-.1-.2-.4-.2-.7-.1l-.2.1.4.7h0Z"></path><path d="m632.88,482.65c-.1.1-.3.3-.6.4-.9.4-1.6.1-1.9-.6-.4-.9,0-1.6.8-2,.3-.1.5-.2.7-.2l.1.5c-.1,0-.3,0-.5.1-.5.2-.7.6-.4,1.2.2.5.7.7,1.2.4.2-.1.3-.2.4-.3l.2.5h0Z"></path><path d="m634.28,480.85l-.9.4.3.6,1-.5.2.5-1.6.7-1.2-2.5,1.5-.7.2.5-1,.4.2.5.9-.4.4.5h0Z"></path><path d="m635.28,481.65l-1.2-2.5.7-.3.9.7c.3.2.6.4.8.7h0c-.2-.3-.4-.6-.5-1l-.3-.7.5-.2,1.2,2.5-.6.3-1-.7c-.3-.2-.6-.4-.8-.7h0c.2.3.3.7.5,1.1l.4.8s-.6,0-.6,0Z"></path><path d="m637.38,478.15l-.7.4-.2-.5,1.9-.9.2.5-.7.3.9,2-.6.3-.8-2.1h0Z"></path><path d="m640.88,477.75l-.9.4.3.6,1-.5.2.5-1.6.7-1.2-2.5,1.5-.7.2.5-1,.4.2.5.9-.4.4.5h0Z"></path><path d="m640.68,476.15c.2-.1.4-.3.7-.4.4-.2.7-.2.9-.2.2.1.4.2.5.4.1.3,0,.6-.2.8h0c.2,0,.4.1.5.3.2.2.4.5.5.6l-.6.3c-.1-.1-.2-.2-.4-.5-.2-.3-.4-.3-.6-.2l-.2.1.5,1-.6.3-1-2.5h0Zm1.1.8l.2-.1c.3-.1.4-.4.3-.6s-.3-.3-.6-.2c-.1.1-.2.1-.2.1l.3.8h0Z"></path><path d="m592.88,493.25c.2-.1.6-.4,1-.6.5-.2.9-.3,1.2-.3s.6.2.8.5c.1.3.1.7-.2,1.1h0c.5-.1.9.1,1.2.6.2.3.1.7,0,1-.2.3-.6.7-1.3,1-.4.2-.7.3-.9.4l-1.8-3.7h0Zm1.5,1l.3-.1c.4-.2.6-.5.5-.8s-.4-.3-.8-.1c-.2.1-.3.1-.4.2l.4.8h0Zm.8,1.7c.1,0,.2-.1.3-.1.4-.2.6-.5.5-.9-.2-.4-.6-.4-1-.2l-.3.1.5,1.1h0Z"></path><path d="m598.28,494.05l.2,1.1-.9.4-.6-4.3,1.1-.5,2.9,3.2-.9.4-.7-.8-1.1.5h0Zm.7-1.1l-.6-.7c-.2-.2-.4-.4-.5-.6h0c0,.2.1.6.2.8l.1.9.8-.4Z"></path><path d="m604.08,492.45c-.1.1-.4.4-.9.6-1.3.6-2.3.1-2.8-1-.6-1.3,0-2.4,1.1-2.9.4-.2.8-.3,1-.3l.1.8c-.2,0-.5.1-.8.2-.7.3-1,1-.6,1.8.4.8,1,1,1.8.7.2-.1.5-.3.6-.4l.5.5h0Z"></path><path d="m615.58,593.35l.9,1.9-.6.3-.6-1.2-.7.3.5,1.1-.6.3-.5-1.1-1.3.6-.3-.7,3.2-1.5h0Z"></path><path d="m614.58,597.35l-.9.1-.3-.7,3.6-.5.4.9-2.7,2.4-.4-.8.7-.6-.4-.8h0Zm.9.5l.6-.5c.2-.1.4-.3.5-.4h0c-.2,0-.5.1-.7.1l-.8.1.4.7h0Z"></path><path d="m614.78,600.05l3.1-1.5.4.8-.9,1.2c-.2.3-.5.7-.8,1h0c.4-.2.8-.4,1.3-.7l.9-.4.3.7-3.1,1.5-.4-.8.9-1.2c.2-.3.6-.7.9-1.1h0c-.4.2-.9.4-1.4.6l-1,.4-.2-.5h0Z"></path><path d="m619.18,602.65l-.4-.9.6-.3,1.1,2.4-.6.3-.4-.9-2.5,1.2-.3-.7,2.5-1.1h0Z"></path><path d="m618.48,605.85l-.9.1-.3-.7,3.6-.5.4.9-2.7,2.4-.4-.8.7-.6-.4-.8h0Zm.9.5l.6-.5c.2-.1.4-.3.5-.4h0c-.2,0-.5.1-.7.1l-.8.1.4.7h0Z"></path><path d="m619.48,608.15c0,.2,0,.6.2.9.1.3.4.4.6.3s.2-.3.2-.7c-.1-.6.1-1.1.5-1.3.5-.2,1.2,0,1.5.8.2.4.2.6.2.9l-.6.1c0-.1,0-.4-.2-.7-.1-.3-.4-.4-.5-.3-.2.1-.2.3-.2.8,0,.6-.1,1-.6,1.2s-1.2,0-1.6-.8c-.2-.4-.2-.8-.2-1l.7-.2h0Z"></path><path d="m622.78,610.45l-.4-.9.6-.3,1.1,2.4-.6.3-.4-.9-2.5,1.2-.3-.7,2.5-1.1h0Z"></path><path d="m624.58,612.85l-3.1,1.5-.3-.7,3.1-1.5.3.7Z"></path><path d="m622.88,617.25c-.1-.1-.3-.4-.5-.8-.5-1.1-.1-2,.8-2.4,1.1-.5,2,0,2.5,1,.2.4.2.7.2.8l-.6.1c0-.2,0-.4-.2-.6-.3-.6-.8-.9-1.5-.5-.6.3-.9.9-.6,1.5.1.2.3.4.4.5l-.5.4h0Z"></path><path d="m639.28,525.55c.1.1.3.4.4.7.2.4.2.6.2.8s-.1.4-.4.5c-.2.1-.5.1-.7-.2h0c0,.3-.1.6-.4.8-.2.1-.5.1-.6,0-.2-.1-.5-.4-.7-.9-.1-.3-.2-.5-.2-.6l2.4-1.1h0Zm-1.8,1.5c0,.07.03.13.1.2.1.3.3.4.6.3.2-.1.2-.4.1-.7l-.1-.2-.7.4h0Zm1.1-.5l.1.2c.1.3.3.4.5.3s.2-.3.1-.5c-.1-.1-.1-.2-.1-.2l-.6.2Z"></path><path d="m638.68,529.15l-.7.1-.3-.6,2.9-.4.3.7-2.1,1.9-.3-.6.5-.5-.3-.6h0Zm.8.5l.5-.4c.1-.1.3-.2.4-.4h0c-.2,0-.4.1-.5.1l-.6.1.2.6h0Z"></path><path d="m638.98,531.35l2.5-1.2.3.7-.7.9c-.2.3-.4.6-.7.8h0c.3-.2.6-.4,1-.5l.7-.3.2.5-2.5,1.2-.3-.6.7-1c.2-.3.5-.6.7-.8h0c-.3.2-.7.3-1.1.5l-.8.4v-.6h0Z"></path><path d="m642.88,533.25l-1,.4.4.9,1-.4.3.6-2.5,1.2-.3-.6,1-.5-.4-.9-1,.5-.3-.6,2.5-1.2.3.6Z"></path><path d="m642.28,538.25c-.1-.1-.3-.3-.4-.6-.4-.9-.1-1.6.6-1.9.9-.4,1.6,0,2,.8.1.3.2.5.2.7l-.5.1c0-.1,0-.3-.1-.5-.2-.4-.6-.7-1.2-.4-.5.2-.7.7-.5,1.2.1.2.2.3.3.4l-.4.2h0Z"></path><path d="m643.28,538.95l-.7.1-.3-.6,2.9-.4.3.7-2.1,1.9-.3-.6.5-.5-.3-.6h0Zm.7.4l.5-.4c.1-.1.3-.2.4-.4h0c-.2,0-.4.1-.5.1l-.6.1.2.6h0Z"></path><path d="m645.98,539.95l.7,1.5-.5.2-.5-1-.6.3.4.9-.5.2-.4-.9-1,.5-.3-.6,2.7-1.1h0Z"></path><path d="m646.18,544.05l-.4-.9-.6.3.5,1-.5.2-.7-1.6,2.5-1.2.7,1.5-.5.2-.5-1-.5.2.4.9-.4.4h0Z"></path><path d="m658.58,521.35c-.1-.1-.3-.3-.4-.6-.4-.9-.1-1.6.6-1.9.9-.4,1.6,0,2,.8.1.3.2.5.2.7l-.5.1c0-.1,0-.3-.1-.5-.2-.4-.6-.7-1.2-.4-.5.2-.7.7-.5,1.2.1.2.2.3.3.4l-.4.2h0Z"></path><path d="m660.98,523.35c-.8.4-1.5.1-1.9-.6-.3-.7,0-1.4.7-1.8.8-.4,1.5-.1,1.9.6.4.8,0,1.5-.7,1.8h0Zm-.9-1.8c-.5.2-.7.6-.5,1s.6.4,1.1.2.7-.6.5-1c-.1-.3-.6-.4-1.1-.2Z"></path><path d="m662.18,526.05c-.8.4-1.5.1-1.9-.6-.3-.7,0-1.4.7-1.8.8-.4,1.5-.1,1.9.6.4.8,0,1.5-.7,1.8h0Zm-.8-1.8c-.5.2-.7.6-.5,1s.6.4,1.1.2.7-.6.5-1-.6-.4-1.1-.2Z"></path><path d="m663.48,528.65c-.8.4-1.5.1-1.9-.6-.3-.7,0-1.4.7-1.8.8-.4,1.5-.1,1.9.6.3.8,0,1.5-.7,1.8h0Zm-.9-1.7c-.5.2-.7.6-.5,1s.6.4,1.1.2.7-.6.5-1c-.1-.4-.6-.5-1.1-.2Z"></path><path d="m664.78,528.55c.1.2.2.4.4.7.2.4.2.6.1.9,0,.2-.2.4-.5.5-.2.1-.5.1-.7,0-.3-.1-.5-.4-.6-.7,0-.1-.1-.1-.1-.2l-.9.4-.3-.6,2.6-1h0Zm-.8,1.1c0,.07.03.13.1.2.1.3.4.4.6.3.2-.1.3-.3.2-.6,0-.1-.1-.2-.1-.2l-.8.3h0Z"></path><path d="m665.08,532.85l-.4-.9-.6.3.5,1-.5.2-.7-1.6,2.5-1.2.7,1.5-.5.2-.5-1-.5.2.4.9-.4.4h0Z"></path><path d="m666.78,532.65c.1.2.3.4.4.7.2.4.2.7.2.9s-.2.4-.4.5c-.3.1-.6,0-.8-.2h0c0,.2-.1.4-.3.6-.2.2-.5.4-.6.5l-.3-.6c0-.1.2-.2.5-.4s.3-.4.2-.6l-.1-.2-1,.5-.3-.6,2.5-1.1h0Zm-.9,1.1l.1.2c.1.3.4.4.6.3.2-.1.3-.3.2-.6-.1-.1-.1-.2-.1-.2l-.8.3h0Z"></path><path d="m666.18,536.35l-.7.1-.3-.6,2.9-.4.3.7-2.1,1.9-.3-.6.5-.5-.3-.6h0Zm.8.4l.5-.4c.1-.1.3-.2.4-.4h0c-.2,0-.4.1-.5.1l-.6.1.2.6h0Z"></path><path d="m668.58,537.65l-.3-.7.5-.2.9,1.9-.5.2-.3-.7-2,.9-.3-.6,2-.8h0Z"></path><path d="m669.98,539.65l-2.5,1.2-.3-.6,2.5-1.2.3.6Z"></path><path d="m667.98,541.85l2.1-2,.3.6-.9.8c-.3.2-.5.4-.8.6h0c.3-.1.7-.1,1-.2l1.2-.2.3.6-2.9.3-.3-.5h0Z"></path><path d="m669.68,543.65l-.7.1-.3-.6,2.9-.4.3.7-2.1,1.9-.3-.6.5-.5-.3-.6h0Zm.7.5l.5-.4c.1-.1.3-.2.4-.4h0c-.2,0-.4.1-.5.1l-.6.1.2.6h0Z"></path><path d="m658.38,523.05c.1.2.2.4.4.7.2.4.2.6.1.9,0,.2-.2.4-.5.5-.2.1-.5.1-.7,0-.3-.1-.5-.4-.6-.7,0-.1-.1-.1-.1-.2l-.9.4-.3-.6,2.6-1h0Zm-.9,1.1c0,.07.03.13.1.2.1.3.4.4.6.3.2-.1.3-.3.2-.6,0-.1-.1-.2-.1-.2l-.8.3h0Z"></path><path d="m658.68,527.35l-.4-.9-.6.3.5,1-.5.2-.7-1.6,2.5-1.2.7,1.5-.5.2-.5-1-.5.2.4.9-.4.4h0Z"></path><path d="m658.38,528.05c0,.2,0,.5.1.7.1.3.3.4.5.3.2-.1.2-.2.2-.6,0-.5.1-.9.4-1,.4-.2.9,0,1.2.6.1.3.2.5.2.7l-.5.1c0-.1,0-.3-.1-.6-.1-.2-.3-.3-.4-.2-.2.1-.2.2-.1.6,0,.5-.1.8-.4,1-.4.2-.9,0-1.2-.6-.1-.3-.2-.6-.2-.8l.3-.2h0Z"></path><path d="m661.18,529.15c.1.2.2.4.4.7.2.4.2.6.1.9,0,.2-.2.4-.5.5-.2.1-.5.1-.7.1-.3-.1-.5-.4-.6-.7,0-.1-.1-.1-.1-.2l-.9.4-.3-.6,2.6-1.1h0Zm-.9,1.1c0,.07.03.13.1.2.1.3.4.4.6.3.2-.1.3-.3.2-.6,0-.1-.1-.2-.1-.2l-.8.3h0Z"></path><path d="m662.48,531.85l-2.5,1.2-.3-.6,2.5-1.2.3.6Z"></path><path d="m662.68,532.35c.1.2.3.4.4.7.2.4.2.7.2.9s-.2.4-.4.5c-.3.1-.6,0-.8-.2h0c0,.2-.1.4-.3.6-.2.2-.5.4-.6.5l-.3-.6c0-.1.2-.2.5-.4s.3-.4.2-.6l-.1-.2-1,.5-.3-.6,2.5-1.1h0Zm-.8,1.1l.1.2c.1.3.4.4.6.3.2-.1.3-.3.2-.6-.1-.1-.1-.2-.1-.2l-.8.3h0Z"></path><path d="m662.98,536.75l-.4-.9-.6.3.5,1-.5.2-.7-1.6,2.5-1.2.7,1.5-.5.2-.5-1-.5.2.4.9-.4.4h0Z"></path><path d="m662.18,537.65l2.5-1.2.3.7-.7.9c-.2.3-.4.6-.7.8h0c.3-.2.6-.4,1-.5l.7-.3.2.5-2.5,1.2-.3-.6.7-1c.2-.3.5-.6.7-.8h0c-.3.2-.7.3-1.1.5l-.8.4v-.6h0Z"></path><path d="m663.98,539.95c0,.2,0,.5.1.7.1.3.3.4.5.3.2-.1.2-.2.2-.6,0-.5.1-.9.4-1,.4-.2.9,0,1.2.6.1.3.2.5.2.7l-.5.1c0-.1,0-.3-.1-.6s-.3-.3-.4-.2c-.2.1-.2.2-.1.6,0,.5-.1.8-.5,1s-.9,0-1.2-.6c-.1-.3-.2-.6-.2-.8l.4-.2h0Z"></path><path d="m666.08,543.25l-.4-.9-.6.3.5,1-.5.2-.7-1.6,2.5-1.2.7,1.5-.5.2-.5-1-.5.2.4.9-.4.4h0Z"></path><path d="m701.48,527.65c.3-.1.7-.3,1-.5h0c-.3.1-.8.1-1.1.2l-1.1.1-.2-.4.8-.7c.3-.2.6-.5.9-.7h0c-.3.1-.7.3-1.1.4l-1,.4-.2-.5,2.6-1,.3.8-.7.6c-.2.2-.5.4-.8.6h0c.3-.1.7-.1,1-.2l1-.1.3.7-2.4,1.3-.3-.6,1-.4h0Z"></path><path d="m701.98,529.45l-.7.1-.3-.6,2.9-.4.3.7-2.1,1.9-.3-.6.5-.5-.3-.6h0Zm.7.4l.5-.4c.1-.1.3-.2.4-.4h0c-.2,0-.4.1-.5.1l-.6.1.2.6h0Z"></path><path d="m702.68,532.85l.3-.4c.1-.2.2-.3.3-.4h-1l-.3-.6,1.6.1.9-1.3.3.6-.4.4c-.1.1-.2.3-.3.4h1l.3.6-1.5-.1-.9,1.3-.3-.6h0Z"></path><path d="m705.88,533.15l-2.5,1.2-.3-.6,2.5-1.2.3.6Z"></path><path d="m705.38,535.85l-.4-.9-.6.3.5,1-.5.2-.7-1.6,2.5-1.2.7,1.5-.5.2-.5-1-.5.2.4.9-.4.4h0Z"></path><path d="m707.08,535.65l.7,1.5-.5.2-.5-1-.6.3.4.9-.5.2-.4-.9-1,.5-.3-.6,2.7-1.1h0Z"></path><path d="m707.18,539.75l-.4-.9-.6.3.5,1-.5.2-.7-1.6,2.5-1.2.7,1.5-.5.2-.5-1-.5.2.4.9-.4.4h0Z"></path><path d="m707.28,542.55c-.1-.1-.3-.3-.4-.6-.4-.9-.1-1.6.6-1.9.8-.4,1.6,0,2,.8.1.3.2.5.2.7l-.5.1c0-.1,0-.3-.1-.5-.2-.4-.6-.7-1.2-.4-.5.2-.7.7-.5,1.2.1.2.2.3.3.4l-.4.2h0Z"></path><path d="m709.68,542.55l-.3-.7.5-.2.9,1.9-.5.2-.3-.7-2,.9-.3-.6,2-.8h0Z"></path><path d="m711.18,544.45l-2.5,1.2-.3-.6,2.5-1.2.3.6Z"></path><path d="m709.18,546.65l2.1-2,.3.6-.9.8c-.3.2-.5.4-.8.6h0c.3-.1.7-.1,1-.2l1.2-.2.3.6-2.9.3-.3-.5h0Z"></path><path d="m712.28,550.15c-.8.4-1.5.1-1.9-.6-.3-.7,0-1.4.7-1.8.8-.4,1.5-.1,1.9.6.4.8,0,1.4-.7,1.8h0Zm-.9-1.8c-.5.2-.7.6-.5,1s.6.4,1.1.2.7-.6.5-1c-.1-.4-.6-.4-1.1-.2Z"></path><path d="m595.48,497.75v.2l-.2.1-.1-.9.2-.1.6.6-.2.1-.1-.2-.2.2h0Zm.1-.2l-.1-.1-.1-.1h0v.4l.2-.2h0Z"></path><path d="m596.68,497.35s-.1.1-.2.2c-.1.1-.2.1-.4,0-.1,0-.2-.1-.2-.2-.1-.2,0-.5.2-.6.1,0,.2-.1.2-.1v.1s-.1,0-.2.1-.2.2-.1.4.2.2.4.1c0,0,.1,0,.1-.1l-.1-.2-.1.1-.1-.1.3-.1.2.4h0Z"></path><path d="m597.18,496.75l-.3.1.1.2.3-.1.1.1-.5.2-.4-.8.5-.2.1.1-.3.1.1.2.3-.1v.2h0Z"></path><path d="m597.48,497.05l-.4-.8.2-.1.3.2c.1.1.2.1.2.2h0c-.1-.1-.1-.2-.2-.3l-.1-.2.2-.1.4.8-.2.1-.3-.2c-.1-.1-.2-.1-.2-.2h0c0,.1.1.2.2.3l.1.2-.2.1h0Z"></path><path d="m598.78,496.45s-.1.1-.2.1c-.3.1-.5,0-.6-.2-.1-.3,0-.5.2-.6.1,0,.2-.1.2-.1v.1h-.2c-.1.1-.2.2-.1.4.1.1.2.2.4.1l.1-.1.2.3h0Z"></path><path d="m598.68,495.55l.4.8-.2.1-.4-.8.2-.1Z"></path><path d="m599.28,495.95v.2l-.2.1-.1-.9.2-.1.6.6-.2.1-.1-.2-.2.2h0Zm.2-.2l-.1-.1-.1-.1h0v.4l.2-.2h0Z"></path><path d="m600.28,495.75l-.6-.6.2-.1.2.3c.07.07.13.13.2.2h0c0-.1,0-.2-.1-.3v-.4l.2-.1.1.9-.2.1h0Z"></path><path d="m600.68,494.65l.4.8-.2.1-.4-.8.2-.1Z"></path><path d="m600.78,494.55s.1-.1.2-.1c.1-.1.2-.1.3-.1s.1.1.1.1v.2h0c.07,0,.13.03.2.1.1.1.1.2.2.2l-.2.1-.1-.1c-.07-.07-.13-.1-.2-.1h0l.1.3-.2.1-.4-.7h0Zm.4.3h0c.1-.1.2-.1.1-.2,0-.1-.1-.1-.2-.1h-.1l.2.3Z"></path><path d="m601.68,494.35l-.2.1-.1-.1.6-.3.1.1-.2.1.3.6-.2.1-.3-.6h0Z"></path><path d="m602.28,493.95l.2.4c.1.1.1.2.2.1s.1-.1,0-.3l-.2-.4.2-.1.2.4c.1.2,0,.4-.2.5s-.4,0-.5-.2l-.2-.4h.3Z"></path><path d="m603.28,494.15v.2l-.2.1-.1-.9.2-.1.6.6-.2.1-.1-.2-.2.2h0Zm.1-.2l-.1-.1-.1-.1h0v.4l.2-.2h0Z"></path><path d="m603.58,493.35l.2-.1.3.6.3-.1.1.1-.5.2-.4-.7h0Z"></path><path d="m674.48,465.45c.2-.1.4-.3.8-.4.4-.2.7-.2,1-.2.2.1.5.2.6.5s.1.6,0,.8c-.1.3-.4.5-.8.7-.1,0-.2.1-.2.1l.5,1-.6.3-1.3-2.8h0Zm1.2,1c.07,0,.13-.03.2-.1.3-.2.5-.4.3-.7-.1-.3-.4-.3-.7-.2-.1.1-.2.1-.2.1l.4.9h0Z" style="fill:#fff;"></path><path d="m678.18,466.25l.1.8-.7.3-.4-3.2.8-.4,2.2,2.4-.7.3-.5-.6-.8.4h0Zm.5-.8l-.5-.5c-.1-.1-.3-.3-.4-.5h0c0,.2.1.4.1.6l.1.7.7-.3h0Z" style="fill:#fff;"></path><path d="m679.28,463.25c.2-.1.4-.3.8-.4.4-.2.7-.2,1-.2.2.1.5.2.6.5s.1.6,0,.8c-.1.3-.4.5-.8.7-.1,0-.2.1-.2.1l.5,1-.6.3-1.3-2.8h0Zm1.3,1c.07,0,.13-.03.2-.1.3-.2.5-.4.3-.7-.1-.3-.4-.3-.7-.2-.1.1-.2.1-.2.1l.4.9h0Z" style="fill:#fff;"></path><path d="m683.08,463.95l.1.8-.7.3-.4-3.2.8-.4,2.2,2.4-.7.3-.5-.6-.8.4h0Zm.5-.8l-.5-.5c-.1-.1-.3-.3-.4-.5h0c0,.2.1.4.1.6l.1.7.7-.3h0Z" style="fill:#fff;"></path><path d="m685.58,460.25l.6-.3.8,1.8c.4.8.1,1.2-.5,1.5-.1.1-.4.1-.5.1l-.2-.5c.1,0,.2,0,.4-.1.3-.1.4-.3.2-.8l-.8-1.7h0Z" style="fill:#fff;"></path><path d="m689.98,459.95c.4.9.1,1.7-.7,2.1-.8.4-1.6,0-2-.8s-.1-1.7.7-2.1c.8-.4,1.6,0,2,.8h0Zm-2,1c.2.6.7.8,1.1.6s.5-.7.2-1.3c-.2-.5-.7-.8-1.1-.6-.4.2-.5.7-.2,1.3h0Z" style="fill:#fff;"></path><path d="m690.38,458.05l.5,1.1,1-.5-.5-1.1.6-.3,1.3,2.8-.6.3-.5-1.2-1,.5.5,1.2-.6.3-1.3-2.8.6-.3h0Z" style="fill:#fff;"></path><path d="m693.88,459.85l-1.3-2.8.7-.3,1.1.8c.3.2.6.5.9.8h0c-.2-.4-.4-.7-.6-1.1l-.4-.8.6-.3,1.3,2.8-.7.3-1.1-.8c-.3-.2-.7-.5-.9-.8h0c.2.4.4.8.6,1.2l.4.8-.6.2h0Z" style="fill:#fff;"></path><path d="m696.38,455.15l-.2.9-.4.2.1-.8.5-.3h0Z" style="fill:#fff;"></path><path d="m697.68,457.25c.2,0,.5,0,.8-.1s.4-.3.3-.5-.3-.2-.7-.2c-.5.1-1-.1-1.2-.5-.2-.5,0-1,.7-1.3.3-.1.6-.2.8-.2l.1.6c-.1,0-.4,0-.7.1s-.3.3-.3.5c.1.2.3.2.7.1.6-.1.9.1,1.1.5.2.5,0,1-.7,1.4-.3.1-.7.2-.9.2v-.6h0Z" style="fill:#fff;"></path><path d="m753.68,543.35c-1.1.5-2.1.1-2.6-.9s0-2,1-2.4c1-.5,2.1-.2,2.6.8.5,1.1,0,2.1-1,2.5h0Zm-1.2-2.4c-.7.3-1,.8-.8,1.4s.9.6,1.5.3,1-.8.8-1.4-.8-.7-1.5-.3h0Z" style="fill:#fff;"></path><path d="m755.58,543.05l1,2.1-.6.3-.6-1.3-.8.4.6,1.2-.6.3-.6-1.2-1.4.6-.4-.8,3.4-1.6h0Z" style="fill:#fff;"></path><path d="m757.18,546.55l-3.4,1.6-.4-.8,3.4-1.6.4.8Z" style="fill:#fff;"></path><path d="m755.38,551.25c-.1-.1-.4-.4-.5-.8-.5-1.2-.1-2.1.9-2.6,1.2-.5,2.2,0,2.7,1,.2.4.2.7.2.9l-.7.1c0-.2,0-.4-.2-.7-.3-.6-.9-.9-1.6-.6-.7.3-.9.9-.6,1.6.1.2.3.5.4.6l-.6.5h0Z" style="fill:#fff;"></path><path d="m756.68,554.15c-.1-.1-.4-.4-.5-.8-.5-1.2-.1-2.1.9-2.6,1.2-.5,2.2,0,2.7,1,.2.4.2.7.2.9l-.7.1c0-.2,0-.4-.2-.7-.3-.6-.9-.9-1.6-.6-.7.3-.9.9-.6,1.6.1.2.3.5.4.6l-.6.5h0Z" style="fill:#fff;"></path><path d="m759.18,556.05l-.6-1.3-.8.4.7,1.4-.6.3-1-2.2,3.4-1.6,1,2.1-.6.3-.6-1.3-.7.3.6,1.3-.8.3h0Z" style="fill:#fff;"></path><path d="m749.98,542.45c.2.3.4.6.6,1,.3.6.4,1.1.3,1.6-.1.5-.4.9-1,1.2-.7.3-1.2.3-1.7.1s-.9-.7-1.2-1.4c-.2-.4-.3-.7-.4-.9l3.4-1.6h0Zm-2.5,2.1c0,.1.1.2.1.3.3.7.9,1,1.7.6.7-.3.9-.9.6-1.6-.1-.2-.2-.3-.2-.3l-2.2,1h0Z" style="fill:#fff;"></path><path d="m750.58,548.95l-.6-1.3-.8.4.7,1.4-.6.3-1-2.2,3.4-1.6,1,2.1-.6.3-.6-1.3-.7.3.6,1.3-.8.3h0Z" style="fill:#fff;"></path><path d="m752.88,548.65c.2.2.3.5.6,1,.2.5.3.9.2,1.2s-.3.6-.6.7c-.3.2-.7.2-1,.1-.4-.1-.7-.5-.9-.9,0-.1-.1-.2-.1-.3l-1.2.6-.4-.8,3.4-1.6h0Zm-1.2,1.5c0,.1,0,.2.1.3.2.4.5.6.9.4.3-.1.4-.4.2-.8-.1-.2-.1-.3-.2-.3l-1,.4h0Z" style="fill:#fff;"></path><path d="m753.98,555.55c-1.1.5-2.1.1-2.6-.9s0-2,1-2.4c1-.5,2.1-.2,2.6.8.5,1.1,0,2.1-1,2.5h0Zm-1.2-2.5c-.7.3-1,.8-.8,1.4s.9.6,1.5.3,1-.8.8-1.4c-.2-.5-.8-.6-1.5-.3h0Z" style="fill:#fff;"></path><path d="m755.48,556.05l-.4-.9.7-.3,1.2,2.6-.7.3-.4-.9-2.8,1.3-.4-.8,2.8-1.3h0Z" style="fill:#fff;"></path></g><g id="nopointer-icons"><g id="frontalsubidaescalera1"><path d="m628.98,514.75l1.8.4h0v.1s0,.1-.1.1-.1.1-.2.1h-.2l-1.8-.4.2.5v.2s-.1.1-.2.1h-.2s-.1,0-.2-.1l-.5-.9v-.2l.1-.1.1-.1,1.3-.5h.2v.4l-.1.1-.2.3m3.7-2.5l1.9.4s.2,0,.2.1c0,0,.1.1.2.1,0,0,.1.1.2.1,0,0,0,.1.1.2l.5,1c0,.1,0,.2.1.3s0,.2-.1.3c0,.1-.1.2-.3.3-.1.1-.3.2-.5.2s-.4.1-.5.1h-.5c-.2,0-.3-.1-.4-.1-.1-.1-.2-.1-.2-.2s0-.1-.1-.2,0-.1-.1-.2,0-.1,0-.2h0l-5.2-1.2c-.1,0-.2-.1-.3-.1l-.2-.1s-.1-.1-.2-.1c0,0,0-.1-.1-.2,0,0,0-.1-.1-.2s-.1-.2-.2-.3c0-.1-.1-.2-.1-.3v-.1c0-.1-.1-.3-.1-.4s.1-.2.2-.4c.1-.1.2-.2.3-.3.1-.1.3-.2.4-.2s.3-.1.4-.1h.5c.2,0,.3.1.4.1.1.1.2.2.3.3l.2.5v.1h.1l1.6.4,1.6-.6c.1,0,.2-.1.3-.1h.2s.2,0,.2.1l.1.1v.4s-.1.1-.1.2c0,0-.2.1-.3.1l-.4.2m.9-.8v-.4s.1-.1.1-.2l.2-.1c.1,0,.2-.1.3-.1h.2s.2,0,.2.1.1.1.1.2v.4s-.1.1-.1.2l-.2.1c-.1,0-.2.1-.3.1h-.2s-.2,0-.2-.1-.1-.1-.1-.2m4.5,2.3l-3-5.8c0-.1-.2-.2-.2-.3s-.2-.1-.3-.2h-.5c-.2,0-.3.1-.5.1l-8.6,3.2c-.2.1-.4.2-.5.2s-.2.2-.3.3c0,.1-.1.2-.1.3s0,.2.1.4l3.1,5.8c0,.1.2.2.2.3.1.1.2.1.3.2h.5c.2,0,.3-.1.5-.1l8.5-3.2c.2-.1.4-.2.5-.2.2-.1.2-.2.3-.3,0-.1.1-.2.1-.3.1-.1,0-.3-.1-.4" style="fill:#333;"></path><path d="m634.98,510.95s0-.1-.1-.2c0,0-.1-.1-.2-.1h-.2s-.2,0-.3.1-.2.1-.2.1c0,0-.1.1-.1.2v.4c.1,0,.1.1.1.2s.1.1.2.1h.2c.1,0,.2,0,.3-.1.1,0,.2-.1.2-.1,0,0,.1-.1.1-.2v-.4" style="fill:#fff;"></path><path d="m627.08,511.55v-.4s.1-.1.1-.2l.2-.1c.1,0,.2-.1.3-.1h.2s.1,0,.2.1c0,0,0,.1.1.1l.3.6v.1l.1.1.1.1h.1l5.3,1.2h.1l.1.1v.2l.5.9v.2c0,.07-.03.13-.1.2l-.1.1s-.1.1-.2.1h-.4s-.2,0-.2-.1-.1-.1-.2-.1l-.2-.5v-.1s0-.1-.1-.1,0,0-.1-.1h-.2l-5.3-1.2h-.2s-.1,0-.1-.1,0,0-.1-.1v-.1l-.2-.8m8.7,2.7l-.5-1s0-.1-.1-.2-.1-.1-.2-.1c0,0-.1-.1-.2-.1s-.2-.1-.2-.1l-1.9-.4.4-.1c.1,0,.2-.1.3-.1,0,0,.1-.1.1-.2v-.4s0-.1-.1-.1-.1-.1-.2-.1h-.2c-.1,0-.2,0-.3.1l-1.6.6-1.6-.4h-.1v-.1l-.2-.5c0-.1-.2-.2-.3-.3-.1-.1-.3-.1-.4-.1h-.5c-.2,0-.3,0-.4.1-.2.1-.3.1-.4.2-.1.1-.2.2-.3.3-.1.1-.1.2-.2.4,0,.1,0,.3.1.4v.1c0,.1,0,.2.1.3s.1.2.2.3c0,.1.1.2.1.2,0,0,0,.1.1.2,0,0,.1.1.2.1,0,0,.1.1.2.1,0,0,.2.1.3.1l5.2,1.2h0v.2s0,.1.1.2,0,.1.1.2.1.2.2.2c.1.1.2.1.4.1h.5c.2,0,.3,0,.5-.1s.3-.2.5-.2.2-.2.3-.3c0-.1.1-.2.1-.3,0-.2,0-.3-.1-.4" style="fill:#fff;"></path><path d="m630.98,515.25s0-.1,0,0q0-.07,0,0h0l-.1-.1-1.8-.4.6-.3s.1,0,.1-.1v-.3h-.2l-1.3.5s-.1,0-.1.1,0,0-.1.1,0,0,0,.1v.1l.5.9s.1.1.2.1h.2l.2-.1v-.2l-.2-.5,1.8.4h.2s.1,0,.2-.1c0,0,0-.1.1-.1-.2,0-.2-.1-.3-.1" style="fill:#fff;"></path><path d="m635.18,514.45l-.5-.9v-.2l-.1-.1h-.1l-5.3-1.2h-.1l-.1-.1-.1-.1v-.1l-.3-.6s0-.1-.1-.1-.1-.1-.2-.1h-.2c-.1,0-.2,0-.3.1-.1,0-.2.1-.2.1,0,0-.1.1-.1.2v.4l.5.9v.1s0,.1.1.1,0,0,.1.1h.2l5.3,1.2h.2s.1,0,.1.1l.1.1v.1l.2.5c0,.1.1.1.2.1,0,0,.2,0,.2.1h.4s.1-.1.2-.1l.1-.1s0-.1.1-.2c-.3-.2-.3-.3-.3-.3" style="fill:#333;"></path></g><g id="frontalsubidaescalera1-2"><path d="m483.08,788.95l1-1.2h.1l.1.1v.1l-.1.2-1,1.2h.5s.1,0,.1.1v.2s0,.1-.1.2-.1,0-.1.1h-1.1c-.1,0,0,0-.1-.1v-1.7h.3l.1.1v.1l.3.6m-.8-4l1.1-1.3.1-.1s.1,0,.2-.1c0,0,.1,0,.2-.1h1.3c.1,0,.2,0,.3.1s.2.1.2.3c.1.1.2.2.2.4,0,.1.1.3,0,.5s-.1.4-.1.5-.1.3-.2.4l-.3.3c-.1,0-.2.1-.3.1h-.6l-3.1,3.6c0,.1-.1.1-.2.2,0,0-.1.1-.2.1,0,0-.1,0-.2.1h-1.2c-.1,0-.3-.1-.4-.1l-.3-.3c-.1-.1-.1-.2-.2-.4v-.4c0-.1,0-.3.1-.4s.1-.3.2-.4l.3-.3c.1,0,.3-.1.4-.1h.7v-.1l1-1.1v-1.5c0-.1,0-.2.1-.2s.1-.1.1-.2l.1-.1h.4c.07,0,.1.03.1.1,0,.1.1.1.1.2v.3h.1m-.4-1.1s-.1,0-.2-.1c0,0-.1-.1-.2-.1,0,0-.1-.1-.1-.2v-.2c0-.07.03-.13.1-.2s.1-.13.1-.2.07-.1.2-.1h.4s.1.1.2.1c0,0,.1.1.1.2v.2c0,.07-.03.13-.1.2,0,.07-.03.13-.1.2-.07.07-.13.1-.2.1-.1,0-.2.1-.2.1m3.8-2.6l-6.5-.1h-.4c-.1,0-.2.1-.3.2-.1.1-.1.2-.2.4s-.1.3-.1.5l-.4,8.1v.5c0,.1.1.2.2.3.1.1.2.1.3.2s.2.1.4.1h6.9c.1,0,.2-.1.3-.2,0-.1.1-.2.2-.4,0-.1.1-.3.1-.5l.3-8.1v-.5c0-.2-.1-.2-.1-.4-.1-.1-.2-.1-.3-.2-.1.1-.3.2-.4.1" style="fill:#333;"></path><path d="m481.88,782.65h-.2s-.1,0-.2.1c0,0-.1.1-.1.2s0,.1-.1.2,0,.1,0,.2.1.1.1.2c0,0,.1.1.2.1l.2.1h.2c.07,0,.13-.03.2-.1q.1-.1.1-.2t.1-.2v-.2c0-.1-.1-.1-.1-.2,0,0-.1-.1-.2-.1l-.2-.1" style="fill:#fff;"></path><path d="m479.48,789.15s-.1,0-.1-.1l-.1-.1s-.1-.1-.1-.2v-.2c0-.07.03-.13.1-.2.1-.1,0-.1.1-.2s.1,0,.1-.1h1.1s0-.1.1,0l3.1-3.7s0-.1.1,0,0,0,.1,0h1.3l.1.1s.1.1.1.2v.4l-.1.2-.1.1s-.1,0-.2.1h-.9s-.1,0-.1.1l-3.1,3.7s0,.1-.1.1h-.3l-1.1-.2m5.8-5.7h-1.3c-.07,0-.13.03-.2.1-.1.1-.1,0-.2.1l-.1.1-1.1,1.3v-.7s-.1-.1-.1-.2l-.1-.1h-.4c-.07,0-.1.03-.1.1,0,.1-.1.1-.1.2s0,.2-.1.2v1.5l-1,1.1v.1h-.7c-.1,0-.3,0-.4.1-.1,0-.2.2-.3.3s-.1.2-.2.4-.1.3-.1.4v.4c0,.1.1.2.2.4l.3.3c.1.1.2.1.4.1h1.1s.1,0,.2-.1c0,0,.1,0,.2-.1l.2-.2,3.1-3.6h.6c.1,0,.2,0,.3-.1.1,0,.2-.1.3-.3.1-.1.1-.2.2-.4s.1-.3.1-.5v-.5c0-.2-.1-.2-.2-.4-.1-.1-.2-.1-.2-.3-.1.3-.2.3-.3.3" style="fill:#fff;"></path><path d="m484.28,787.65h0s0-.1,0,0h0l-.1.1-1,1.2v-.7l-.1-.1h-.2v1.7c0,.1,0,0,.1.1h1.1s.1,0,.1-.1c0,0,0-.1.1-.2s0-.1,0-.2l-.1-.1h-.5l1-1.3s.1-.1.1-.2v-.1l-.1-.1h-.4" style="fill:#fff;"></path><path d="m485.18,783.95h-1.3s0,.1-.1,0l-3.1,3.7s0,.1-.1,0h-1.1c-.07,0-.1.03-.1.1,0,.1-.1.1-.1.2s0,.1-.1.2v.2s.1.1.1.2l.1.1.1.1h1.3s.1,0,.1-.1l3.1-3.7s0-.1.1-.1h.9c.07,0,.13-.03.2-.1l.1-.1.1-.2v-.4s0-.1-.1-.2l-.1-.1c.07.13.07.2,0,.2" style="fill:#333;"></path></g></g></svg>